<svg width="73" height="70" viewBox="0 0 73 70" fill="none" xmlns="http://www.w3.org/2000/svg">
<path d="M22.1241 7.88293C27.0065 4.96138 32.7178 3.28223 38.8213 3.28223C56.8062 3.28223 71.3858 17.8618 71.3858 35.8467C71.3858 53.8316 56.8062 68.4112 38.8213 68.4112C20.8364 68.4112 6.25684 53.8316 6.25684 35.8467C6.25684 30.2992 7.64399 25.0757 10.0904 20.5041" stroke="#1FADED" stroke-width="3"/>
<path d="M5.43822 16.6488C3.67314 17.3793 3.839 19.9321 5.68376 20.4281L8.90722 21.2949C9.33125 21.4089 9.72508 21.6146 10.0609 21.8974L12.6139 24.0478C14.075 25.2785 16.2648 23.9562 15.856 22.0901L14.4081 15.4813C14.1416 14.2648 12.8402 13.5851 11.6895 14.0613L5.43822 16.6488Z" fill="#1FADED"/>
<path d="M37.802 19.746L34.6756 34.9947C34.4246 36.2189 34.7603 37.4902 35.5829 38.431L44.0081 48.0667C45.5629 49.8449 48.3744 47.9318 47.2909 45.8328L42.197 35.9642C41.9037 35.3961 41.7509 34.766 41.7514 34.1267L41.7612 20.1491C41.7629 17.7385 38.2861 17.3845 37.802 19.746Z" fill="#1FADED"/>
</svg>
