<svg width="122" height="275" viewBox="0 0 122 275" fill="none" xmlns="http://www.w3.org/2000/svg">
<path d="M18.8074 62.1739C27.277 65.9597 35.6313 73.3049 38.6928 78.1358C37.7022 58.503 35.6671 38.647 34.3633 27.8458C33.0596 17.0446 31.7021 1.83383 38.8771 1.64835C45.84 1.46836 47.3951 6.34258 49.4895 17.529C51.2622 26.9975 53.1791 46.2744 54.9089 54.974C66.6615 51.784 85.735 53.8324 94.5296 55.5648C104.446 25.6827 112.553 17.0794 118.566 19.9472C124.579 22.8151 115.438 42.7277 111.952 51.8503C108.465 60.9728 103.747 92.9299 100.709 107.255C97.6706 121.58 87.8253 128.875 61.8274 127.443C39.3075 126.202 25.5223 104.655 22.622 91.308C20.3016 80.6306 7.2729 70.2914 2.15172 68.0261C2.24069 59.5722 8.22039 57.4415 18.8074 62.1739Z" fill="#F58F7B"/>
<path d="M73.7806 52.0152C66.3283 43.3728 57.6112 48.1458 54.1842 51.6126C55.0896 59.7701 55.1359 77.0859 56.4536 82.7401C58.1007 89.8079 59.5806 95.6423 65.906 95.6532C70.9664 95.662 74.1339 91.5672 74.5554 89.5908C76.7896 91.9964 80.2952 95.3879 84.932 94.2836C92.8003 92.4096 91.7299 80.9718 92.8717 66.6161C94.0134 52.2603 91.5852 49.381 85.7246 48.1555C81.0361 47.175 75.8084 50.3201 73.7806 52.0152Z" fill="url(#paint0_linear_2055_1940)"/>
<path d="M36.5575 274.068H104.586C114.598 262.654 109.869 253.034 104.072 241.241L103.983 241.061C99.314 231.561 102.843 214.829 105.19 207.651L42.7978 206.04C44.1396 216.372 45.696 239.531 41.1877 249.513C36.6793 259.496 36.2224 270.043 36.5575 274.068Z" fill="#701556"/>
<path d="M48.2635 204.677L51.3759 100.774L84.7994 103.656L94.6206 205.85L48.2635 204.677Z" fill="url(#paint1_linear_2055_1940)"/>
<path d="M50.2489 241.194C53.5153 224.291 49.0955 185.487 48.5184 184.718C43.2682 198.1 33.4592 225.788 36.2253 229.476C38.9915 233.164 46.7269 238.825 50.2489 241.194Z" fill="#E7E3E0"/>
<path d="M61.289 234.47C58.3383 228.937 49.2412 212.572 45.0615 205.081C80.0236 199.088 90.7317 182.35 91.7155 174.729C96.6943 183.822 107.168 204.542 109.234 214.685C111.815 227.363 85.8146 235.239 77.3322 239.08C68.8497 242.922 64.9773 241.386 61.289 234.47Z" fill="#E7E3E0"/>
<defs>
<linearGradient id="paint0_linear_2055_1940" x1="76.3517" y1="23.945" x2="72.7037" y2="95.8666" gradientUnits="userSpaceOnUse">
<stop stop-color="#F58F7B"/>
<stop offset="1" stop-color="#F17264"/>
</linearGradient>
<linearGradient id="paint1_linear_2055_1940" x1="62.7137" y1="99.8354" x2="71.6481" y2="207.752" gradientUnits="userSpaceOnUse">
<stop offset="0.260417" stop-color="#F58F7B"/>
<stop offset="1" stop-color="#F58F7B" stop-opacity="0.85"/>
</linearGradient>
</defs>
</svg>
