<svg width="69" height="69" viewBox="0 0 69 69" fill="none" xmlns="http://www.w3.org/2000/svg">
<rect x="45.4639" y="22.418" width="21.57" height="44.3435" stroke="#E3B457" stroke-width="3"/>
<rect width="32.6373" height="21.6508" transform="matrix(-1 0 0 1 45.4639 45.1113)" stroke="#E3B457" stroke-width="3"/>
<path d="M12.9068 66.762H2.0003V1.64844H35.1982V34.2052V45.4314" stroke="#E3B457" stroke-width="3"/>
<path d="M35.1982 28.0505V14.2981L45.583 7.42188L55.9678 14.2981V22.1768" stroke="#E3B457" stroke-width="3"/>
<rect x="21.4873" y="53.6914" width="4.89108" height="4.89108" fill="#E3B457"/>
<rect x="32.3525" y="53.6914" width="4.89108" height="4.89108" fill="#E3B457"/>
<rect x="54.2041" y="30.918" width="11.9872" height="4.89108" fill="#E3B457"/>
<rect x="54.2041" y="42.3047" width="11.9872" height="4.89108" fill="#E3B457"/>
<rect x="54.2041" y="53.6914" width="11.9872" height="4.89108" fill="#E3B457"/>
<rect x="10.501" y="10.2285" width="4.89108" height="4.89108" fill="#E3B457"/>
<rect x="21.3662" y="10.2285" width="4.89108" height="4.89108" fill="#E3B457"/>
<rect x="10.501" y="21.1348" width="4.89108" height="4.89108" fill="#E3B457"/>
<rect x="10.501" y="32.041" width="4.89108" height="4.89108" fill="#E3B457"/>
<rect x="21.3662" y="21.1348" width="4.89108" height="4.89108" fill="#E3B457"/>
<rect x="21.3662" y="32.041" width="4.89108" height="4.89108" fill="#E3B457"/>
</svg>
