<svg width="112" height="286" viewBox="0 0 112 286" fill="none" xmlns="http://www.w3.org/2000/svg">
<path d="M27.4951 137.438L32.408 154.865L72.3744 164.02L81.5543 151.123C71.5456 134.498 41.269 135.115 27.4951 137.438Z" fill="#DF934C"/>
<path d="M33.7105 125.146L29.341 249.985L79.2873 247.169L71.315 131.103L33.7105 125.146Z" fill="url(#paint0_linear_2055_1949)"/>
<path d="M99.2177 46.3718C96.5891 52.8016 84.1344 61.8544 78.643 66.9663L76.3381 88.2884C81.1413 87.5196 90.6999 76.2463 96.6997 71.0002C104.2 64.4426 108.215 54.138 110.145 45.0686C112.075 35.9992 110.839 30.5852 106.278 30.8871C101.716 31.189 102.503 38.3346 99.2177 46.3718Z" fill="#F58F7B"/>
<path d="M85.1318 28.1989C86.2942 35.9956 82.7509 47.9864 80.8339 53.0071L78.2917 74.5331C81.8173 71.7171 89.4228 65.1935 91.6398 61.6273C94.4111 57.1696 97.8461 47.5146 97.9076 40.9919C97.969 34.4692 95.0561 18.9644 94.198 14.5325C93.34 10.1006 91.2196 7.54698 87.3567 10.0899C83.4937 12.6328 83.6788 18.453 85.1318 28.1989Z" fill="#F58F7B"/>
<path d="M15.3149 44.3708C13.6447 45.8751 11.9519 49.9218 11.3143 51.7572C10.6291 53.3488 8.63691 58.0547 6.15023 64.1452C3.04187 71.7584 5.39218 82.187 9.40497 95.4143C13.4178 108.642 19.3256 116.724 26.3811 123.6C32.0254 129.101 36.381 132.954 38.6529 155.312L66.9078 143.971C69.6524 136.399 76.436 117.924 81.6137 104.596C88.0858 87.9367 88.1105 74.0678 88.0575 64.6628C88.0045 55.2578 87.0223 38.8813 83.517 33.2745C80.0117 27.6677 75.1202 20.9027 71.7181 13.3124C68.316 5.72205 66.1126 2.89586 62.2882 3.4201C58.4639 3.94433 55.9883 6.34715 57.14 12.0123C58.2917 17.6774 61.6958 28.7032 67.1189 35.6755C71.4575 41.2533 70.7879 52.2336 69.6166 56.2108C67.8357 51.0553 62.8045 38.6695 59.2806 36.8949C56.0195 35.2527 44.7574 31.635 38.3463 29.6631C37.4336 29.3823 36.4461 29.5584 35.6817 30.1308L22.2224 40.2091C20.9642 47.0145 26.1561 48.008 30.1701 47.3128C33.3814 46.7566 37.7066 43.7878 39.4678 42.3729L51.0501 49.1233C52.7716 55.4208 55.1091 69.8024 50.687 76.9495C46.2649 84.0965 33.8452 83.2453 28.1881 81.9263C20.353 72.6588 20.7075 62.3709 23.3312 53.6476C25.9549 44.9244 17.4026 42.4904 15.3149 44.3708Z" fill="#FFA88C"/>
<path d="M81.6089 151.151C49.7814 153.263 32.236 142.886 27.4416 137.434L24.9264 156.914C41.2592 172.18 67.3824 172.838 78.4025 171.258L81.6089 151.151Z" fill="#FFD542"/>
<path d="M93.9152 285.071H14.2812C22.5408 261.031 19.0937 249.341 21.6009 239.737C24.7923 227.511 32.3296 233.863 46.1675 234.522C57.3225 235.053 70.0764 231.202 77.3401 227.888C78.3162 227.443 79.5225 227.776 80.2856 228.53C83.7539 231.958 91.8874 237.253 88.1301 245.856C82.089 259.686 94.558 276.107 93.9152 285.071Z" fill="#1F8AED"/>
<defs>
<linearGradient id="paint0_linear_2055_1949" x1="54.9496" y1="125.256" x2="54.3062" y2="250.113" gradientUnits="userSpaceOnUse">
<stop offset="0.28125" stop-color="#FFA88C"/>
<stop offset="1" stop-color="#FFA88C" stop-opacity="0.85"/>
</linearGradient>
</defs>
</svg>
