<svg width="224" height="246" viewBox="0 0 224 246" fill="none" xmlns="http://www.w3.org/2000/svg">
<path d="M81.2416 143.834C88.3185 168.897 75.5747 191.813 71.419 204.28L41.1956 231.292L21.3623 212.402L43.652 169.523L46.1085 118.71C49.5085 103.157 57.442 69.6344 61.9756 59.9629C66.5091 50.2914 90.4976 33.2018 99.9424 28.7944C111.843 31.6904 112.219 44.2867 139.422 43.9075C150.943 43.7469 160.2 49.9522 160.389 53.919C160.578 57.8858 156.596 63.2373 147.734 60.9071C140.555 59.0192 129.095 58.8931 122.043 59.5859C116.376 66.0084 107.498 70.9188 99.1868 69.7855C92.5376 68.8788 86.091 69.3445 83.5093 70.1633C53.6628 83.7646 72.1746 111.721 81.2416 143.834Z" fill="url(#paint0_linear_2055_1957)"/>
<path d="M224.001 102.655V245.46C211.004 242.739 186.771 213.095 181.734 207.681C150.755 239.038 134.888 243.949 104.664 244.327C80.5673 244.628 49.129 240.55 23.0614 241.683C-3.00634 242.817 34.3936 144.213 45.3496 137.413C54.1144 131.972 27.9724 221.66 55.5513 185.392C83.1302 149.124 122.421 146.856 138.666 148.368C154.911 149.879 158.54 130.551 177.956 111.723C190.423 99.6337 208.398 97.1658 224.001 102.655Z" fill="url(#paint1_linear_2055_1957)"/>
<path d="M55.5497 117.387C55.2472 101.368 53.6604 83.0091 67.64 62.23C68.962 64.8118 74.0616 68.653 83.8842 63.3639C93.7068 58.0748 98.807 41.0112 100.129 33.1405C103.605 39.4874 106.992 36.4147 108.252 34.085C105.834 39.9785 106.363 45.8595 106.93 48.0633C101.64 40.8852 98.0514 45.9854 98.807 49.5744C99.5626 53.1635 102.396 57.8859 110.519 57.8859C117.017 57.8859 119.083 53.0687 119.776 50.4242C122.42 56.5633 132.054 55.0522 133.282 48.063C134.541 50.0149 139.61 50.8964 142.254 49.5742C146.599 47.4019 145.749 44.1906 146.316 40.7905C150.377 42.585 158.027 39.846 156.232 29.7403C154.741 21.3525 139.893 8.29982 131.771 2.44403C125.273 -2.2406 122.42 1.02668 119.303 2.82272C113.448 3.95608 110.803 5.27797 108.159 7.73362C83.9798 12.116 61.9093 32.0061 53.6608 41.0734C48.2458 47.4959 33.1844 71.2968 16.2593 115.121C-4.89708 169.901 8.70376 194.458 6.43701 202.014C4.17025 209.57 -9.61885 235.637 17.5822 240.926C39.3431 245.158 38.4243 225.563 36.661 214.481C78.2182 180.48 55.9278 137.411 55.5497 117.387Z" fill="#FFA88C"/>
<defs>
<linearGradient id="paint0_linear_2055_1957" x1="90.879" y1="28.7944" x2="90.879" y2="231.292" gradientUnits="userSpaceOnUse">
<stop stop-color="#E86355"/>
<stop offset="0.838542" stop-color="#FFA88C"/>
</linearGradient>
<linearGradient id="paint1_linear_2055_1957" x1="84.6414" y1="247.728" x2="252.381" y2="297.597" gradientUnits="userSpaceOnUse">
<stop stop-color="#FFA88C"/>
<stop offset="1" stop-color="#FFA88C" stop-opacity="0.35"/>
</linearGradient>
</defs>
</svg>
