<svg width="84" height="70" viewBox="0 0 84 70" fill="none" xmlns="http://www.w3.org/2000/svg">
<path d="M0 37.207H24.2414C24.5998 37.207 24.9308 37.0152 25.109 36.7042L28.2615 31.2025C28.6746 30.4815 29.7358 30.5497 30.0532 31.3176L36.5023 46.9164C36.8883 47.8502 38.2578 47.6876 38.4143 46.6893L41.9355 24.2354C42.0975 23.2022 43.5365 23.0796 43.8709 24.0706L49.1581 39.739C49.4175 40.5079 50.4364 40.6639 50.914 40.0079L55.3595 33.9024C55.7762 33.3301 56.6392 33.3601 57.0152 33.9599L58.7568 36.7382C58.9397 37.0299 59.2598 37.207 59.6041 37.207H84" stroke="#F04647" stroke-width="3"/>
<path d="M5.48318 14.1783C15.8999 -5.98396 34.7626 3.56475 41.0437 12.1482C41.5017 12.774 42.4995 12.7749 42.9617 12.1523C49.3342 3.56786 69.0441 -5.98631 78.5168 14.1783C88.0999 35.4956 48.332 63.8553 42.5361 67.8416C42.2004 68.0725 41.7996 68.0725 41.4639 67.8416C35.668 63.8553 -4.09985 35.4956 5.48318 14.1783Z" stroke="#F04647" stroke-width="3"/>
</svg>
