<svg width="177" height="391" viewBox="0 0 177 391" fill="none" xmlns="http://www.w3.org/2000/svg">
<path opacity="0.3" d="M98.869 83.3297C75.1824 107.195 85.2707 144.878 93.3942 157.869L130.953 160.703C109.325 100.6 149.028 83.3782 166.48 60.8065C180.806 42.2788 175.806 31.7964 171.637 20.8841C171.584 35.412 170.109 41.2283 163.655 48.4376C173.836 17.5092 155.722 3.41097 135.308 0.479866C161.436 29.9734 129.073 52.898 98.869 83.3297Z" fill="url(#paint0_linear_2055_1931)"/>
<path d="M52.6081 123.061C62.4184 121.004 72.9131 123.984 75.9459 125.83L80.0999 138.093L80.0925 138.089C75.4082 135.78 65.3384 130.816 56.9566 132.555C46.4739 134.731 53.9898 158.663 57.55 168.157C61.1102 177.651 64.077 187.738 70.8018 189.518C75.0847 190.652 87.1544 189.122 90.7805 189.122L94.934 198.22C89.9893 198.879 77.131 201.188 70.0106 200.397C61.1102 199.408 44.8927 182.595 42.5192 162.42C40.1458 142.246 40.3453 125.632 52.6081 123.061Z" fill="#541642"/>
<path d="M54.9762 137.104C50.7032 137.815 41.0652 144.784 36.7803 148.18C36.3844 149.762 37.4729 174.289 40.9342 180.222C43.7032 184.969 48.9446 190.705 51.2191 192.98C65.3609 188.035 69.9101 178.541 68.6244 174.783C67.5959 171.777 64.8994 171.289 63.6797 171.421C64.6687 169.97 66.4488 166.437 65.6576 163.905C64.8665 161.373 62.2293 159.883 61.0096 159.455C62.1634 158.004 64.2533 154.372 63.3831 151.444C62.5128 148.517 59.9218 147.521 58.7351 147.389C63.5809 139.972 60.3174 136.214 54.9762 137.104Z" fill="url(#paint1_linear_2055_1931)"/>
<path d="M27.2863 214.342C26.8903 219.406 20.7262 266.623 17.6937 289.599L60.0207 296.324C59.9548 278.358 59.823 240.607 59.823 233.328C59.823 224.23 60.6141 222.351 62.0975 219.384C63.5809 216.418 67.5367 208.902 66.1522 200.001C65.0446 192.881 58.3725 190.244 55.1749 189.815C55.3398 187.145 55.2343 180.163 53.4937 173.597C51.7532 167.03 47.626 160.378 45.78 157.872C45.6811 150.06 45.78 140.467 46.6701 134.336C47.5601 128.204 48.8457 117.425 44.7911 116.337C40.7364 115.249 36.484 117.92 34.2094 123.656C32.3898 128.245 30.5504 142.709 29.8581 149.368C27.9459 149.994 22.8359 151.841 17.6934 154.214C11.2653 157.181 10.9694 163.609 12.255 167.268C13.5407 170.927 21.5511 194.167 23.6278 198.914C25.7046 203.661 27.7814 208.012 27.2863 214.342Z" fill="url(#paint2_linear_2055_1931)"/>
<path d="M15.2218 289.007L8.19922 336.773L9.9801 342.114L30.7478 349.63L65.954 346.861C65.031 333.411 63.0861 305.028 62.6905 299.095C62.4517 295.512 62.2853 292.65 62.191 290.945C62.1358 289.946 61.3626 289.14 60.3659 289.059C48.501 288.101 27.8092 287.001 18.5849 286.434C16.5097 286.307 15.5182 287.87 15.2218 289.007Z" fill="#E7E3E0"/>
<path d="M78.9113 390.076H0.191406C9.09152 368.518 1.27957 365.154 0.488421 357.737C-0.1445 351.803 5.30126 341.222 8.10325 336.673C17.2806 346.641 50.232 345.177 65.5606 343.199C66.4506 344.254 68.8043 346.939 71.0986 349.233C73.9666 352.101 74.3621 356.848 73.8677 359.815C73.3732 362.782 71.3953 371.385 75.5489 376.428C78.8717 380.463 79.175 387.208 78.9113 390.076Z" fill="#E7165A"/>
<path d="M27.8828 163.312C28.2789 156.548 29.3992 151.296 29.9099 149.516C27.8824 150.868 23.679 154.411 23.0857 157.774C22.4923 161.136 26.0365 162.867 27.8828 163.312Z" fill="#F17264"/>
<path d="M85.7384 204.565C75.1446 177.028 69.9589 134.981 68.6902 117.399C69.2557 116.097 71.9562 114.067 76.1368 113.067C83.5089 111.303 108.157 107.47 129.753 106.517C145.831 105.807 149.057 107.278 149.681 108.483C155.254 141.295 152.422 184.15 151.489 195.797C150.555 207.445 134.065 209.734 110.097 210.618C90.9224 211.325 85.8685 206.877 85.7384 204.565Z" fill="url(#paint3_linear_2055_1931)"/>
<defs>
<linearGradient id="paint0_linear_2055_1931" x1="159.02" y1="-9.31701" x2="135.26" y2="130.584" gradientUnits="userSpaceOnUse">
<stop stop-color="white"/>
<stop offset="1" stop-color="white" stop-opacity="0"/>
</linearGradient>
<linearGradient id="paint1_linear_2055_1931" x1="49.8697" y1="171.395" x2="73.9367" y2="163.064" gradientUnits="userSpaceOnUse">
<stop stop-color="#F17264"/>
<stop offset="1" stop-color="#F58F7B"/>
</linearGradient>
<linearGradient id="paint2_linear_2055_1931" x1="39.0439" y1="116.099" x2="39.0439" y2="296.324" gradientUnits="userSpaceOnUse">
<stop offset="0.578125" stop-color="#F58F7B"/>
<stop offset="1" stop-color="#F58F7B" stop-opacity="0.85"/>
</linearGradient>
<linearGradient id="paint3_linear_2055_1931" x1="156.852" y1="154.402" x2="70.8122" y2="160.005" gradientUnits="userSpaceOnUse">
<stop stop-color="#541642"/>
<stop offset="1" stop-color="#851464"/>
</linearGradient>
</defs>
</svg>
