<svg width="82" height="73" viewBox="0 0 82 73" fill="none" xmlns="http://www.w3.org/2000/svg">
<path d="M15.2852 70.882L63.248 44.6262C64.0729 43.9211 65.6587 41.9524 65.4033 39.7178C65.1479 37.4832 63.8338 36.9244 63.2086 36.9243" stroke="#4AC882" stroke-width="3"/>
<path d="M80.4069 53.1646L63.6491 44.7056M67.6386 70.8818L41.1426 56.8357" stroke="#4AC882" stroke-width="3"/>
<path d="M1 49.893L13.7283 43.2295" stroke="#4AC882" stroke-width="3"/>
<path d="M27.6957 40.1966C21.3098 39.757 17.2796 37.6022 14.7257 36.2056C11.3413 38.8875 12.293 42.1911 13.8891 43.907C17.7584 45.7026 23.3188 45.5705 25.6997 45.065C28.1258 43.5966 28.0413 41.2076 27.6957 40.1966Z" stroke="#4AC882" stroke-width="3"/>
<path d="M40.5029 18.2878L55.8267 13.101C57.2767 12.9814 60.0233 12.7664 61.1726 15.2564C62.3218 17.7463 60.6405 20.2164 59.4168 20.9214L50.3986 24.5926" stroke="#4AC882" stroke-width="3"/>
<path d="M55.1875 31.5366L61.4529 28.5838C62.1312 27.3334 63.0091 22.8369 59.1784 21.2417" stroke="#4AC882" stroke-width="3"/>
<path d="M58.7402 39.1592L63.3691 36.8838C64.4063 35.1947 65.4751 31.1702 61.4529 28.5845" stroke="#4AC882" stroke-width="3"/>
<path d="M44.3347 15.8937V12.1162C41.1028 13.0816 34.192 13.4009 32.4043 6.95481L48.2155 3.11394C49.69 2.75574 51.1998 3.55498 51.7326 4.97577L54.8693 13.3399" stroke="#4AC882" stroke-width="3"/>
<path d="M23.665 13.6996L27.5368 3.82868C28.0608 2.49298 29.4571 1.71523 30.8685 1.97294L43.2977 4.24232" stroke="#4AC882" stroke-width="3"/>
<path d="M31.805 25.3915L15.6038 19.4872C14.0075 14.3167 17.7586 12.2245 19.8337 11.8247L34.0394 17.571C36.5294 21.9764 33.5873 24.6203 31.805 25.3915Z" stroke="#4AC882" stroke-width="3"/>
<path d="M31.7254 25.311L15.6844 19.5649C11.6305 23.1077 13.2503 26.4153 14.567 27.6263C20.0258 30.2759 27.8549 32.295 31.0871 32.9734C34.439 30.4834 32.9093 26.8277 31.7254 25.311Z" stroke="#4AC882" stroke-width="3"/>
<path d="M31.0477 33.0142C24.6636 31.7379 17.454 28.9433 14.6473 27.7056C12.3856 29.4936 12.1711 32.1636 12.4334 33.8671C12.5292 34.4895 12.9237 35.0134 13.4449 35.367C19.3336 39.361 25.3948 40.2596 27.775 40.1959C32.6273 37.8975 31.9786 34.4504 31.0477 33.0142Z" stroke="#4AC882" stroke-width="3"/>
</svg>
