<svg width="48" height="31" viewBox="0 0 48 31" fill="none" xmlns="http://www.w3.org/2000/svg">
<g opacity="0.8">
<path d="M13.3306 24.9899C16.9372 21.3447 21.3672 21.0793 23.8499 21.0756C26.3326 21.0793 30.7626 21.3447 34.3691 24.9899C38.5217 29.1869 41.8963 30.2486 43.9848 28.9853C46.715 27.3339 46.2621 19.5958 45.0726 14.1655C43.8546 8.60552 41.0259 3.0853 37.4144 1.77941C34.6943 0.795834 32.4779 1.45249 29.9096 2.21337C28.1474 2.73543 26.2196 3.30656 23.8499 3.4306C21.4802 3.30656 19.5524 2.73543 17.7902 2.21337C15.2219 1.45249 13.0054 0.795834 10.2853 1.77941C6.67388 3.0853 3.84521 8.60552 2.62724 14.1655C1.43767 19.5958 0.984822 27.3339 3.71503 28.9853C5.80351 30.2486 9.17811 29.1869 13.3306 24.9899Z" stroke="white" stroke-width="2"/>
<path fill-rule="evenodd" clip-rule="evenodd" d="M11.3074 9.22622C11.3074 8.19413 12.1451 7.35745 13.1784 7.35745C14.2118 7.35745 15.0494 8.19413 15.0494 9.22622V11.095H16.9204C17.9538 11.095 18.7914 11.9317 18.7914 12.9638C18.7914 13.9959 17.9538 14.8326 16.9204 14.8326H15.0494V16.7013C15.0494 17.7334 14.2118 18.5701 13.1784 18.5701C12.1451 18.5701 11.3074 17.7334 11.3074 16.7013V14.8326H9.43643C8.40311 14.8326 7.56543 13.9959 7.56543 12.9638C7.56543 11.9317 8.40311 11.095 9.43643 11.095H11.3074V9.22622ZM36.0003 8.94374C36.0003 10.0358 35.1139 10.9212 34.0205 10.9212C32.9271 10.9212 32.0408 10.0358 32.0408 8.94374C32.0408 7.85163 32.9271 6.96631 34.0205 6.96631C35.1139 6.96631 36.0003 7.85163 36.0003 8.94374ZM34.0205 19.1785C35.1139 19.1785 36.0003 18.2932 36.0003 17.2011C36.0003 16.109 35.1139 15.2237 34.0205 15.2237C32.9271 15.2237 32.0408 16.109 32.0408 17.2011C32.0408 18.2932 32.9271 19.1785 34.0205 19.1785ZM31.9537 13.0724C31.9537 14.1645 31.0673 15.0499 29.9739 15.0499C28.8805 15.0499 27.9942 14.1645 27.9942 13.0724C27.9942 11.9803 28.8805 11.095 29.9739 11.095C31.0673 11.095 31.9537 11.9803 31.9537 13.0724ZM38.1541 15.0499C39.2475 15.0499 40.1339 14.1645 40.1339 13.0724C40.1339 11.9803 39.2475 11.095 38.1541 11.095C37.0607 11.095 36.1744 11.9803 36.1744 13.0724C36.1744 14.1645 37.0607 15.0499 38.1541 15.0499Z" fill="white"/>
</g>
</svg>
