<svg width="122" height="123" viewBox="0 0 122 123" fill="none" xmlns="http://www.w3.org/2000/svg">
<mask id="mask0_2302_348" style="mask-type:alpha" maskUnits="userSpaceOnUse" x="0" y="0" width="122" height="123">
<circle cx="61" cy="61.1113" r="61" fill="#EBEBEB"/>
</mask>
<g mask="url(#mask0_2302_348)">
<rect x="-9.85449" y="-17.4434" width="144.941" height="151.842" fill="#FF6062"/>
</g>
<path d="M35.0042 50.2499C33.807 49.3734 32.9659 48.1025 32.6305 46.667L29 31.1113L44.729 34.7018C46.1813 35.0327 47.4663 35.8654 48.3518 37.0486L59.1011 51.4074L55.4699 56.2974L42.5531 40.6844L37.2984 39.3168L38.6812 44.5151L54.6341 57.4232L51.1701 62.0866L35.0042 50.2499Z" fill="white"/>
<path d="M64.7355 72.0223L69.3828 75.4254L63.0211 80.6222C63.6399 81.9686 64.8058 83.2062 65.9403 84.1643C66.0946 84.2942 66.2482 84.4197 66.3994 84.539C66.5347 84.6463 66.6684 84.7476 66.799 84.8443L67.1543 85.1012C67.5859 85.4049 67.974 85.6497 68.2766 85.8205L73.8086 79.2546L84.0422 92.1113C84.2867 92.1113 84.5342 92.0841 84.7817 92.0343L84.9513 91.998L85.1301 91.9496L85.367 91.8771C85.7459 91.7487 86.1172 91.5794 86.4671 91.389C86.843 91.1835 87.1929 90.9553 87.5015 90.7317C87.9095 90.4355 88.2426 90.1453 88.4672 89.9232C89.2052 89.1948 90.6797 87.2969 90.6797 85.547L77.6812 75.4254L84.3188 69.9551C83.5807 68.6782 81.4966 65.8508 79.0641 64.7568L73.8086 71.0491L71.0941 67.4239L64.7355 72.0223Z" fill="white"/>
<path fill-rule="evenodd" clip-rule="evenodd" d="M78.2695 34.7003C76.8187 35.0327 75.5337 35.8654 74.6482 37.0486L49.1914 71.0491L43.9367 64.7568C42.4034 65.4458 41.0083 66.824 40.0014 68.0692C39.4108 68.799 38.954 69.4836 38.6812 69.9551L45.3195 75.4254L32.3195 85.547C32.3195 85.9807 32.4097 86.4249 32.5571 86.8571C32.6855 87.2319 32.8574 87.5976 33.0499 87.9436C33.2577 88.3154 33.4884 88.6629 33.7153 88.9682C34.0148 89.3701 34.3074 89.7011 34.532 89.9232C35.2693 90.6516 37.1876 92.1113 38.9578 92.1113L49.1914 79.2546L54.7234 85.8205C56.0146 85.0906 58.8727 83.0294 59.9789 80.6222L53.6172 75.4254L87.9951 50.2499C88.3633 49.9809 88.6979 49.6741 88.9944 49.3371C89.6621 48.577 90.1373 47.6613 90.3695 46.667L94 31.1113L78.2695 34.7003ZM84.3188 44.5151L63.0211 61.7481L80.4469 40.6844L85.7016 39.3168L84.3188 44.5151Z" fill="white"/>
</svg>
