<svg width="122" height="123" viewBox="0 0 122 123" fill="none" xmlns="http://www.w3.org/2000/svg">
<mask id="mask0_2302_349" style="mask-type:alpha" maskUnits="userSpaceOnUse" x="0" y="0" width="122" height="123">
<circle cx="61" cy="61.1113" r="61" fill="#EBEBEB"/>
</mask>
<g mask="url(#mask0_2302_349)">
<rect x="-9.85449" y="-17.4434" width="144.941" height="151.842" fill="#5AB880"/>
</g>
<path fill-rule="evenodd" clip-rule="evenodd" d="M41.5057 23.1113C39.0173 23.1113 37 25.1428 37 27.6486V94.574C37 97.0799 39.0173 99.1113 41.5057 99.1113H70.2299C78.9395 99.1113 86 92.0013 86 83.2307V27.6486C86 25.1428 83.9827 23.1113 81.4943 23.1113H41.5057ZM46.5747 31.6188C45.0194 31.6188 43.7586 32.8884 43.7586 34.4546V53.171C43.7586 54.7372 45.0194 56.0069 46.5747 56.0069H76.4253C77.9806 56.0069 79.2414 54.7372 79.2414 53.171V34.4546C79.2414 32.8884 77.9806 31.6188 76.4253 31.6188H46.5747ZM48.8276 70.186C48.8276 69.5595 49.3319 69.0516 49.954 69.0516H54.4598C55.0819 69.0516 55.5862 69.5595 55.5862 70.186V74.1561H59.5287C60.1509 74.1561 60.6552 74.664 60.6552 75.2904V79.8277C60.6552 80.4542 60.1509 80.9621 59.5287 80.9621H55.5862V84.9322C55.5862 85.5587 55.0819 86.0666 54.4598 86.0666H49.954C49.3319 86.0666 48.8276 85.5587 48.8276 84.9322V80.9621H44.8851C44.2629 80.9621 43.7586 80.4542 43.7586 79.8277V75.2904C43.7586 74.664 44.2629 74.1561 44.8851 74.1561H48.8276V70.186ZM79.2414 72.7382C79.2414 74.7742 77.6023 76.4248 75.5805 76.4248C73.5586 76.4248 71.9195 74.7742 71.9195 72.7382C71.9195 70.7022 73.5586 69.0516 75.5805 69.0516C77.6023 69.0516 79.2414 70.7022 79.2414 72.7382ZM69.3851 86.6337C71.4069 86.6337 73.046 84.9832 73.046 82.9472C73.046 80.9111 71.4069 79.2606 69.3851 79.2606C67.3632 79.2606 65.7241 80.9111 65.7241 82.9472C65.7241 84.9832 67.3632 86.6337 69.3851 86.6337Z" fill="white"/>
</svg>
