<svg width="123" height="123" viewBox="0 0 123 123" fill="none" xmlns="http://www.w3.org/2000/svg">
<mask id="mask0_2302_347" style="mask-type:alpha" maskUnits="userSpaceOnUse" x="0" y="0" width="123" height="123">
<circle cx="61.3389" cy="61.1113" r="61" fill="#EBEBEB"/>
</mask>
<g mask="url(#mask0_2302_347)">
<rect x="-9.51562" y="-17.4434" width="144.941" height="151.842" fill="#39AEBE"/>
</g>
<path d="M44.9263 71.2008C43.4178 71.2008 42.195 69.8875 42.195 68.2674V63.9334H38.1595C36.6511 63.9334 35.4282 62.6201 35.4282 61C35.4282 59.3799 36.6511 58.0666 38.1595 58.0666H42.195V53.7326C42.195 52.1125 43.4178 50.7992 44.9263 50.7992C46.4347 50.7992 47.6576 52.1125 47.6576 53.7326V58.0666H51.693C53.2015 58.0666 54.4244 59.3799 54.4244 61C54.4244 62.6201 53.2015 63.9334 51.693 63.9334H47.6576V68.2674C47.6576 69.8875 46.4347 71.2008 44.9263 71.2008Z" fill="white"/>
<path d="M69.8366 67.1311C69.8366 65.2045 68.3824 63.6427 66.5885 63.6427C64.7947 63.6427 63.3405 65.2045 63.3405 67.1311C63.3405 69.0577 64.7947 70.6195 66.5885 70.6195C68.3824 70.6195 69.8366 69.0577 69.8366 67.1311Z" fill="white"/>
<path d="M81.3031 67.1311C81.3031 65.2045 79.8489 63.6427 78.0551 63.6427C76.2613 63.6427 74.8071 65.2045 74.8071 67.1311C74.8071 69.0577 76.2613 70.6195 78.0551 70.6195C79.8489 70.6195 81.3031 69.0577 81.3031 67.1311Z" fill="white"/>
<path d="M62.7499 51.3806C64.5438 51.3806 65.998 52.9423 65.998 54.8689C65.998 56.7955 64.5438 58.3573 62.7499 58.3573C60.9561 58.3573 59.5019 56.7955 59.5019 54.8689C59.5019 52.9423 60.9561 51.3806 62.7499 51.3806Z" fill="white"/>
<path d="M77.4645 54.8689C77.4645 52.9423 76.0104 51.3806 74.2165 51.3806C72.4227 51.3806 70.9685 52.9423 70.9685 54.8689C70.9685 56.7955 72.4227 58.3573 74.2165 58.3573C76.0104 58.3573 77.4645 56.7955 77.4645 54.8689Z" fill="white"/>
<path fill-rule="evenodd" clip-rule="evenodd" d="M20 79.2347C20 82.9711 22.8203 86 26.2992 86H95.7008C99.1797 86 102 82.9711 102 79.2347V42.7653C102 39.0289 99.1797 36 95.7008 36H26.2992C22.8203 36 20 39.0289 20 42.7653V79.2347ZM30.7284 82.4059H87.5314V39.5941H30.7284V82.4059ZM94.7657 57.1416C96.7498 57.1416 98.3582 58.8691 98.3582 61C98.3582 63.1309 96.7498 64.8584 94.7657 64.8584C92.7816 64.8584 91.1732 63.1309 91.1732 61C91.1732 58.8691 92.7816 57.1416 94.7657 57.1416ZM25.9055 71.9937C25.2535 71.9937 24.7244 71.4255 24.7244 70.7252V55.0803C24.7244 54.38 25.2535 53.8118 25.9055 53.8118C26.5576 53.8118 27.0866 54.38 27.0866 55.0803V70.7252C27.0866 71.4255 26.5576 71.9937 25.9055 71.9937ZM25.9055 52.5433C25.2535 52.5433 24.7244 51.9752 24.7244 51.2748C24.7244 50.5745 25.2535 50.0063 25.9055 50.0063C26.5576 50.0063 27.0866 50.5745 27.0866 51.2748C27.0866 51.9752 26.5576 52.5433 25.9055 52.5433Z" fill="white"/>
</svg>
