<svg width="122" height="123" viewBox="0 0 122 123" fill="none" xmlns="http://www.w3.org/2000/svg">
<circle cx="61" cy="61.1113" r="61" fill="#646A6B"/>
<path d="M33.3153 66.4232C33.3153 66.6665 33.3762 66.9098 33.437 67.1531C33.5588 67.0923 33.6197 67.0315 33.6805 66.849C34.2893 65.5716 34.9589 64.355 35.7503 63.1993C37.0896 61.1311 38.6115 59.1846 40.316 57.4205C41.1074 56.5081 42.0205 55.7173 42.9945 55.0482C43.725 54.4399 44.6381 54.0141 45.5513 53.8316C46.7079 53.6491 47.7428 54.1966 47.9254 55.4132C47.9863 55.5957 47.9863 55.839 47.9863 56.0215V73.5402C47.9863 74.4526 47.1949 75.2434 46.2209 75.1826C45.673 75.2434 45.0643 75.1826 44.5164 75.0001C44.4555 74.9392 44.2729 74.9392 44.212 75.0001C44.2424 75.0609 44.2729 75.1065 44.3033 75.1521C44.3338 75.1978 44.3642 75.2434 44.3946 75.3042C44.7599 75.7908 45.186 76.2775 45.6121 76.7033C47.3775 78.4673 49.4473 79.8664 51.7606 80.8396C54.2565 81.9346 56.8741 82.7253 59.5526 83.212C60.2831 83.3336 61.0745 83.4553 61.805 83.5161L67.223 77.7982L72.3365 82.0562C72.4256 82.0562 72.4821 82.0236 72.5538 81.9823C72.58 81.9672 72.6083 81.9509 72.6409 81.9346C73.3105 81.5696 73.9801 81.1438 74.5889 80.6572C77.2065 78.7106 79.5807 76.3991 81.5287 73.7835C83.1115 71.7153 84.5116 69.5255 85.6683 67.1531C85.79 67.0315 85.79 66.9098 85.79 66.7882C85.6682 66.849 85.6074 66.9098 85.5465 66.9707C85.2421 67.2444 84.9377 67.5333 84.6334 67.8223C84.329 68.1112 84.0246 68.4001 83.7202 68.6739C82.5636 69.7688 81.2852 70.6204 79.8851 71.3503C79.0937 71.7761 78.1806 71.9586 77.3283 71.8978C76.7804 71.8978 76.2934 71.7153 75.9282 71.3503C75.7455 71.2287 75.6847 71.107 75.6847 70.9245C75.6847 70.7116 75.6694 70.5139 75.6542 70.3162C75.639 70.1186 75.6238 69.9209 75.6238 69.708L75.6181 69.5366C75.5592 67.7725 75.502 66.0619 75.502 64.2942C75.4412 62.226 75.3803 54.9265 75.4412 53.4058C75.4412 52.3109 75.4412 51.1552 75.502 50.0602C75.502 49.5736 75.6238 49.0261 75.9282 48.6003C76.1412 48.2962 76.3391 47.9921 76.5369 47.6879C76.7348 47.3838 76.9326 47.0796 77.1457 46.7755C78.6676 44.5856 80.3112 42.5175 82.0157 40.5101C82.1375 40.4493 82.1983 40.3276 82.1375 40.206C76.6587 41.3009 71.606 44.0382 67.71 48.0529C67.0403 47.6271 66.3098 47.3838 65.5184 47.2621C64.7271 47.0796 63.9357 47.0796 63.1443 47.1404C63.2052 47.2621 63.266 47.3229 63.3878 47.3838C64.9706 48.6003 65.9446 50.1819 65.9446 52.1892V70.4987C65.9446 70.6812 65.8837 70.8637 65.7011 70.9854C65.3358 71.2287 65.0314 71.472 64.7271 71.7153C63.6922 72.5061 62.5355 73.0535 61.318 73.4185C59.7353 73.8443 58.0308 73.1144 57.3002 71.6545C57.2394 71.472 57.1785 71.2895 57.1785 71.107V48.7828C57.1785 48.6612 57.1785 48.4787 57.1176 48.357C56.935 48.4179 56.8132 48.4787 56.6915 48.5395L56.6306 48.6003C55.9001 48.9653 55.0479 48.6003 54.6826 47.8704C54.5608 47.6271 54.4391 47.3838 54.3782 47.0796C53.8912 45.0723 54.3173 42.9433 55.5349 41.3009C56.448 40.0843 57.5437 39.0502 58.7613 38.2594C58.883 38.1986 58.9439 38.1378 59.0048 38.0161H58.9439C58.8726 38.0161 58.8221 38.037 58.7804 38.0543C58.7508 38.0665 58.7256 38.0769 58.7004 38.0769C56.2654 38.7461 53.8912 39.7193 51.6997 40.9359C48.8994 42.5783 46.2818 44.5856 43.9076 46.8971C42.2031 48.5395 40.4986 50.3035 38.9767 52.1284C37.2113 54.1358 35.8112 56.4473 34.7763 58.8804C33.7414 61.2527 33.2544 63.8076 33.3153 66.4232Z" fill="white"/>
<path fill-rule="evenodd" clip-rule="evenodd" d="M24.0007 60.0358C24.1224 39.7186 40.9849 23.0512 61.6217 23.112C82.3803 23.1728 98.9993 40.631 98.9993 60.3399C99.1211 80.7788 82.4412 98.1761 61.3782 98.1153C40.6806 98.0545 23.8789 81.3871 24.0007 60.0358ZM61.2565 92.9448C79.2148 93.1273 93.8858 78.5889 94.0684 60.6441C94.0684 43.0642 79.6409 27.9175 61.5 27.8567C43.8461 27.9175 29.0533 42.5776 29.1142 60.2791C28.9925 78.0414 43.6635 92.8231 61.2565 92.9448Z" fill="white"/>
</svg>
