<svg width="122" height="123" viewBox="0 0 122 123" fill="none" xmlns="http://www.w3.org/2000/svg">
<mask id="mask0_2302_345" style="mask-type:alpha" maskUnits="userSpaceOnUse" x="0" y="0" width="122" height="123">
<circle cx="61" cy="61.1113" r="61" fill="#EBEBEB"/>
</mask>
<g mask="url(#mask0_2302_345)">
<rect x="-9.85449" y="-17.4434" width="144.941" height="151.842" fill="#5C90DE"/>
</g>
<path fill-rule="evenodd" clip-rule="evenodd" d="M60.5 69.5003C56.1863 69.5067 48.4894 69.9678 42.223 76.3013C35.008 83.5936 29.1447 85.4381 25.516 83.2433C20.7723 80.374 21.5591 66.9292 23.626 57.4941C25.7422 47.8337 30.657 38.2424 36.9318 35.9735C41.6579 34.2645 45.509 35.4055 49.9714 36.7275C53.0331 37.6345 56.3827 38.6269 60.5 38.8424C64.6173 38.6269 67.9669 37.6345 71.0286 36.7275C75.4909 35.4055 79.3421 34.2645 84.0682 35.9735C90.343 38.2424 95.2578 47.8337 97.374 57.4941C99.4409 66.9292 100.228 80.374 95.484 83.2433C91.8553 85.4381 85.992 83.5936 78.777 76.3013C72.5106 69.9678 64.8137 69.5067 60.5 69.5003ZM38.2926 47.5317C38.2926 45.7384 39.748 44.2847 41.5434 44.2847C43.3388 44.2847 44.7942 45.7384 44.7942 47.5317V50.7787H48.0451C49.8405 50.7787 51.2959 52.2324 51.2959 54.0256C51.2959 55.8189 49.8405 57.2726 48.0451 57.2726H44.7942V60.5196C44.7942 62.3128 43.3388 63.7665 41.5434 63.7665C39.748 63.7665 38.2926 62.3128 38.2926 60.5196V57.2726H35.0417C33.2463 57.2726 31.7909 55.8189 31.7909 54.0256C31.7909 52.2324 33.2463 50.7787 35.0417 50.7787H38.2926V47.5317ZM81.196 47.0409C81.196 48.9384 79.6559 50.4766 77.7562 50.4766C75.8564 50.4766 74.3163 48.9384 74.3163 47.0409C74.3163 45.1434 75.8564 43.6051 77.7562 43.6051C79.6559 43.6051 81.196 45.1434 81.196 47.0409ZM77.7562 64.8237C79.6559 64.8237 81.196 63.2854 81.196 61.3879C81.196 59.4904 79.6559 57.9522 77.7562 57.9522C75.8564 57.9522 74.3163 59.4904 74.3163 61.3879C74.3163 63.2854 75.8564 64.8237 77.7562 64.8237ZM74.1651 54.2144C74.1651 56.1119 72.6251 57.6501 70.7253 57.6501C68.8255 57.6501 67.2855 56.1119 67.2855 54.2144C67.2855 52.3169 68.8255 50.7787 70.7253 50.7787C72.6251 50.7787 74.1651 52.3169 74.1651 54.2144ZM84.9383 57.6501C86.838 57.6501 88.3781 56.1119 88.3781 54.2144C88.3781 52.3169 86.838 50.7787 84.9383 50.7787C83.0385 50.7787 81.4984 52.3169 81.4984 54.2144C81.4984 56.1119 83.0385 57.6501 84.9383 57.6501Z" fill="white"/>
</svg>
