<svg width="122" height="123" viewBox="0 0 122 123" fill="none" xmlns="http://www.w3.org/2000/svg">
<mask id="mask0_2302_346" style="mask-type:alpha" maskUnits="userSpaceOnUse" x="0" y="0" width="122" height="123">
<circle cx="61" cy="61.1113" r="61" fill="#B289E6"/>
</mask>
<g mask="url(#mask0_2302_346)">
<rect x="-9.85449" y="-17.4434" width="144.941" height="151.842" fill="#B289E6"/>
</g>
<g style="mix-blend-mode:screen">
<path d="M61 25.1113C61 24.559 60.5513 24.109 59.9996 24.1338C48.3827 24.6567 39.125 34.2404 39.125 45.9863V53.4238H61L61 25.1113Z" stroke="white" stroke-width="5"/>
<path d="M61 25.1113C61 24.559 61.4487 24.109 62.0004 24.1338C73.6173 24.6567 82.875 34.2404 82.875 45.9863V53.4238H61L61 25.1113Z" stroke="white" stroke-width="5"/>
<path d="M39.125 53.4248V72.2373C39.125 84.3185 48.9188 94.1123 61 94.1123C73.0812 94.1123 82.875 84.3185 82.875 72.2373V53.4248H39.125Z" stroke="white" stroke-width="5"/>
<ellipse cx="61" cy="38.6113" rx="5" ry="6.5" fill="black" stroke="white" stroke-width="4"/>
</g>
</svg>
