<svg width="25" height="23" viewBox="0 0 25 23" fill="none" xmlns="http://www.w3.org/2000/svg">
<path d="M5.40696 0.0597496V3.89975H0.862958V0.0597496H5.40696ZM5.40696 6.33175V22.8438H0.862958V6.33175H5.40696ZM24.537 22.8438H19.929V13.2117C19.929 12.0384 19.737 11.1531 19.353 10.5557C18.969 9.93708 18.2223 9.62775 17.113 9.62775C14.7236 9.62775 13.529 11.0784 13.529 13.9797V22.8438H9.01696V6.33175H13.337V8.63575C14.7023 6.80108 16.5263 5.88375 18.809 5.88375C20.5796 5.88375 21.977 6.39575 23.001 7.41975C24.025 8.44375 24.537 9.90508 24.537 11.8037V22.8438Z"/>
</svg>
