<svg width="148" height="29" viewBox="0 0 148 29" fill="none" xmlns="http://www.w3.org/2000/svg">
<path d="M5.57259 0.314458H11.0076L16.5802 28.6157H11.8675L10.7668 22.0819H5.91657L4.78142 28.6157H0L5.57259 0.314458ZM10.2164 18.7976L8.32448 6.91807L6.43255 18.7976H10.2164Z" fill="white"/>
<path d="M19.3823 0.314458H26.09C29.0254 0.314458 31.2155 0.885141 32.6602 2.02651C34.1049 3.14458 34.8273 5.07791 34.8273 7.82651C34.8273 9.62008 34.5636 11.0876 34.0361 12.2289C33.5316 13.347 32.6487 14.1622 31.3874 14.6747L35.2745 28.6157H30.1835L26.8468 15.653H24.4389V28.6157H19.3823V0.314458ZM26.0556 12.4386C27.5004 12.4386 28.5209 12.1008 29.1171 11.4253C29.7363 10.7498 30.0459 9.64337 30.0459 8.10603C30.0459 6.61526 29.7707 5.53213 29.2203 4.85663C28.6929 4.18113 27.7297 3.84337 26.3308 3.84337H24.4389V12.4386H26.0556Z" fill="white"/>
<path d="M45.5129 29C42.8757 29 40.9723 28.1731 39.8028 26.5193C38.6561 24.8422 38.0828 22.4313 38.0828 19.2867V9.78313C38.0828 6.54538 38.6791 4.11125 39.8716 2.48072C41.064 0.826908 43.1165 0 46.0289 0C48.7808 0 50.753 0.698795 51.9455 2.09639C53.138 3.47068 53.7342 5.52048 53.7342 8.24578V9.71325H48.884V8.10603C48.884 7.08113 48.8152 6.26586 48.6776 5.66024C48.563 5.05462 48.2992 4.58876 47.8864 4.26265C47.4966 3.93655 46.9003 3.7735 46.0977 3.7735C45.2492 3.7735 44.6186 3.98313 44.2058 4.40241C43.793 4.82169 43.5178 5.35743 43.3802 6.00964C43.2656 6.66185 43.2082 7.51205 43.2082 8.56024V20.4048C43.2082 22.012 43.4146 23.2116 43.8274 24.0036C44.2631 24.7956 45.0658 25.1916 46.2353 25.1916C47.3819 25.1916 48.1731 24.7723 48.6088 23.9337C49.0675 23.0952 49.2968 21.8374 49.2968 20.1602V17.5048H46.3041V14.2554H53.8718V28.6157H50.5695L50.2256 25.8554C49.3541 27.9518 47.7832 29 45.5129 29Z" fill="white"/>
<path d="M57.7449 0.314458H69.4404V3.94819H62.8015V12.0892H68.0301V15.688H62.8015V25.0867H69.5092V28.6157H57.7449V0.314458Z" fill="white"/>
<path d="M72.4584 0.314458H76.0014L82.778 16.4566V0.314458H86.9746V28.6157H83.6035L76.7926 11.7048V28.6157H72.4584V0.314458Z" fill="white"/>
<path d="M93.9893 4.12289H89.5518V0.314458H103.414V4.12289H99.0803V28.6157H93.9893V4.12289Z" fill="white"/>
<path d="M106.088 0.314458H111.11V28.6157H106.088V0.314458Z" fill="white"/>
<path d="M122.922 29C120.033 29 117.98 28.1847 116.765 26.5542C115.572 24.9004 114.976 22.5711 114.976 19.5663V9.46868C114.976 6.37068 115.572 4.01807 116.765 2.41084C117.957 0.803614 120.01 0 122.922 0C125.651 0 127.589 0.698795 128.735 2.09639C129.882 3.49398 130.455 5.50884 130.455 8.14097V10.5169H125.571V8.07109C125.571 7.06948 125.525 6.28916 125.433 5.73012C125.341 5.14779 125.101 4.68193 124.711 4.33253C124.344 3.95984 123.759 3.7735 122.956 3.7735C122.131 3.7735 121.512 3.97149 121.099 4.36747C120.686 4.74016 120.411 5.25261 120.273 5.90482C120.159 6.53374 120.101 7.36064 120.101 8.38554V20.6494C120.101 22.2566 120.308 23.4213 120.721 24.1434C121.133 24.8422 121.879 25.1916 122.956 25.1916C123.736 25.1916 124.309 25.0052 124.676 24.6325C125.066 24.2598 125.307 23.7707 125.399 23.1651C125.513 22.5361 125.571 21.7092 125.571 20.6843V18.1337H130.455V20.4048C130.455 23.1301 129.894 25.2498 128.77 26.7639C127.646 28.2546 125.697 29 122.922 29Z" fill="white"/>
<path d="M141.017 29C138.495 29 136.603 28.2779 135.341 26.8337C134.103 25.3896 133.426 23.2349 133.312 20.3699L137.68 19.4964C137.749 21.29 138.024 22.6643 138.506 23.6193C139.01 24.551 139.79 25.0169 140.845 25.0169C141.625 25.0169 142.198 24.7839 142.565 24.3181C142.955 23.8289 143.15 23.1767 143.15 22.3614C143.15 21.2434 142.898 20.3 142.393 19.5313C141.911 18.7394 141.143 17.8775 140.088 16.9458L136.58 13.8361C135.502 12.9044 134.688 11.9028 134.137 10.8313C133.61 9.75984 133.346 8.47872 133.346 6.98795C133.346 4.7751 133.977 3.06305 135.238 1.85181C136.522 0.61727 138.288 0 140.535 0C142.943 0 144.663 0.698795 145.695 2.09639C146.75 3.47068 147.358 5.33414 147.518 7.68675L143.15 8.45542C143.081 6.91807 142.863 5.76506 142.496 4.99639C142.152 4.20442 141.464 3.80843 140.432 3.80843C139.698 3.80843 139.125 4.06466 138.712 4.57711C138.3 5.06627 138.093 5.69518 138.093 6.46386C138.093 7.37229 138.265 8.14097 138.609 8.76988C138.976 9.3755 139.561 10.0277 140.363 10.7265L143.838 13.8361C145.145 14.9775 146.165 16.2004 146.899 17.5048C147.633 18.8092 148 20.3233 148 22.047C148 23.398 147.702 24.5976 147.106 25.6458C146.532 26.694 145.718 27.5209 144.663 28.1265C143.608 28.7088 142.393 29 141.017 29Z" fill="white"/>
</svg>
