<svg width="56" height="29" viewBox="0 0 56 29" fill="none" xmlns="http://www.w3.org/2000/svg">
<path fill-rule="evenodd" clip-rule="evenodd" d="M14.7469 0.445312C7.05356 0.445312 0.816895 6.68198 0.816895 14.3753C0.816895 22.0685 7.05356 28.3052 14.7469 28.3052H41.7614C49.4547 28.3052 55.6914 22.0685 55.6914 14.3753C55.6914 6.68198 49.4547 0.445312 41.7614 0.445312H14.7469ZM41.5502 11.8061C42.9489 11.8061 44.0828 10.6723 44.0828 9.27359C44.0828 7.87489 42.9489 6.74101 41.5502 6.74101C40.1515 6.74101 39.0176 7.87489 39.0176 9.27359C39.0176 10.6723 40.1515 11.8061 41.5502 11.8061ZM12.7417 8.9576C12.7417 7.75317 13.7182 6.77676 14.9226 6.77676C16.127 6.77676 17.1034 7.75317 17.1034 8.9576V12.1954H20.3403C21.5447 12.1954 22.5212 13.1718 22.5212 14.3763C22.5212 15.5807 21.5447 16.5571 20.3403 16.5571H17.1034V19.7928C17.1034 20.9972 16.127 21.9736 14.9226 21.9736C13.7182 21.9736 12.7417 20.9972 12.7417 19.7928V16.5571H9.50511C8.30068 16.5571 7.32427 15.5807 7.32427 14.3763C7.32427 13.1718 8.30068 12.1954 9.50511 12.1954H12.7417V8.9576ZM44.0828 19.4754C44.0828 20.8741 42.9489 22.0079 41.5502 22.0079C40.1515 22.0079 39.0176 20.8741 39.0176 19.4754C39.0176 18.0767 40.1515 16.9428 41.5502 16.9428C42.9489 16.9428 44.0828 18.0767 44.0828 19.4754ZM44.1186 14.3745C44.1186 15.7732 45.2525 16.907 46.6512 16.907C48.0499 16.907 49.1837 15.7732 49.1837 14.3745C49.1837 12.9758 48.0499 11.8419 46.6512 11.8419C45.2525 11.8419 44.1186 12.9758 44.1186 14.3745ZM36.4494 16.907C35.0507 16.907 33.9168 15.7732 33.9168 14.3745C33.9168 12.9758 35.0507 11.8419 36.4494 11.8419C37.8481 11.8419 38.9819 12.9758 38.9819 14.3745C38.9819 15.7732 37.8481 16.907 36.4494 16.907Z" fill="#FF6062"/>
</svg>
