<svg width="49" height="26" viewBox="0 0 49 26" fill="none" xmlns="http://www.w3.org/2000/svg">
<path d="M45.3794 2.77691C47.5278 3.2696 48.8632 5.36499 48.542 7.5455L48.2355 9.62625C41.414 7.93358 33.3821 6.95735 24.7846 6.95735C16.1871 6.95735 8.15514 7.93369 1.33357 9.62636L1.02701 7.54561C0.705758 5.36509 2.04134 3.26971 4.18962 2.77702C10.2658 1.38375 17.2948 0.587891 24.7847 0.587891C32.2745 0.587891 39.3033 1.38364 45.3794 2.77691Z" fill="#5C90DE"/>
<path d="M47.7189 13.1323L46.5705 20.9271C46.1527 23.7631 43.9086 25.8487 41.2747 25.8487H32.1977C30.896 25.8487 29.6387 25.3324 28.6602 24.396L26.0101 21.834C25.3266 21.1733 24.2424 21.1733 23.559 21.834L20.9088 24.396C19.9304 25.3324 18.673 25.8487 17.3712 25.8487H8.29424C5.66048 25.8487 3.41642 23.7631 2.99858 20.9271L1.85015 13.1324C8.4101 11.4711 16.2716 10.4839 24.7846 10.4839C33.2976 10.4839 41.159 11.4711 47.7189 13.1323Z" fill="#5C90DE"/>
</svg>
