<svg width="45" height="45" viewBox="0 0 45 45" fill="none" xmlns="http://www.w3.org/2000/svg">
<path fill-rule="evenodd" clip-rule="evenodd" d="M23.4125 0.0529663L22.2225 0.0371094L21.0724 0.0529663C20.2885 0.0635376 19.5993 0.572858 19.3457 1.31461C19.0071 2.30479 18.5917 3.46967 18.3266 4.09324C18.1929 4.4074 17.9619 4.8129 17.6951 5.22586C16.1891 5.62798 14.7626 6.22485 13.4444 6.98802C12.9628 6.88461 12.5118 6.761 12.1947 6.6332C11.5662 6.37976 10.4489 5.84984 9.50935 5.38904C8.80547 5.04384 7.95794 5.17111 7.39624 5.71797L6.57208 6.5203L6.55778 6.53426L6.54348 6.54809L5.74149 7.37265C5.19463 7.93442 5.06736 8.78188 5.41262 9.48569C5.87343 10.4253 6.40335 11.5426 6.65679 12.1711C6.78473 12.4885 6.90833 12.9399 7.01181 13.422C6.24932 14.7396 5.65292 16.1653 5.25114 17.6705C4.83771 17.9377 4.43166 18.1691 4.11717 18.3028C3.49359 18.5681 2.32878 18.9833 1.33854 19.3219C0.596784 19.5755 0.0874634 20.2648 0.0769599 21.0487L0.0610352 22.2386L0.0769599 23.3887C0.0874634 24.1726 0.596784 24.8619 1.33854 25.1155C2.32878 25.4541 3.49359 25.8695 4.11717 26.1346C4.43193 26.2685 4.83832 26.5001 5.25209 26.7676C5.65393 28.2719 6.25027 29.6968 7.01242 31.0136C6.90887 31.4962 6.78513 31.9482 6.65706 32.266C6.40362 32.8944 5.8737 34.0118 5.41283 34.9514C5.06763 35.6552 5.1949 36.5027 5.74176 37.0645L6.54416 37.8886L6.55805 37.9029L6.57194 37.9172L7.39651 38.7192C7.95821 39.266 8.80574 39.3933 9.50955 39.0481C10.4491 38.5873 11.5665 38.0574 12.1949 37.8039C12.5127 37.6757 12.965 37.552 13.4478 37.4484C14.7645 38.2104 16.1891 38.8064 17.6932 39.2081C17.9608 39.6222 18.1927 40.0286 18.3266 40.3436C18.5917 40.9672 19.0071 42.1321 19.3457 43.1222C19.5993 43.864 20.2885 44.3733 21.0724 44.3839L22.2624 44.3997L23.4125 44.3839C24.1964 44.3733 24.8857 43.864 25.1393 43.1222C25.4778 42.1321 25.8932 40.9672 26.1583 40.3436C26.2922 40.0288 26.524 39.6222 26.7916 39.2083C28.2957 38.8066 29.7205 38.2106 31.0373 37.4487C31.5199 37.5522 31.972 37.676 32.2897 37.8041C32.9182 38.0574 34.0355 38.5874 34.975 39.0482C35.6789 39.3934 36.5264 39.2661 37.0881 38.7193L37.9123 37.917L37.9409 37.889L38.7429 37.0646C39.2897 36.5028 39.417 35.6554 39.0717 34.9514C38.6109 34.0119 38.081 32.8945 37.8276 32.266C37.6996 31.9486 37.5759 31.497 37.4724 31.0148C38.235 29.6975 38.8317 28.272 39.2337 26.7669C39.6471 26.4997 40.0531 26.2683 40.3675 26.1346C40.9911 25.8695 42.156 25.4541 43.1462 25.1155C43.888 24.8619 44.3973 24.1726 44.4078 23.3887L44.4237 22.1988L44.4078 21.0487C44.3973 20.2648 43.888 19.5755 43.1462 19.3219C42.156 18.9833 40.9911 18.5681 40.3675 18.3028C40.0533 18.1692 39.6477 17.9381 39.2346 17.6711C38.8327 16.1653 38.236 14.7388 37.473 13.4207C37.5764 12.9391 37.7 12.4881 37.8278 12.1709C38.0812 11.5425 38.6112 10.4252 39.072 9.48555C39.4172 8.78175 39.29 7.93428 38.7431 7.37251L37.9407 6.54836L37.9268 6.53413L37.9129 6.51976L37.0884 5.71783C36.5267 5.17097 35.6792 5.04371 34.9753 5.3889C34.0357 5.8497 32.9184 6.37962 32.2899 6.63306C31.9729 6.76087 31.5221 6.88434 31.0407 6.98774C29.7224 6.22458 28.2958 5.62757 26.7897 5.22559C26.5229 4.81263 26.2919 4.4074 26.1583 4.09324C25.8932 3.46967 25.4778 2.30479 25.1393 1.31461C24.8857 0.572858 24.1964 0.0635376 23.4125 0.0529663ZM22.2423 34.777C29.1786 34.777 34.8015 29.154 34.8015 22.2179C34.8015 15.2816 29.1786 9.65863 22.2423 9.65863C15.306 9.65863 9.68309 15.2816 9.68309 22.2179C9.68309 29.154 15.306 34.777 22.2423 34.777Z" fill="#39AEBE"/>
<path d="M29.2535 23.1801C29.9937 22.7528 29.9937 21.6844 29.2535 21.2571L19.5702 15.6665C18.83 15.2392 17.9048 15.7733 17.9048 16.628V27.8093C17.9048 28.6639 18.83 29.1982 19.5702 28.7709L29.2535 23.1801Z" fill="#39AEBE"/>
</svg>
