<svg width="43" height="34" viewBox="0 0 43 34" fill="none" xmlns="http://www.w3.org/2000/svg">
<path fill-rule="evenodd" clip-rule="evenodd" d="M0.816895 31.2391V9.91504H42.5888V31.2391C42.5888 32.7153 41.3921 33.912 39.9159 33.912H3.4898C2.01359 33.912 0.816895 32.7153 0.816895 31.2391ZM4.48082 13.8217H18.5909V30.0055H4.48082V13.8217ZM21.6178 13.8217H38.9249V20.88H21.6178V13.8217ZM38.9249 23.3322H31.8056V30.0055H38.9249V23.3322ZM28.7366 30.0055V23.3322H21.6178V30.0055H28.7366Z" fill="#B289E5"/>
<path fill-rule="evenodd" clip-rule="evenodd" d="M0.816895 3.19634C0.816895 1.72013 2.01359 0.523438 3.4898 0.523438H39.9159C41.3921 0.523438 42.5888 1.72013 42.5888 3.19634V6.35072H0.816895V3.19634ZM4.38859 5.21901C5.37277 5.21901 6.17053 4.42125 6.17053 3.43708C6.17053 2.4529 5.37277 1.65515 4.38859 1.65515C3.40442 1.65515 2.60666 2.4529 2.60666 3.43708C2.60666 4.42125 3.40442 5.21901 4.38859 5.21901ZM10.8551 3.43708C10.8551 4.42125 10.0573 5.21901 9.07313 5.21901C8.08896 5.21901 7.2912 4.42125 7.2912 3.43708C7.2912 2.4529 8.08896 1.65515 9.07313 1.65515C10.0573 1.65515 10.8551 2.4529 10.8551 3.43708ZM13.7577 5.21901C14.7418 5.21901 15.5396 4.42125 15.5396 3.43708C15.5396 2.4529 14.7418 1.65515 13.7577 1.65515C12.7735 1.65515 11.9757 2.4529 11.9757 3.43708C11.9757 4.42125 12.7735 5.21901 13.7577 5.21901Z" fill="#B289E5"/>
</svg>
