<svg width="48" height="47" viewBox="0 0 48 47" fill="none" xmlns="http://www.w3.org/2000/svg">
<path fill-rule="evenodd" clip-rule="evenodd" d="M34.3889 12.6455C34.9557 14.4481 33.3515 16.0303 31.4731 16.2362C27.6386 16.6567 23.916 18.3369 20.9761 21.2768C18.0362 24.2168 16.356 27.9394 15.9355 31.774C15.7295 33.6523 14.1473 35.2565 12.3447 34.6897C9.73343 33.8686 7.276 32.4233 5.20643 30.3537C-1.65475 23.4925 -1.65475 12.3684 5.20645 5.5072C12.0676 -1.35397 23.1918 -1.35396 30.0529 5.50722C32.1225 7.57678 33.5678 10.0342 34.3889 12.6455ZM20.0335 10.6482C21.1426 11.7573 22.9408 11.7574 24.0499 10.6483C25.159 9.53916 25.159 7.74096 24.0499 6.63187C22.9408 5.52278 21.1426 5.52278 20.0335 6.63188C18.9244 7.74098 18.9244 9.53915 20.0335 10.6482ZM6.33533 24.3464C7.44443 25.4555 9.24259 25.4555 10.3517 24.3464C11.4608 23.2373 11.4608 21.4391 10.3517 20.33C9.24261 19.2209 7.44441 19.2209 6.33531 20.33C5.22621 21.4391 5.22624 23.2373 6.33533 24.3464ZM8.87183 13.1853C9.98093 14.2944 11.7791 14.2944 12.8882 13.1853C13.9973 12.0762 13.9973 10.278 12.8882 9.16893C11.7791 8.05984 9.98091 8.05984 8.87181 9.16894C7.76271 10.278 7.76274 12.0762 8.87183 13.1853ZM36.3221 30.2016C37.6804 28.9233 39.1209 27.5358 40.5359 26.1208C45.9274 20.7293 48.4712 15.4398 47.448 14.1398C46.1481 13.1166 40.8586 15.6604 35.4671 21.0519C34.0521 22.4669 32.6646 23.9075 31.3862 25.2658L36.3221 30.2016ZM34.1846 32.1116C33.6464 32.6005 33.0246 33.1717 32.4181 33.7288C31.3806 34.6819 30.388 35.5937 29.9363 35.9813L25.6066 31.6516C25.9942 31.1999 26.906 30.2073 27.859 29.1698C28.4161 28.5633 28.9874 27.9415 29.4763 27.4033L34.1846 32.1116ZM23.616 33.532L28.109 38.025C28.178 41.7348 24.8143 45.2365 21.2661 45.8355C18.4275 46.3148 15.5673 45.9738 14.4921 45.7434C15.191 45.1827 16.6579 43.6052 16.9344 41.7804C17.0242 41.1878 17.0292 40.62 17.034 40.0681C17.0476 38.4955 17.0602 37.0525 19.0311 35.5364C21.0951 33.9486 23.2708 33.589 23.6016 33.5343L23.616 33.532Z" fill="#5AB880"/>
</svg>
