<svg width="35" height="29" viewBox="0 0 35 29" fill="none" xmlns="http://www.w3.org/2000/svg">
<path d="M34.6549 3.53241C33.396 4.09197 32.0412 4.46942 30.6197 4.63833C32.0711 3.76944 33.184 2.39312 33.7088 0.751273C32.3513 1.55691 30.8484 2.14149 29.2476 2.45707C27.9665 1.09188 26.1404 0.238281 24.1198 0.238281C20.2403 0.238281 17.095 3.38366 17.095 7.26377C17.095 7.8136 17.1568 8.34953 17.2771 8.8646C11.4382 8.57127 6.26098 5.77484 2.79585 1.52424C2.1911 2.56134 1.84494 3.76805 1.84494 5.05679C1.84494 7.49385 3.08502 9.64452 4.97016 10.9041C3.81905 10.8672 2.73538 10.5509 1.78794 10.0247C1.78725 10.0539 1.78725 10.0838 1.78725 10.1137C1.78725 13.517 4.20901 16.3558 7.4232 17.0023C6.83375 17.1621 6.21302 17.2483 5.57212 17.2483C5.11891 17.2483 4.67891 17.2045 4.25002 17.1218C5.14463 19.9127 7.73878 21.9445 10.8126 22.0008C8.40818 23.8853 5.37958 25.0086 2.08753 25.0086C1.52102 25.0086 0.961454 24.9752 0.411621 24.9098C3.52155 26.9041 7.21397 28.0663 11.181 28.0663C24.1038 28.0663 31.1696 17.3616 31.1696 8.07774C31.1696 7.77328 31.1633 7.46952 31.1501 7.16784C32.5223 6.17939 33.7137 4.9414 34.6549 3.53241Z"/>
</svg>
