<svg width="53" height="54" viewBox="0 0 53 54" fill="none" xmlns="http://www.w3.org/2000/svg">
<mask id="mask0_2314_358" style="mask-type:alpha" maskUnits="userSpaceOnUse" x="0" y="0" width="53" height="54">
<circle cx="26.5" cy="26.6113" r="26.5" fill="#EC5188"/>
</mask>
<g mask="url(#mask0_2314_358)">
<rect x="-4.28076" y="-7.51367" width="62.9661" height="65.964" fill="#EC5188"/>
</g>
<path d="M27.2615 14.1482C27.3152 14.1637 27.3679 14.184 27.4189 14.2093L40.4741 20.6667C41.1753 21.0135 41.1753 22.0135 40.4741 22.3604L29.9469 27.5674L26.9703 28.9152C26.9565 28.9148 26.9427 28.9141 26.9289 28.913C26.9168 28.9121 26.9046 28.911 26.8925 28.9096L25.091 28.0807L13.5259 22.3604C12.8247 22.0135 12.8247 21.0135 13.5259 20.6667L26.5811 14.2093C26.6471 14.1766 26.716 14.1521 26.7863 14.1358C26.9429 14.0994 27.1065 14.1036 27.2615 14.1482Z" fill="white"/>
<path fill-rule="evenodd" clip-rule="evenodd" d="M19.0006 27.4862L18.6694 36.363C18.7064 36.4087 18.7586 36.4672 18.8312 36.5376C19.1499 36.8467 19.7006 37.2197 20.5226 37.5749C22.1566 38.281 24.4987 38.761 27.1724 38.761C29.846 38.761 32.1881 38.281 33.8221 37.5749C34.6441 37.2197 35.1948 36.8467 35.5136 36.5376C35.5861 36.4672 35.6383 36.4087 35.6753 36.363L35.3354 27.3208L29.9477 29.9857L26.9711 31.3336C26.9573 31.3331 26.9435 31.3324 26.9297 31.3314C26.9176 31.3304 26.9054 31.3293 26.8933 31.3279L25.0918 30.4991L19.0006 27.4862Z" fill="white"/>
</svg>
