<svg width="53" height="54" viewBox="0 0 53 54" fill="none" xmlns="http://www.w3.org/2000/svg">
<circle cx="26.5" cy="26.6113" r="26.5" fill="#5C90DE"/>
<path fill-rule="evenodd" clip-rule="evenodd" d="M26.5 30.4458C24.8754 30.4483 21.9765 30.6271 19.6164 33.083C16.8991 35.9106 14.6909 36.6258 13.3242 35.7747C11.5376 34.6622 11.834 29.4489 12.6124 25.7904C13.4094 22.0445 15.2604 18.3254 17.6237 17.4456C19.4036 16.783 20.8541 17.2254 22.5347 17.738C23.6878 18.0897 24.9493 18.4745 26.5 18.5581C28.0507 18.4745 29.3122 18.0897 30.4653 17.738C32.1459 17.2254 33.5964 16.783 35.3763 17.4456C37.7396 18.3254 39.5906 22.0445 40.3876 25.7904C41.166 29.4489 41.4624 34.6622 39.6758 35.7747C38.3091 36.6258 36.1009 35.9106 33.3836 33.083C31.0235 30.6271 28.1246 30.4483 26.5 30.4458ZM18.1362 21.9274C18.1362 21.232 18.6843 20.6684 19.3605 20.6684C20.0367 20.6684 20.5848 21.232 20.5848 21.9274V23.1864H21.8092C22.4854 23.1864 23.0335 23.7501 23.0335 24.4454C23.0335 25.1408 22.4854 25.7045 21.8092 25.7045H20.5848V26.9635C20.5848 27.6588 20.0367 28.2225 19.3605 28.2225C18.6843 28.2225 18.1362 27.6588 18.1362 26.9635V25.7045H16.9118C16.2356 25.7045 15.6875 25.1408 15.6875 24.4454C15.6875 23.7501 16.2356 23.1864 16.9118 23.1864H18.1362V21.9274ZM34.2946 21.7371C34.2946 22.4728 33.7146 23.0693 32.9991 23.0693C32.2836 23.0693 31.7036 22.4728 31.7036 21.7371C31.7036 21.0013 32.2836 20.4048 32.9991 20.4048C33.7146 20.4048 34.2946 21.0013 34.2946 21.7371ZM32.9991 28.6324C33.7146 28.6324 34.2946 28.036 34.2946 27.3002C34.2946 26.5644 33.7146 25.968 32.9991 25.968C32.2836 25.968 31.7036 26.5644 31.7036 27.3002C31.7036 28.036 32.2836 28.6324 32.9991 28.6324ZM31.6466 24.5186C31.6466 25.2544 31.0666 25.8509 30.3511 25.8509C29.6356 25.8509 29.0556 25.2544 29.0556 24.5186C29.0556 23.7829 29.6356 23.1864 30.3511 23.1864C31.0666 23.1864 31.6466 23.7829 31.6466 24.5186ZM35.704 25.8509C36.4195 25.8509 36.9995 25.2544 36.9995 24.5186C36.9995 23.7829 36.4195 23.1864 35.704 23.1864C34.9885 23.1864 34.4085 23.7829 34.4085 24.5186C34.4085 25.2544 34.9885 25.8509 35.704 25.8509Z" fill="white"/>
</svg>
