<svg width="53" height="54" viewBox="0 0 53 54" fill="none" xmlns="http://www.w3.org/2000/svg">
<mask id="mask0_2314_362" style="mask-type:alpha" maskUnits="userSpaceOnUse" x="0" y="0" width="53" height="54">
<circle cx="26.5" cy="26.6113" r="26.5" fill="#EC5188"/>
</mask>
<g mask="url(#mask0_2314_362)">
<rect x="-4.28076" y="-7.51367" width="62.9661" height="65.964" fill="#5AB880"/>
</g>
<path d="M39.9773 19.5845C41.331 19.9161 42.1725 21.3262 41.9701 22.7937L41.7769 24.194C37.4786 23.0548 32.4175 22.3978 27.0001 22.3978C21.5826 22.3978 16.5215 23.0549 12.2231 24.194L12.0299 22.7937C11.8275 21.3263 12.6691 19.9161 14.0228 19.5846C17.8515 18.6469 22.2806 18.1113 27.0001 18.1113C31.7196 18.1113 36.1486 18.6469 39.9773 19.5845Z" fill="white"/>
<path d="M41.4514 26.5535L40.7278 31.7992C40.4645 33.7078 39.0504 35.1113 37.3908 35.1113H31.6712C30.851 35.1113 30.0587 34.7639 29.4422 34.1337L27.7723 32.4095C27.3416 31.9649 26.6584 31.9649 26.2278 32.4095L24.5579 34.1337C23.9413 34.7639 23.149 35.1113 22.3288 35.1113H16.6092C14.9496 35.1113 13.5356 33.7078 13.2723 31.7992L12.5486 26.5536C16.6822 25.4355 21.6358 24.7711 27.0001 24.7711C32.3643 24.7711 37.3179 25.4355 41.4514 26.5535Z" fill="white"/>
</svg>
