<svg width="53" height="54" viewBox="0 0 53 54" fill="none" xmlns="http://www.w3.org/2000/svg">
<circle cx="26.5" cy="26.6113" r="26.5" fill="#B289E5"/>
<circle cx="26.5" cy="26.6113" r="16.5" stroke="white" stroke-width="2"/>
<path d="M21.6151 19.0374H27.5551C29.1097 19.0374 30.3051 19.4701 31.1411 20.3354C31.9771 21.1861 32.3951 22.2861 32.3951 23.6354C32.3951 24.9261 32.0064 25.9454 31.2291 26.6934C30.6864 27.2068 30.0117 27.5441 29.2051 27.7054L33.8031 33.7114H29.0731L25.4211 28.0794V33.7114H21.6151V19.0374ZM25.4211 21.9854V25.6154H26.1471C26.9684 25.6154 27.5844 25.4174 27.9951 25.0214C28.3177 24.6988 28.4791 24.2881 28.4791 23.7894C28.4791 23.2761 28.3104 22.8654 27.9731 22.5574C27.5917 22.1761 26.9831 21.9854 26.1471 21.9854H25.4211Z" fill="white"/>
</svg>
