<svg width="82" height="73" fill="none" xmlns="http://www.w3.org/2000/svg"><path d="M15.285 70.882l47.963-26.256c.825-.705 2.41-2.674 2.155-4.908-.255-2.235-1.57-2.794-2.194-2.794m17.198 16.241l-16.758-8.46m3.99 26.177L41.143 56.836M1 49.893l12.728-6.663m13.968-3.033c-6.386-.44-10.416-2.595-12.97-3.991-3.385 2.681-2.433 5.985-.837 7.701 3.87 1.796 9.43 1.664 11.81 1.158 2.427-1.468 2.342-3.857 1.997-4.868zm12.807-21.909L55.827 13.1c1.45-.12 4.196-.335 5.346 2.155 1.149 2.49-.532 4.96-1.756 5.665l-9.018 3.672m4.789 6.945l6.265-2.953c.678-1.25 1.556-5.747-2.275-7.342" stroke="#4AC882" stroke-width="3"/><path d="M58.74 39.16l4.63-2.276c1.036-1.69 2.105-5.714-1.917-8.3m-17.118-12.69v-3.778c-3.232.966-10.143 1.285-11.93-5.161l15.81-3.841a3 3 0 013.518 1.862l3.136 8.364" stroke="#4AC882" stroke-width="3"/><path d="M23.665 13.7l3.872-9.871a3 3 0 013.332-1.856l12.429 2.27" stroke="#4AC882" stroke-width="3"/><path d="M31.805 25.392l-16.201-5.905c-1.596-5.17 2.155-7.262 4.23-7.662l14.205 5.746c2.49 4.405-.452 7.05-2.234 7.82z" stroke="#4AC882" stroke-width="3"/><path d="M31.725 25.311l-16.04-5.746c-4.055 3.543-2.435 6.85-1.118 8.061 5.459 2.65 13.288 4.669 16.52 5.347 3.352-2.49 1.822-6.145.638-7.662z" stroke="#4AC882" stroke-width="3"/><path d="M31.048 33.014c-6.384-1.276-13.594-4.07-16.4-5.308-2.262 1.788-2.477 4.458-2.215 6.161.096.623.49 1.146 1.012 1.5 5.889 3.994 11.95 4.893 14.33 4.829 4.852-2.298 4.204-5.746 3.273-7.182z" stroke="#4AC882" stroke-width="3"/></svg>