<svg width="122" height="275" fill="none" xmlns="http://www.w3.org/2000/svg"><path d="M18.807 62.174c8.47 3.786 16.824 11.13 19.886 15.962-.99-19.633-3.026-39.489-4.33-50.29-1.303-10.801-2.66-26.012 4.514-26.198 6.963-.18 8.518 4.695 10.612 15.881 1.773 9.468 3.69 28.745 5.42 37.445 11.753-3.19 30.826-1.142 39.62.59 9.917-29.881 18.024-38.485 24.037-35.617 6.013 2.868-3.128 22.78-6.614 31.903-3.487 9.123-8.205 41.08-11.243 55.405-3.038 14.325-12.884 21.62-38.882 20.188-22.52-1.241-36.305-22.788-39.205-36.135-2.32-10.677-15.35-21.017-20.47-23.282.089-8.454 6.068-10.584 16.655-5.852z" fill="#F58F7B"/><path d="M73.78 52.015c-7.452-8.642-16.169-3.87-19.596-.402.906 8.157.952 25.473 2.27 31.127 1.647 7.068 3.127 12.902 9.452 12.913 5.06.009 8.228-4.086 8.65-6.062 2.234 2.405 5.74 5.797 10.376 4.693 7.868-1.874 6.798-13.312 7.94-27.668 1.141-14.356-1.287-17.235-7.147-18.46-4.689-.981-9.917 2.164-11.944 3.86z" fill="url(#paint0_linear_2055_1940)"/><path d="M36.557 274.068h68.029c10.012-11.414 5.283-21.034-.514-32.827l-.089-.18c-4.669-9.5-1.14-26.232 1.207-33.41l-62.392-1.611c1.342 10.332 2.898 33.491-1.61 43.473-4.509 9.983-4.966 20.53-4.63 24.555z" fill="#701556"/><path d="M48.264 204.677l3.112-103.903 33.423 2.882 9.822 102.194-46.357-1.173z" fill="url(#paint1_linear_2055_1940)"/><path d="M50.249 241.194c3.266-16.903-1.154-55.707-1.73-56.476-5.25 13.382-15.06 41.07-12.294 44.758 2.767 3.688 10.502 9.349 14.024 11.718z" fill="#E7E3E0"/><path d="M61.289 234.47c-2.95-5.533-12.048-21.898-16.227-29.389 34.962-5.993 45.67-22.731 46.654-30.352 4.978 9.093 15.452 29.813 17.518 39.956 2.581 12.678-23.42 20.554-31.902 24.395-8.482 3.842-12.355 2.306-16.043-4.61z" fill="#E7E3E0"/><defs><linearGradient id="paint0_linear_2055_1940" x1="76.352" y1="23.945" x2="72.704" y2="95.867" gradientUnits="userSpaceOnUse"><stop stop-color="#F58F7B"/><stop offset="1" stop-color="#F17264"/></linearGradient><linearGradient id="paint1_linear_2055_1940" x1="62.714" y1="99.835" x2="71.648" y2="207.752" gradientUnits="userSpaceOnUse"><stop offset=".26" stop-color="#F58F7B"/><stop offset="1" stop-color="#F58F7B" stop-opacity=".85"/></linearGradient></defs></svg>