<svg width="224" height="246" fill="none" xmlns="http://www.w3.org/2000/svg"><path d="M81.242 143.834c7.076 25.063-5.667 47.979-9.823 60.446l-30.223 27.012-19.834-18.89 22.29-42.879 2.456-50.813c3.4-15.553 11.334-49.076 15.868-58.747 4.533-9.672 28.522-26.761 37.966-31.169 11.901 2.896 12.277 15.493 39.48 15.113 11.521-.16 20.778 6.045 20.967 10.012.189 3.967-3.793 9.318-12.655 6.988-7.179-1.888-18.639-2.014-25.691-1.321-5.667 6.422-14.545 11.333-22.856 10.2-6.65-.907-13.096-.442-15.678.377-29.846 13.602-11.334 41.558-2.267 73.671z" fill="url(#paint0_linear_2055_1957)"/><path d="M224.001 102.655V245.46c-12.997-2.721-37.23-32.365-42.267-37.779-30.979 31.357-46.846 36.268-77.07 36.646-24.097.301-55.535-3.777-81.603-2.644-26.067 1.134 11.333-97.47 22.289-104.27 8.764-5.441-17.378 84.247 10.201 47.979 27.58-36.268 66.87-38.536 83.115-37.024 16.245 1.511 19.874-17.817 39.29-36.645 12.467-12.09 30.442-14.557 46.045-9.068z" fill="url(#paint1_linear_2055_1957)"/><path d="M55.55 117.387c-.303-16.019-1.89-34.378 12.09-55.157 1.322 2.582 6.422 6.423 16.244 1.134 9.823-5.29 14.923-22.353 16.245-30.223 3.476 6.346 6.863 3.274 8.123.944-2.418 5.893-1.889 11.774-1.322 13.978-5.29-7.178-8.879-2.078-8.123 1.511.756 3.59 3.589 8.312 11.712 8.312 6.498 0 8.564-4.817 9.257-7.462 2.644 6.14 12.278 4.628 13.506-2.361 1.259 1.952 6.328 2.833 8.972 1.511 4.345-2.172 3.495-5.383 4.062-8.783 4.061 1.794 11.711-.945 9.916-11.05-1.491-8.389-16.339-21.441-24.461-27.297-6.498-4.685-9.351-1.417-12.468.379-5.855 1.133-8.5 2.455-11.144 4.91-24.18 4.383-46.25 24.273-54.498 33.34-5.415 6.423-20.477 30.224-37.402 74.048-21.156 54.78-7.555 79.337-9.822 86.893-2.267 7.556-16.056 33.623 11.145 38.912 21.761 4.232 20.842-15.363 19.079-26.445 41.557-34.001 19.267-77.07 18.889-97.094z" fill="#FFA88C"/><defs><linearGradient id="paint0_linear_2055_1957" x1="90.879" y1="28.794" x2="90.879" y2="231.292" gradientUnits="userSpaceOnUse"><stop stop-color="#E86355"/><stop offset=".839" stop-color="#FFA88C"/></linearGradient><linearGradient id="paint1_linear_2055_1957" x1="84.641" y1="247.728" x2="252.381" y2="297.597" gradientUnits="userSpaceOnUse"><stop stop-color="#FFA88C"/><stop offset="1" stop-color="#FFA88C" stop-opacity=".35"/></linearGradient></defs></svg>