<svg width="73" height="70" fill="none" xmlns="http://www.w3.org/2000/svg"><path d="M22.124 7.883a32.413 32.413 0 0116.697-4.6c17.985 0 32.565 14.579 32.565 32.564S56.806 68.41 38.82 68.41 6.257 53.831 6.257 35.847a32.42 32.42 0 013.833-15.343" stroke="#1FADED" stroke-width="3"/><path d="M5.438 16.649c-1.765.73-1.599 3.283.246 3.78l3.223.866a3 3 0 011.154.602l2.553 2.15c1.461 1.232 3.65-.09 3.242-1.957l-1.448-6.609a2 2 0 00-2.718-1.42L5.438 16.65zm32.364 3.097l-3.126 15.249a4 4 0 00.907 3.436l8.425 9.636c1.555 1.778 4.366-.135 3.283-2.234l-5.094-9.869a3.999 3.999 0 01-.446-1.837l.01-13.978c.002-2.41-3.475-2.765-3.959-.403z" fill="#1FADED"/></svg>