<svg width="177" height="391" fill="none" xmlns="http://www.w3.org/2000/svg"><path opacity=".3" d="M98.869 83.33c-23.687 23.865-13.598 61.548-5.475 74.539l37.559 2.834c-21.628-60.103 18.075-77.325 35.527-99.897 14.326-18.527 9.326-29.01 5.157-39.922-.053 14.528-1.528 20.344-7.982 27.554C173.836 17.509 155.722 3.41 135.308.48c26.128 29.493-6.235 52.418-36.439 82.85z" fill="url(#paint0_linear_2055_1931)"/><path d="M52.608 123.061c9.81-2.057 20.305.923 23.338 2.769l4.154 12.263-.007-.004c-4.685-2.309-14.755-7.273-23.136-5.534-10.483 2.176-2.967 26.108.593 35.602 3.56 9.494 6.527 19.581 13.252 21.361 4.283 1.134 16.352-.396 19.978-.396l4.154 9.098c-4.945.659-17.803 2.968-24.923 2.177-8.9-.989-25.118-17.802-27.492-37.977-2.373-20.174-2.174-36.788 10.09-39.359z" fill="#541642"/><path d="M54.976 137.104c-4.273.711-13.91 7.68-18.196 11.076-.396 1.582.693 26.109 4.154 32.042 2.77 4.747 8.01 10.483 10.285 12.758 14.142-4.945 18.691-14.439 17.405-18.197-1.028-3.006-3.725-3.494-4.944-3.362.989-1.451 2.769-4.984 1.978-7.516-.791-2.532-3.429-4.022-4.648-4.45 1.153-1.451 3.243-5.083 2.373-8.011-.87-2.927-3.461-3.923-4.648-4.055 4.846-7.417 1.582-11.175-3.759-10.285z" fill="url(#paint1_linear_2055_1931)"/><path d="M27.286 214.342c-.396 5.064-6.56 52.281-9.592 75.257l42.327 6.725c-.066-17.966-.198-55.717-.198-62.996 0-9.098.791-10.977 2.274-13.944 1.484-2.966 5.44-10.482 4.055-19.383-1.107-7.12-7.78-9.757-10.977-10.186.165-2.67.06-9.652-1.681-16.218-1.74-6.567-5.868-13.219-7.714-15.725-.099-7.812 0-17.405.89-23.536.89-6.132 2.176-16.911-1.879-17.999-4.055-1.088-8.307 1.583-10.582 7.319-1.82 4.589-3.659 19.053-4.35 25.712-1.913.626-7.023 2.473-12.166 4.846-6.428 2.967-6.724 9.395-5.438 13.054 1.286 3.659 9.296 26.899 11.373 31.646s4.153 9.098 3.658 15.428z" fill="url(#paint2_linear_2055_1931)"/><path d="M15.222 289.007l-7.023 47.766 1.781 5.341 20.768 7.516 35.206-2.769c-.923-13.45-2.868-41.833-3.263-47.766a734.667 734.667 0 01-.5-8.15 1.993 1.993 0 00-1.825-1.886c-11.865-.958-32.557-2.058-41.781-2.625-2.075-.127-3.067 1.436-3.363 2.573z" fill="#E7E3E0"/><path d="M78.911 390.076H.191c8.9-21.558 1.089-24.922.297-32.339-.632-5.934 4.813-16.515 7.615-21.064 9.178 9.968 42.129 8.504 57.458 6.526.89 1.055 3.243 3.74 5.538 6.034 2.868 2.868 3.263 7.615 2.769 10.582-.495 2.967-2.473 11.57 1.68 16.613 3.324 4.035 3.627 10.78 3.363 13.648z" fill="#E7165A"/><path d="M27.883 163.312c.396-6.764 1.516-12.016 2.027-13.796-2.028 1.352-6.231 4.895-6.824 8.258-.594 3.362 2.95 5.093 4.797 5.538z" fill="#F17264"/><path d="M85.738 204.565c-10.593-27.537-15.78-69.584-17.048-87.166.566-1.302 3.266-3.332 7.447-4.332 7.372-1.764 32.02-5.597 53.616-6.55 16.078-.71 19.304.761 19.928 1.966 5.573 32.812 2.741 75.667 1.808 87.314-.934 11.648-17.424 13.937-41.392 14.821-19.175.707-24.228-3.741-24.359-6.053z" fill="url(#paint3_linear_2055_1931)"/><defs><linearGradient id="paint0_linear_2055_1931" x1="159.02" y1="-9.317" x2="135.26" y2="130.584" gradientUnits="userSpaceOnUse"><stop stop-color="#fff"/><stop offset="1" stop-color="#fff" stop-opacity="0"/></linearGradient><linearGradient id="paint1_linear_2055_1931" x1="49.87" y1="171.395" x2="73.937" y2="163.064" gradientUnits="userSpaceOnUse"><stop stop-color="#F17264"/><stop offset="1" stop-color="#F58F7B"/></linearGradient><linearGradient id="paint2_linear_2055_1931" x1="39.044" y1="116.099" x2="39.044" y2="296.324" gradientUnits="userSpaceOnUse"><stop offset=".578" stop-color="#F58F7B"/><stop offset="1" stop-color="#F58F7B" stop-opacity=".85"/></linearGradient><linearGradient id="paint3_linear_2055_1931" x1="156.852" y1="154.402" x2="70.812" y2="160.005" gradientUnits="userSpaceOnUse"><stop stop-color="#541642"/><stop offset="1" stop-color="#851464"/></linearGradient></defs></svg>