<svg width="84" height="70" fill="none" xmlns="http://www.w3.org/2000/svg"><path d="M0 37.207h24.241a1 1 0 00.868-.503l3.152-5.502a1 1 0 011.792.116l6.45 15.598c.385.934 1.755.772 1.911-.227l3.521-22.454c.162-1.033 1.601-1.155 1.936-.164l5.287 15.668a1 1 0 001.756.269l4.445-6.106a1 1 0 011.656.058l1.742 2.778a1 1 0 00.847.469H84" stroke="#F04647" stroke-width="3"/><path d="M5.483 14.178c10.417-20.162 29.28-10.613 35.56-2.03.459.626 1.456.627 1.919.004 6.372-8.584 26.082-18.138 35.555 2.026 9.583 21.318-30.185 49.677-35.98 53.664a.916.916 0 01-1.073 0C35.668 63.855-4.1 35.496 5.484 14.178z" stroke="#F04647" stroke-width="3"/></svg>