<svg width="69" height="69" fill="none" xmlns="http://www.w3.org/2000/svg"><path stroke="#E3B457" stroke-width="3" d="M45.464 22.418h21.57v44.343h-21.57z"/><path stroke="#E3B457" stroke-width="3" d="M45.464 45.111H12.827v21.651h32.637z"/><path d="M12.907 66.762H2V1.648h33.198v43.783m0-17.381V14.298l10.385-6.876 10.385 6.876v7.879" stroke="#E3B457" stroke-width="3"/><path fill="#E3B457" d="M21.487 53.691h4.891v4.891h-4.891zm10.865 0h4.891v4.891h-4.891zm21.852-22.773h11.987v4.891H54.204zm0 11.387h11.987v4.891H54.204zm0 11.386h11.987v4.891H54.204zM10.501 10.229h4.891v4.891h-4.891zm10.865 0h4.891v4.891h-4.891zM10.501 21.135h4.891v4.891h-4.891zm0 10.906h4.891v4.891h-4.891zm10.865-10.906h4.891v4.891h-4.891zm0 10.906h4.891v4.891h-4.891z"/></svg>