<svg width="48" height="31" fill="none" xmlns="http://www.w3.org/2000/svg"><g opacity=".8"><path d="M13.33 24.99c3.607-3.645 8.037-3.91 10.52-3.914 2.483.003 6.913.269 10.52 3.914 4.152 4.197 7.526 5.259 9.615 3.995 2.73-1.651 2.277-9.39 1.088-14.82-1.218-5.56-4.047-11.08-7.659-12.386-2.72-.983-4.936-.327-7.504.434-1.763.522-3.69 1.094-6.06 1.218-2.37-.124-4.298-.696-6.06-1.218-2.568-.76-4.785-1.417-7.505-.434-3.611 1.306-6.44 6.827-7.658 12.386-1.19 5.43-1.642 13.169 1.088 14.82 2.089 1.264 5.463.202 9.616-3.995z" stroke="#fff" stroke-width="2"/><path fill-rule="evenodd" clip-rule="evenodd" d="M11.307 9.226a1.87 1.87 0 011.871-1.869 1.87 1.87 0 011.871 1.87v1.868h1.871a1.87 1.87 0 110 3.738h-1.87V16.7a1.87 1.87 0 01-1.872 1.87 1.87 1.87 0 01-1.87-1.87v-1.868H9.435a1.87 1.87 0 110-3.738h1.871V9.226zM36 8.944a1.979 1.979 0 01-1.98 1.977A1.979 1.979 0 1136 8.944zm-1.98 10.234a1.979 1.979 0 10-1.98-1.977c0 1.092.887 1.977 1.98 1.977zm-2.066-6.106a1.979 1.979 0 01-1.98 1.978 1.979 1.979 0 111.98-1.978zm6.2 1.978a1.979 1.979 0 10-1.98-1.978c0 1.093.887 1.978 1.98 1.978z" fill="#fff"/></g></svg>