<svg width="122" height="123" fill="none" xmlns="http://www.w3.org/2000/svg"><mask id="a" style="mask-type:alpha" maskUnits="userSpaceOnUse" x="0" y="0" width="122" height="123"><circle cx="61" cy="61.111" r="61" fill="#EBEBEB"/></mask><g mask="url(#a)"><path fill="#5C90DE" d="M-9.854-17.443h144.941v151.842H-9.854z"/></g><path fill-rule="evenodd" clip-rule="evenodd" d="M60.5 69.5c-4.314.007-12.01.468-18.277 6.801-7.215 7.293-13.078 9.137-16.707 6.942-4.744-2.869-3.957-16.314-1.89-25.749 2.116-9.66 7.031-19.252 13.306-21.52 4.726-1.71 8.577-.568 13.04.754 3.061.907 6.41 1.899 10.528 2.114 4.117-.215 7.467-1.207 10.529-2.114 4.462-1.322 8.313-2.464 13.04-.755 6.274 2.27 11.189 11.86 13.305 21.521 2.067 9.435 2.854 22.88-1.89 25.75-3.629 2.194-9.492.35-16.707-6.943-6.266-6.333-13.963-6.794-18.277-6.8zM38.293 47.532a3.249 3.249 0 013.25-3.247 3.249 3.249 0 013.251 3.247v3.247h3.251a3.249 3.249 0 013.25 3.247 3.249 3.249 0 01-3.25 3.247h-3.25v3.247a3.249 3.249 0 01-3.252 3.246 3.249 3.249 0 01-3.25-3.246v-3.247h-3.251a3.249 3.249 0 01-3.251-3.247 3.249 3.249 0 013.25-3.247h3.252v-3.247zm42.903-.491a3.438 3.438 0 01-3.44 3.436c-1.9 0-3.44-1.539-3.44-3.436a3.438 3.438 0 013.44-3.436c1.9 0 3.44 1.538 3.44 3.436zm-3.44 17.783c1.9 0 3.44-1.539 3.44-3.436a3.438 3.438 0 00-3.44-3.436c-1.9 0-3.44 1.538-3.44 3.436a3.438 3.438 0 003.44 3.436zm-3.59-10.61a3.438 3.438 0 01-3.44 3.436c-1.9 0-3.44-1.538-3.44-3.436a3.438 3.438 0 013.44-3.435c1.9 0 3.44 1.538 3.44 3.435zm10.772 3.436c1.9 0 3.44-1.538 3.44-3.436a3.438 3.438 0 00-3.44-3.435c-1.9 0-3.44 1.538-3.44 3.435a3.438 3.438 0 003.44 3.436z" fill="#fff"/></svg>