<svg width="123" height="123" fill="none" xmlns="http://www.w3.org/2000/svg"><mask id="a" style="mask-type:alpha" maskUnits="userSpaceOnUse" x="0" y="0" width="123" height="123"><circle cx="61.339" cy="61.111" r="61" fill="#EBEBEB"/></mask><g mask="url(#a)"><path fill="#39AEBE" d="M-9.516-17.443h144.941v151.842H-9.516z"/></g><path d="M44.926 71.2c-1.508 0-2.731-1.313-2.731-2.933v-4.334H38.16c-1.509 0-2.732-1.313-2.732-2.933 0-1.62 1.223-2.933 2.732-2.933h4.035v-4.334c0-1.62 1.223-2.934 2.731-2.934 1.509 0 2.732 1.313 2.732 2.934v4.334h4.035c1.509 0 2.731 1.313 2.731 2.933 0 1.62-1.222 2.933-2.731 2.933h-4.035v4.334c0 1.62-1.223 2.934-2.732 2.934zm24.911-4.069c0-1.927-1.455-3.488-3.249-3.488-1.793 0-3.247 1.561-3.247 3.488s1.454 3.489 3.247 3.489c1.794 0 3.249-1.562 3.249-3.489zm11.466 0c0-1.927-1.454-3.488-3.248-3.488-1.794 0-3.248 1.561-3.248 3.488s1.454 3.489 3.248 3.489c1.794 0 3.248-1.562 3.248-3.489zM62.75 51.38c1.794 0 3.248 1.562 3.248 3.489 0 1.926-1.454 3.488-3.248 3.488-1.794 0-3.248-1.562-3.248-3.488 0-1.927 1.454-3.488 3.248-3.488zm14.715 3.489c0-1.927-1.455-3.488-3.249-3.488-1.793 0-3.247 1.561-3.247 3.488 0 1.926 1.454 3.488 3.248 3.488 1.793 0 3.248-1.562 3.248-3.488z" fill="#fff"/><path fill-rule="evenodd" clip-rule="evenodd" d="M20 79.235C20 82.97 22.82 86 26.3 86h69.4c3.48 0 6.3-3.029 6.3-6.765v-36.47C102 39.03 99.18 36 95.7 36H26.3c-3.48 0-6.3 3.029-6.3 6.765v36.47zm10.728 3.17h56.803v-42.81H30.728v42.81zm64.038-25.263c1.984 0 3.592 1.727 3.592 3.858 0 2.13-1.608 3.858-3.592 3.858S91.173 63.131 91.173 61c0-2.13 1.609-3.858 3.593-3.858zm-68.86 14.852c-.652 0-1.182-.569-1.182-1.269V55.08c0-.7.53-1.268 1.181-1.268.653 0 1.182.568 1.182 1.268v15.645c0 .7-.53 1.269-1.181 1.269zm0-19.45c-.652 0-1.182-.569-1.182-1.27 0-.7.53-1.268 1.181-1.268.653 0 1.182.569 1.182 1.269s-.53 1.268-1.181 1.268z" fill="#fff"/></svg>