<svg width="122" height="123" fill="none" xmlns="http://www.w3.org/2000/svg"><mask id="a" style="mask-type:alpha" maskUnits="userSpaceOnUse" x="0" y="0" width="122" height="123"><circle cx="61" cy="61.111" r="61" fill="#EBEBEB"/></mask><g mask="url(#a)"><path fill="#FF6062" d="M-9.854-17.443h144.941v151.842H-9.854z"/></g><path d="M35.004 50.25a6.187 6.187 0 01-2.373-3.583L29 31.111l15.729 3.59a6.26 6.26 0 013.623 2.348l10.75 14.358-3.632 4.89-12.917-15.613-5.255-1.367 1.383 5.198 15.953 12.908-3.464 4.664L35.004 50.25zm29.732 21.772l4.647 3.403-6.362 5.197c.619 1.347 1.785 2.584 2.92 3.542a18.722 18.722 0 00.858.68l.355.257c.432.304.82.549 1.123.72l5.532-6.566L84.042 92.11c.245 0 .492-.027.74-.077l.17-.036.178-.048.237-.073c.379-.128.75-.298 1.1-.488a9.748 9.748 0 001.034-.657c.408-.296.742-.587.966-.809.738-.728 2.213-2.626 2.213-4.376l-13-10.121 6.638-5.47c-.738-1.277-2.822-4.104-5.255-5.198l-5.255 6.292-2.715-3.625-6.358 4.598z" fill="#fff"/><path fill-rule="evenodd" clip-rule="evenodd" d="M78.27 34.7a6.27 6.27 0 00-3.622 2.349l-25.457 34-5.254-6.292c-1.534.689-2.929 2.067-3.936 3.312-.59.73-1.047 1.415-1.32 1.886l6.639 5.47-13 10.122c0 .434.09.878.237 1.31.128.375.3.74.493 1.087a9.527 9.527 0 001.482 1.98c.737.728 2.656 2.187 4.426 2.187L49.19 79.255l5.532 6.566c1.292-.73 4.15-2.792 5.256-5.199l-6.362-5.197L87.995 50.25a6.174 6.174 0 002.374-3.583L94 31.111l-15.73 3.59zm6.049 9.815L63.02 61.748l17.426-21.064 5.255-1.367-1.383 5.198z" fill="#fff"/></svg>