<svg width="122" height="123" fill="none" xmlns="http://www.w3.org/2000/svg"><mask id="a" style="mask-type:alpha" maskUnits="userSpaceOnUse" x="0" y="0" width="122" height="123"><circle cx="61" cy="61.111" r="61" fill="#EBEBEB"/></mask><g mask="url(#a)"><path fill="#5AB880" d="M-9.854-17.443h144.941v151.842H-9.854z"/></g><path fill-rule="evenodd" clip-rule="evenodd" d="M41.506 23.111c-2.489 0-4.506 2.032-4.506 4.538v66.925c0 2.506 2.017 4.537 4.506 4.537H70.23c8.71 0 15.77-7.11 15.77-15.88V27.649c0-2.506-2.017-4.538-4.506-4.538H41.506zm5.069 8.508a2.826 2.826 0 00-2.816 2.836V53.17a2.826 2.826 0 002.816 2.836h29.85a2.826 2.826 0 002.816-2.836V34.455a2.826 2.826 0 00-2.816-2.836h-29.85zm2.253 38.567a1.13 1.13 0 011.126-1.134h4.506a1.13 1.13 0 011.126 1.134v3.97h3.943a1.13 1.13 0 011.126 1.134v4.538a1.13 1.13 0 01-1.126 1.134h-3.943v3.97a1.13 1.13 0 01-1.126 1.135h-4.506a1.13 1.13 0 01-1.126-1.135v-3.97h-3.943a1.13 1.13 0 01-1.126-1.134V75.29a1.13 1.13 0 011.126-1.134h3.943v-3.97zm30.413 2.552c0 2.036-1.639 3.687-3.66 3.687-2.022 0-3.662-1.65-3.662-3.687 0-2.036 1.64-3.686 3.662-3.686 2.021 0 3.66 1.65 3.66 3.686zm-9.856 13.896c2.022 0 3.661-1.65 3.661-3.687 0-2.036-1.64-3.686-3.66-3.686-2.023 0-3.662 1.65-3.662 3.686s1.64 3.687 3.661 3.687z" fill="#fff"/></svg>