<svg width="122" height="123" fill="none" xmlns="http://www.w3.org/2000/svg"><circle cx="61" cy="61.111" r="61" fill="#646A6B"/><path d="M33.315 66.423c0 .243.061.487.122.73.122-.06.183-.122.244-.304.608-1.277 1.278-2.494 2.07-3.65a38.146 38.146 0 014.565-5.779 14.13 14.13 0 012.678-2.372 5.859 5.859 0 012.557-1.216c1.157-.183 2.192.365 2.374 1.581.061.183.061.426.061.609V73.54c0 .913-.791 1.703-1.765 1.643-.548.06-1.157 0-1.705-.183-.06-.06-.243-.06-.304 0 .03.06.06.106.091.152.03.046.061.091.092.152.365.487.791.974 1.217 1.4a19.208 19.208 0 006.149 4.136 34.939 34.939 0 007.792 2.372c.73.122 1.522.243 2.252.304l5.418-5.718 5.114 4.258a.396.396 0 00.217-.074 13.42 13.42 0 002.035-1.325c2.618-1.946 4.992-4.258 6.94-6.873 1.583-2.069 2.983-4.259 4.14-6.63.121-.123.121-.244.121-.366-.122.061-.183.122-.244.183-.304.273-.608.562-.913.851-.304.29-.608.578-.913.852-1.156 1.095-2.435 1.946-3.835 2.676a4.756 4.756 0 01-2.557.548c-.548 0-1.035-.183-1.4-.548-.182-.121-.243-.243-.243-.425 0-.213-.016-.411-.03-.609a7.753 7.753 0 01-.031-.608l-.006-.171c-.059-1.765-.116-3.475-.116-5.243-.06-2.068-.122-9.367-.06-10.888 0-1.095 0-2.25.06-3.346 0-.486.122-1.034.426-1.46.213-.304.411-.608.609-.912.198-.304.396-.608.609-.913 1.522-2.19 3.165-4.258 4.87-6.265.121-.06.182-.182.121-.304a27.694 27.694 0 00-14.427 7.847c-.67-.426-1.4-.67-2.192-.79-.79-.183-1.582-.183-2.374-.123a.476.476 0 00.244.244c1.583 1.216 2.557 2.798 2.557 4.805V70.5a.551.551 0 01-.244.486c-.365.244-.67.487-.974.73-1.035.791-2.192 1.338-3.409 1.703-1.583.426-3.287-.304-4.018-1.764-.06-.182-.121-.364-.121-.547V48.783c0-.122 0-.304-.061-.426-.183.06-.305.122-.427.182l-.06.061c-.73.365-1.583 0-1.948-.73-.122-.243-.244-.486-.305-.79a6.969 6.969 0 011.157-5.78 12.73 12.73 0 013.226-3.04.475.475 0 00.244-.244h-.061a.398.398 0 00-.164.038c-.03.012-.054.023-.08.023a31.943 31.943 0 00-7 2.859 40.743 40.743 0 00-7.792 5.961c-1.705 1.642-3.41 3.407-4.931 5.231-1.766 2.008-3.166 4.32-4.2 6.752a17.746 17.746 0 00-1.462 7.543z" fill="#fff"/><path fill-rule="evenodd" clip-rule="evenodd" d="M24 60.036c.122-20.317 16.985-36.985 37.622-36.924 20.758.06 37.377 17.519 37.377 37.228.122 20.439-16.558 37.836-37.62 37.775-20.698-.06-37.5-16.728-37.378-38.08zm37.257 32.909c17.958.182 32.629-14.356 32.811-32.3 0-17.58-14.427-32.728-32.568-32.788-17.654.06-32.447 14.72-32.386 32.422-.122 17.762 14.55 32.544 32.142 32.666z" fill="#fff"/></svg>