<svg width="122" height="123" fill="none" xmlns="http://www.w3.org/2000/svg"><mask id="a" style="mask-type:alpha" maskUnits="userSpaceOnUse" x="0" y="0" width="122" height="123"><circle cx="61" cy="61.111" r="61" fill="#EC5188"/></mask><g mask="url(#a)"><path fill="#EC5188" d="M-9.854-17.443h144.941v151.842H-9.854z"/></g><path d="M67.126 37.708L61 24.111l-6.126 13.597-14.524 1.763 10.738 10.166-2.85 14.687L61 57.01l12.762 7.314-2.85-14.687L81.65 39.471l-14.524-1.763z" fill="#fff"/><path d="M38 75.03l23-12.156L84 75.03v7.48L61 70.354 38 82.51v-7.48z" fill="#fff"/><path d="M38 88.63l23-12.155 23 12.156v7.48L61 83.955 38 96.112v-7.48z" fill="#fff"/></svg>