<svg width="122" height="123" fill="none" xmlns="http://www.w3.org/2000/svg"><mask id="a" style="mask-type:alpha" maskUnits="userSpaceOnUse" x="0" y="0" width="122" height="123"><circle cx="61" cy="61.111" r="61" fill="#B289E6"/></mask><g mask="url(#a)"><path fill="#B289E6" d="M-9.854-17.443h144.941v151.842H-9.854z"/></g><g style="mix-blend-mode:screen" stroke="#fff"><path d="M61 25.111a.967.967 0 00-1-.977c-11.617.523-20.875 10.106-20.875 21.852v7.438H61V25.11z" stroke-width="5"/><path d="M61 25.111a.967.967 0 011-.977c11.617.523 20.875 10.106 20.875 21.852v7.438H61V25.11zM39.125 53.425v18.812c0 12.082 9.794 21.875 21.875 21.875s21.875-9.793 21.875-21.875V53.425h-43.75z" stroke-width="5"/><ellipse cx="61" cy="38.611" rx="5" ry="6.5" fill="#000" stroke-width="4"/></g></svg>