<svg width="148" height="29" fill="none" xmlns="http://www.w3.org/2000/svg"><path d="M5.573.314h5.435l5.572 28.302h-4.712l-1.101-6.534h-4.85L4.78 28.616H0L5.573.314zm4.643 18.484L8.324 6.918l-1.891 11.88h3.783zM19.382.314h6.708c2.935 0 5.125.571 6.57 1.713 1.445 1.118 2.167 3.05 2.167 5.8 0 1.793-.263 3.26-.79 4.402-.505 1.118-1.388 1.933-2.65 2.446l3.888 13.94h-5.091l-3.337-12.962h-2.408v12.963h-5.057V.314zm6.674 12.125c1.444 0 2.465-.338 3.061-1.014.62-.675.929-1.782.929-3.319 0-1.49-.275-2.574-.826-3.25-.527-.675-1.49-1.013-2.89-1.013h-1.89v8.596h1.617zM45.513 29c-2.637 0-4.54-.827-5.71-2.48-1.147-1.678-1.72-4.089-1.72-7.233V9.783c0-3.238.596-5.672 1.789-7.302C41.064.827 43.117 0 46.029 0c2.752 0 4.724.699 5.916 2.096 1.193 1.375 1.79 3.424 1.79 6.15v1.467h-4.851V8.106c0-1.025-.069-1.84-.206-2.446-.115-.605-.379-1.071-.792-1.397-.39-.326-.986-.49-1.788-.49-.849 0-1.48.21-1.892.63-.413.419-.688.954-.826 1.607-.114.652-.172 1.502-.172 2.55v11.845c0 1.607.207 2.807.62 3.599.435.792 1.238 1.188 2.407 1.188 1.147 0 1.938-.42 2.374-1.258.459-.839.688-2.097.688-3.774v-2.655h-2.993v-3.25h7.568v14.36h-3.303l-.343-2.76C49.354 27.952 47.783 29 45.513 29zM57.745.314H69.44v3.634h-6.639v8.141h5.23v3.599H62.8v9.399h6.708v3.529H57.745V.314zm14.713 0h3.543l6.777 16.143V.314h4.197v28.302h-3.371l-6.811-16.911v16.91h-4.335V.316zM93.99 4.123h-4.438V.314h13.862v3.809H99.08v24.493h-5.09V4.123zM106.088.314h5.022v28.302h-5.022V.314zM122.922 29c-2.889 0-4.942-.815-6.157-2.446-1.193-1.654-1.789-3.983-1.789-6.988V9.47c0-3.098.596-5.45 1.789-7.058C117.957.804 120.01 0 122.922 0c2.729 0 4.667.699 5.813 2.096 1.147 1.398 1.72 3.413 1.72 6.045v2.376h-4.884V8.07c0-1.002-.046-1.782-.138-2.34-.092-.583-.332-1.05-.722-1.398-.367-.373-.952-.56-1.755-.56-.825 0-1.444.198-1.857.594-.413.373-.688.886-.826 1.538-.114.629-.172 1.456-.172 2.48V20.65c0 1.608.207 2.772.62 3.494.412.7 1.158 1.049 2.235 1.049.78 0 1.353-.187 1.72-.56.39-.372.631-.861.723-1.467.114-.629.172-1.456.172-2.48v-2.551h4.884v2.27c0 2.726-.561 4.846-1.685 6.36-1.124 1.49-3.073 2.236-5.848 2.236zm18.095 0c-2.522 0-4.414-.722-5.676-2.166-1.238-1.444-1.915-3.6-2.029-6.464l4.368-.874c.069 1.794.344 3.168.826 4.123.504.932 1.284 1.398 2.339 1.398.78 0 1.353-.233 1.72-.699.39-.49.585-1.141.585-1.957 0-1.118-.252-2.061-.757-2.83-.482-.792-1.25-1.653-2.305-2.585l-3.508-3.11c-1.078-.932-1.892-1.933-2.443-3.005-.527-1.071-.791-2.352-.791-3.843 0-2.213.631-3.925 1.892-5.136C136.522.617 138.288 0 140.535 0c2.408 0 4.128.699 5.16 2.096 1.055 1.375 1.663 3.238 1.823 5.59l-4.368.77c-.069-1.538-.287-2.69-.654-3.46-.344-.792-1.032-1.188-2.064-1.188-.734 0-1.307.257-1.72.77-.412.488-.619 1.117-.619 1.886 0 .908.172 1.677.516 2.306.367.606.952 1.258 1.754 1.957l3.475 3.11c1.307 1.14 2.327 2.363 3.061 3.668.734 1.304 1.101 2.818 1.101 4.542 0 1.351-.298 2.55-.894 3.599a6.308 6.308 0 01-2.443 2.48c-1.055.583-2.27.874-3.646.874z" fill="#fff"/></svg>