<svg width="48" height="47" fill="none" xmlns="http://www.w3.org/2000/svg"><path fill-rule="evenodd" clip-rule="evenodd" d="M34.389 12.646c.567 1.802-1.038 3.384-2.916 3.59-3.834.42-7.557 2.1-10.497 5.04a17.496 17.496 0 00-5.04 10.498c-.207 1.878-1.789 3.483-3.591 2.916a17.494 17.494 0 01-7.139-4.336c-6.86-6.861-6.86-17.986 0-24.847 6.862-6.861 17.986-6.861 24.847 0a17.493 17.493 0 014.336 7.139zm-14.356-1.998a2.84 2.84 0 104.017-4.016 2.84 2.84 0 00-4.017 4.016zM6.335 24.346a2.84 2.84 0 104.017-4.016 2.84 2.84 0 00-4.017 4.016zm2.537-11.16a2.84 2.84 0 104.016-4.017 2.84 2.84 0 00-4.016 4.016zm27.45 17.016a195.168 195.168 0 004.214-4.081c5.391-5.392 7.935-10.681 6.912-11.981-1.3-1.023-6.59 1.52-11.98 6.912a195.417 195.417 0 00-4.082 4.214l4.936 4.936zm-2.137 1.91c-.539.488-1.16 1.06-1.767 1.617-1.037.953-2.03 1.865-2.482 2.252l-4.33-4.33c.388-.451 1.3-1.444 2.253-2.481.557-.607 1.128-1.229 1.617-1.767l4.709 4.709zm-10.569 1.42l4.493 4.493c.069 3.71-3.295 7.212-6.843 7.81-2.838.48-5.699.139-6.774-.092.699-.56 2.166-2.138 2.442-3.963.09-.592.095-1.16.1-1.712.014-1.572.026-3.015 1.997-4.532 2.064-1.587 4.24-1.947 4.57-2.002l.015-.002z" fill="#5AB880"/></svg>