<svg width="43" height="34" fill="none" xmlns="http://www.w3.org/2000/svg"><path fill-rule="evenodd" clip-rule="evenodd" d="M.817 31.24V9.914h41.772v21.324a2.673 2.673 0 01-2.673 2.673H3.49a2.673 2.673 0 01-2.673-2.673zM4.48 13.821h14.11v16.184H4.48V13.822zm17.137 0h17.307v7.058H21.618v-7.058zm17.307 9.51h-7.12v6.674h7.12v-6.674zm-10.188 6.674v-6.674h-7.12v6.674h7.12zM.817 3.196A2.673 2.673 0 013.49.523h36.426a2.673 2.673 0 012.673 2.673v3.155H.817V3.196zM4.389 5.22a1.782 1.782 0 100-3.564 1.782 1.782 0 000 3.564zm6.466-1.782a1.782 1.782 0 11-3.564 0 1.782 1.782 0 013.564 0zm2.903 1.782a1.782 1.782 0 100-3.564 1.782 1.782 0 000 3.564z" fill="#B289E5"/></svg>