<svg width="45" height="45" fill="none" xmlns="http://www.w3.org/2000/svg"><path fill-rule="evenodd" clip-rule="evenodd" d="M23.413.053l-1.19-.016-1.15.016c-.785.01-1.474.52-1.727 1.262-.339.99-.754 2.155-1.02 2.778-.133.314-.364.72-.63 1.133a17.483 17.483 0 00-4.252 1.762 8.175 8.175 0 01-1.25-.355C11.567 6.38 10.45 5.85 9.51 5.39a1.857 1.857 0 00-2.113.329l-.824.802-.014.014-.015.014-.802.825a1.857 1.857 0 00-.328 2.113c.46.94.99 2.057 1.244 2.685.128.318.251.769.355 1.251a17.48 17.48 0 00-1.76 4.248c-.414.268-.82.5-1.135.633-.623.265-1.788.68-2.778 1.019A1.857 1.857 0 00.078 21.05l-.016 1.19.016 1.15c.01.784.52 1.473 1.262 1.727.99.338 2.155.753 2.778 1.019.315.133.721.365 1.135.633a17.48 17.48 0 001.76 4.246 8.188 8.188 0 01-.355 1.252c-.253.628-.783 1.746-1.244 2.685a1.857 1.857 0 00.329 2.114l.802.824.014.014.014.014.825.802a1.859 1.859 0 002.113.33c.94-.462 2.056-.992 2.685-1.245.318-.128.77-.252 1.253-.356a17.475 17.475 0 004.245 1.76c.268.414.5.82.634 1.136.265.623.68 1.788 1.019 2.778a1.857 1.857 0 001.726 1.262l1.19.016 1.15-.016a1.857 1.857 0 001.727-1.262c.339-.99.754-2.155 1.02-2.778.133-.315.365-.722.633-1.136a17.483 17.483 0 004.245-1.76c.483.104.935.228 1.253.356.628.253 1.745.783 2.685 1.244a1.857 1.857 0 002.113-.329l.824-.802.029-.028.802-.824c.547-.562.674-1.41.329-2.114-.461-.94-.991-2.056-1.244-2.685a8.173 8.173 0 01-.356-1.251 17.479 17.479 0 001.762-4.248c.413-.267.82-.499 1.133-.632.624-.266 1.789-.68 2.78-1.02a1.857 1.857 0 001.26-1.726l.017-1.19-.016-1.15a1.857 1.857 0 00-1.262-1.727c-.99-.339-2.155-.754-2.779-1.02a8.156 8.156 0 01-1.132-.63 17.48 17.48 0 00-1.762-4.251 8.18 8.18 0 01.355-1.25c.253-.628.783-1.746 1.244-2.685a1.857 1.857 0 00-.329-2.113l-.802-.825-.014-.014-.014-.014-.825-.802a1.857 1.857 0 00-2.113-.33c-.94.462-2.057.992-2.685 1.245a8.17 8.17 0 01-1.25.355 17.48 17.48 0 00-4.25-1.762 8.163 8.163 0 01-.632-1.133c-.265-.623-.68-1.788-1.019-2.778A1.857 1.857 0 0023.413.053zm-1.17 34.724c6.936 0 12.558-5.623 12.558-12.56 0-6.935-5.622-12.558-12.559-12.558-6.936 0-12.559 5.623-12.559 12.559 0 6.936 5.623 12.559 12.56 12.559z" fill="#39AEBE"/><path d="M29.253 23.18a1.11 1.11 0 000-1.923l-9.683-5.59a1.11 1.11 0 00-1.665.961v11.181a1.11 1.11 0 001.665.962l9.683-5.59z" fill="#39AEBE"/></svg>