<svg width="56" height="29" fill="none" xmlns="http://www.w3.org/2000/svg"><path fill-rule="evenodd" clip-rule="evenodd" d="M14.747.445C7.054.445.817 6.682.817 14.375c0 7.694 6.237 13.93 13.93 13.93H41.76c7.694 0 13.93-6.236 13.93-13.93 0-7.693-6.236-13.93-13.93-13.93H14.747zM41.55 11.806a2.533 2.533 0 100-5.065 2.533 2.533 0 000 5.065zM12.742 8.958a2.18 2.18 0 014.361 0v3.237h3.237a2.18 2.18 0 010 4.362h-3.237v3.236a2.18 2.18 0 01-4.361 0v-3.236H9.505a2.18 2.18 0 010-4.362h3.237V8.958zm31.34 10.517a2.533 2.533 0 11-5.064 0 2.533 2.533 0 015.065 0zm.037-5.1a2.533 2.533 0 105.065 0 2.533 2.533 0 00-5.065 0zm-7.67 2.532a2.533 2.533 0 110-5.065 2.533 2.533 0 010 5.065z" fill="#FF6062"/></svg>