<svg xmlns="http://www.w3.org/2000/svg" xmlns:xlink="http://www.w3.org/1999/xlink"><defs>
<linearGradient id="paint0_linear_2055_1957" x1="90.879" y1="28.7944" x2="90.879" y2="231.292" gradientUnits="userSpaceOnUse">
<stop stop-color="#E86355"/>
<stop offset="0.838542" stop-color="#FFA88C"/>
</linearGradient>
<linearGradient id="paint1_linear_2055_1957" x1="84.6414" y1="247.728" x2="252.381" y2="297.597" gradientUnits="userSpaceOnUse">
<stop stop-color="#FFA88C"/>
<stop offset="1" stop-color="#FFA88C" stop-opacity="0.35"/>
</linearGradient>

<linearGradient id="paint0_linear_2055_1949" x1="54.9496" y1="125.256" x2="54.3062" y2="250.113" gradientUnits="userSpaceOnUse">
<stop offset="0.28125" stop-color="#FFA88C"/>
<stop offset="1" stop-color="#FFA88C" stop-opacity="0.85"/>
</linearGradient>

<linearGradient id="paint0_linear_2055_1940" x1="76.3517" y1="23.945" x2="72.7037" y2="95.8666" gradientUnits="userSpaceOnUse">
<stop stop-color="#F58F7B"/>
<stop offset="1" stop-color="#F17264"/>
</linearGradient>
<linearGradient id="paint1_linear_2055_1940" x1="62.7137" y1="99.8354" x2="71.6481" y2="207.752" gradientUnits="userSpaceOnUse">
<stop offset="0.260417" stop-color="#F58F7B"/>
<stop offset="1" stop-color="#F58F7B" stop-opacity="0.85"/>
</linearGradient>

<linearGradient id="paint0_linear_2055_1931" x1="159.02" y1="-9.31701" x2="135.26" y2="130.584" gradientUnits="userSpaceOnUse">
<stop stop-color="white"/>
<stop offset="1" stop-color="white" stop-opacity="0"/>
</linearGradient>
<linearGradient id="paint1_linear_2055_1931" x1="49.8697" y1="171.395" x2="73.9367" y2="163.064" gradientUnits="userSpaceOnUse">
<stop stop-color="#F17264"/>
<stop offset="1" stop-color="#F58F7B"/>
</linearGradient>
<linearGradient id="paint2_linear_2055_1931" x1="39.0439" y1="116.099" x2="39.0439" y2="296.324" gradientUnits="userSpaceOnUse">
<stop offset="0.578125" stop-color="#F58F7B"/>
<stop offset="1" stop-color="#F58F7B" stop-opacity="0.85"/>
</linearGradient>
<linearGradient id="paint3_linear_2055_1931" x1="156.852" y1="154.402" x2="70.8122" y2="160.005" gradientUnits="userSpaceOnUse">
<stop stop-color="#541642"/>
<stop offset="1" stop-color="#851464"/>
</linearGradient>
</defs><symbol id="airbus" viewBox="0 0 138 103">
<path d="M20.0149 71.655L33.7887 40.4126L129.967 33.7436L20.0149 71.655Z" fill="#AAA8D8"/>
<path d="M43.5439 56.4301L96.3278 49.0534L50.8012 62.264L20.0108 71.6546L43.5439 56.4301Z" fill="#3B387B"/>
<path d="M43.5407 56.4338L129.966 33.7411L65.0602 88.2346C60.6838 91.909 53.9774 89.9426 52.2781 84.4867L43.5407 56.4338Z" fill="#DADBFF"/>
<path d="M9.13529 24.7164L32.6096 43.4765L129.966 33.7417L11.3685 19.3946C8.36885 19.0317 6.77493 22.8301 9.13529 24.7164Z" fill="#DBDAFE"/>
</symbol><symbol id="arrow-bottom" viewBox="0 0 24 25">
<rect y="0.111328" width="24" height="24" rx="3" fill="#4AC882"/>
<path d="M8.99997 9.11133L7 11.1111L12 16.1113L17 11.1111L15 9.11133L12 12.111L8.99997 9.11133Z" fill="white"/>
</symbol><symbol id="arrow-left" viewBox="0 0 12 16">
<path d="M10 1.54395L3 8.04395L10 14.5439" stroke-width="3"/>
</symbol><symbol id="arrow-right" viewBox="0 0 12 16">
<path d="M2 1.54395L9 8.04395L2 14.5439" stroke-width="3"/>
</symbol><symbol id="career" viewBox="0 0 73 70">
<path d="M22.1241 7.88293C27.0065 4.96138 32.7178 3.28223 38.8213 3.28223C56.8062 3.28223 71.3858 17.8618 71.3858 35.8467C71.3858 53.8316 56.8062 68.4112 38.8213 68.4112C20.8364 68.4112 6.25684 53.8316 6.25684 35.8467C6.25684 30.2992 7.64399 25.0757 10.0904 20.5041" stroke="#1FADED" stroke-width="3"/>
<path d="M5.43822 16.6488C3.67314 17.3793 3.839 19.9321 5.68376 20.4281L8.90722 21.2949C9.33125 21.4089 9.72508 21.6146 10.0609 21.8974L12.6139 24.0478C14.075 25.2785 16.2648 23.9562 15.856 22.0901L14.4081 15.4813C14.1416 14.2648 12.8402 13.5851 11.6895 14.0613L5.43822 16.6488Z" fill="#1FADED"/>
<path d="M37.802 19.746L34.6756 34.9947C34.4246 36.2189 34.7603 37.4902 35.5829 38.431L44.0081 48.0667C45.5629 49.8449 48.3744 47.9318 47.2909 45.8328L42.197 35.9642C41.9037 35.3961 41.7509 34.766 41.7514 34.1267L41.7612 20.1491C41.7629 17.7385 38.2861 17.3845 37.802 19.746Z" fill="#1FADED"/>
</symbol><symbol id="career2" viewBox="0 0 69 69">
<rect x="45.4639" y="22.418" width="21.57" height="44.3435" stroke="#E3B457" stroke-width="3"/>
<rect width="32.6373" height="21.6508" transform="matrix(-1 0 0 1 45.4639 45.1113)" stroke="#E3B457" stroke-width="3"/>
<path d="M12.9068 66.762H2.0003V1.64844H35.1982V34.2052V45.4314" stroke="#E3B457" stroke-width="3"/>
<path d="M35.1982 28.0505V14.2981L45.583 7.42188L55.9678 14.2981V22.1768" stroke="#E3B457" stroke-width="3"/>
<rect x="21.4873" y="53.6914" width="4.89108" height="4.89108" fill="#E3B457"/>
<rect x="32.3525" y="53.6914" width="4.89108" height="4.89108" fill="#E3B457"/>
<rect x="54.2041" y="30.918" width="11.9872" height="4.89108" fill="#E3B457"/>
<rect x="54.2041" y="42.3047" width="11.9872" height="4.89108" fill="#E3B457"/>
<rect x="54.2041" y="53.6914" width="11.9872" height="4.89108" fill="#E3B457"/>
<rect x="10.501" y="10.2285" width="4.89108" height="4.89108" fill="#E3B457"/>
<rect x="21.3662" y="10.2285" width="4.89108" height="4.89108" fill="#E3B457"/>
<rect x="10.501" y="21.1348" width="4.89108" height="4.89108" fill="#E3B457"/>
<rect x="10.501" y="32.041" width="4.89108" height="4.89108" fill="#E3B457"/>
<rect x="21.3662" y="21.1348" width="4.89108" height="4.89108" fill="#E3B457"/>
<rect x="21.3662" y="32.041" width="4.89108" height="4.89108" fill="#E3B457"/>
</symbol><symbol id="career3" viewBox="0 0 82 73">
<path d="M15.2852 70.882L63.248 44.6262C64.0729 43.9211 65.6587 41.9524 65.4033 39.7178C65.1479 37.4832 63.8338 36.9244 63.2086 36.9243" stroke="#4AC882" stroke-width="3"/>
<path d="M80.4069 53.1646L63.6491 44.7056M67.6386 70.8818L41.1426 56.8357" stroke="#4AC882" stroke-width="3"/>
<path d="M1 49.893L13.7283 43.2295" stroke="#4AC882" stroke-width="3"/>
<path d="M27.6957 40.1966C21.3098 39.757 17.2796 37.6022 14.7257 36.2056C11.3413 38.8875 12.293 42.1911 13.8891 43.907C17.7584 45.7026 23.3188 45.5705 25.6997 45.065C28.1258 43.5966 28.0413 41.2076 27.6957 40.1966Z" stroke="#4AC882" stroke-width="3"/>
<path d="M40.5029 18.2878L55.8267 13.101C57.2767 12.9814 60.0233 12.7664 61.1726 15.2564C62.3218 17.7463 60.6405 20.2164 59.4168 20.9214L50.3986 24.5926" stroke="#4AC882" stroke-width="3"/>
<path d="M55.1875 31.5366L61.4529 28.5838C62.1312 27.3334 63.0091 22.8369 59.1784 21.2417" stroke="#4AC882" stroke-width="3"/>
<path d="M58.7402 39.1592L63.3691 36.8838C64.4063 35.1947 65.4751 31.1702 61.4529 28.5845" stroke="#4AC882" stroke-width="3"/>
<path d="M44.3347 15.8937V12.1162C41.1028 13.0816 34.192 13.4009 32.4043 6.95481L48.2155 3.11394C49.69 2.75574 51.1998 3.55498 51.7326 4.97577L54.8693 13.3399" stroke="#4AC882" stroke-width="3"/>
<path d="M23.665 13.6996L27.5368 3.82868C28.0608 2.49298 29.4571 1.71523 30.8685 1.97294L43.2977 4.24232" stroke="#4AC882" stroke-width="3"/>
<path d="M31.805 25.3915L15.6038 19.4872C14.0075 14.3167 17.7586 12.2245 19.8337 11.8247L34.0394 17.571C36.5294 21.9764 33.5873 24.6203 31.805 25.3915Z" stroke="#4AC882" stroke-width="3"/>
<path d="M31.7254 25.311L15.6844 19.5649C11.6305 23.1077 13.2503 26.4153 14.567 27.6263C20.0258 30.2759 27.8549 32.295 31.0871 32.9734C34.439 30.4834 32.9093 26.8277 31.7254 25.311Z" stroke="#4AC882" stroke-width="3"/>
<path d="M31.0477 33.0142C24.6636 31.7379 17.454 28.9433 14.6473 27.7056C12.3856 29.4936 12.1711 32.1636 12.4334 33.8671C12.5292 34.4895 12.9237 35.0134 13.4449 35.367C19.3336 39.361 25.3948 40.2596 27.775 40.1959C32.6273 37.8975 31.9786 34.4504 31.0477 33.0142Z" stroke="#4AC882" stroke-width="3"/>
</symbol><symbol id="career4" viewBox="0 0 84 70">
<path d="M0 37.207H24.2414C24.5998 37.207 24.9308 37.0152 25.109 36.7042L28.2615 31.2025C28.6746 30.4815 29.7358 30.5497 30.0532 31.3176L36.5023 46.9164C36.8883 47.8502 38.2578 47.6876 38.4143 46.6893L41.9355 24.2354C42.0975 23.2022 43.5365 23.0796 43.8709 24.0706L49.1581 39.739C49.4175 40.5079 50.4364 40.6639 50.914 40.0079L55.3595 33.9024C55.7762 33.3301 56.6392 33.3601 57.0152 33.9599L58.7568 36.7382C58.9397 37.0299 59.2598 37.207 59.6041 37.207H84" stroke="#F04647" stroke-width="3"/>
<path d="M5.48318 14.1783C15.8999 -5.98396 34.7626 3.56475 41.0437 12.1482C41.5017 12.774 42.4995 12.7749 42.9617 12.1523C49.3342 3.56786 69.0441 -5.98631 78.5168 14.1783C88.0999 35.4956 48.332 63.8553 42.5361 67.8416C42.2004 68.0725 41.7996 68.0725 41.4639 67.8416C35.668 63.8553 -4.09985 35.4956 5.48318 14.1783Z" stroke="#F04647" stroke-width="3"/>
</symbol><symbol id="career5" viewBox="0 0 224 246">
<path d="M81.2416 143.834C88.3185 168.897 75.5747 191.813 71.419 204.28L41.1956 231.292L21.3623 212.402L43.652 169.523L46.1085 118.71C49.5085 103.157 57.442 69.6344 61.9756 59.9629C66.5091 50.2914 90.4976 33.2018 99.9424 28.7944C111.843 31.6904 112.219 44.2867 139.422 43.9075C150.943 43.7469 160.2 49.9522 160.389 53.919C160.578 57.8858 156.596 63.2373 147.734 60.9071C140.555 59.0192 129.095 58.8931 122.043 59.5859C116.376 66.0084 107.498 70.9188 99.1868 69.7855C92.5376 68.8788 86.091 69.3445 83.5093 70.1633C53.6628 83.7646 72.1746 111.721 81.2416 143.834Z" fill="url(#paint0_linear_2055_1957)"/>
<path d="M224.001 102.655V245.46C211.004 242.739 186.771 213.095 181.734 207.681C150.755 239.038 134.888 243.949 104.664 244.327C80.5673 244.628 49.129 240.55 23.0614 241.683C-3.00634 242.817 34.3936 144.213 45.3496 137.413C54.1144 131.972 27.9724 221.66 55.5513 185.392C83.1302 149.124 122.421 146.856 138.666 148.368C154.911 149.879 158.54 130.551 177.956 111.723C190.423 99.6337 208.398 97.1658 224.001 102.655Z" fill="url(#paint1_linear_2055_1957)"/>
<path d="M55.5497 117.387C55.2472 101.368 53.6604 83.0091 67.64 62.23C68.962 64.8118 74.0616 68.653 83.8842 63.3639C93.7068 58.0748 98.807 41.0112 100.129 33.1405C103.605 39.4874 106.992 36.4147 108.252 34.085C105.834 39.9785 106.363 45.8595 106.93 48.0633C101.64 40.8852 98.0514 45.9854 98.807 49.5744C99.5626 53.1635 102.396 57.8859 110.519 57.8859C117.017 57.8859 119.083 53.0687 119.776 50.4242C122.42 56.5633 132.054 55.0522 133.282 48.063C134.541 50.0149 139.61 50.8964 142.254 49.5742C146.599 47.4019 145.749 44.1906 146.316 40.7905C150.377 42.585 158.027 39.846 156.232 29.7403C154.741 21.3525 139.893 8.29982 131.771 2.44403C125.273 -2.2406 122.42 1.02668 119.303 2.82272C113.448 3.95608 110.803 5.27797 108.159 7.73362C83.9798 12.116 61.9093 32.0061 53.6608 41.0734C48.2458 47.4959 33.1844 71.2968 16.2593 115.121C-4.89708 169.901 8.70376 194.458 6.43701 202.014C4.17025 209.57 -9.61885 235.637 17.5822 240.926C39.3431 245.158 38.4243 225.563 36.661 214.481C78.2182 180.48 55.9278 137.411 55.5497 117.387Z" fill="#FFA88C"/>

</symbol><symbol id="career6" viewBox="0 0 112 286">
<path d="M27.4951 137.438L32.408 154.865L72.3744 164.02L81.5543 151.123C71.5456 134.498 41.269 135.115 27.4951 137.438Z" fill="#DF934C"/>
<path d="M33.7105 125.146L29.341 249.985L79.2873 247.169L71.315 131.103L33.7105 125.146Z" fill="url(#paint0_linear_2055_1949)"/>
<path d="M99.2177 46.3718C96.5891 52.8016 84.1344 61.8544 78.643 66.9663L76.3381 88.2884C81.1413 87.5196 90.6999 76.2463 96.6997 71.0002C104.2 64.4426 108.215 54.138 110.145 45.0686C112.075 35.9992 110.839 30.5852 106.278 30.8871C101.716 31.189 102.503 38.3346 99.2177 46.3718Z" fill="#F58F7B"/>
<path d="M85.1318 28.1989C86.2942 35.9956 82.7509 47.9864 80.8339 53.0071L78.2917 74.5331C81.8173 71.7171 89.4228 65.1935 91.6398 61.6273C94.4111 57.1696 97.8461 47.5146 97.9076 40.9919C97.969 34.4692 95.0561 18.9644 94.198 14.5325C93.34 10.1006 91.2196 7.54698 87.3567 10.0899C83.4937 12.6328 83.6788 18.453 85.1318 28.1989Z" fill="#F58F7B"/>
<path d="M15.3149 44.3708C13.6447 45.8751 11.9519 49.9218 11.3143 51.7572C10.6291 53.3488 8.63691 58.0547 6.15023 64.1452C3.04187 71.7584 5.39218 82.187 9.40497 95.4143C13.4178 108.642 19.3256 116.724 26.3811 123.6C32.0254 129.101 36.381 132.954 38.6529 155.312L66.9078 143.971C69.6524 136.399 76.436 117.924 81.6137 104.596C88.0858 87.9367 88.1105 74.0678 88.0575 64.6628C88.0045 55.2578 87.0223 38.8813 83.517 33.2745C80.0117 27.6677 75.1202 20.9027 71.7181 13.3124C68.316 5.72205 66.1126 2.89586 62.2882 3.4201C58.4639 3.94433 55.9883 6.34715 57.14 12.0123C58.2917 17.6774 61.6958 28.7032 67.1189 35.6755C71.4575 41.2533 70.7879 52.2336 69.6166 56.2108C67.8357 51.0553 62.8045 38.6695 59.2806 36.8949C56.0195 35.2527 44.7574 31.635 38.3463 29.6631C37.4336 29.3823 36.4461 29.5584 35.6817 30.1308L22.2224 40.2091C20.9642 47.0145 26.1561 48.008 30.1701 47.3128C33.3814 46.7566 37.7066 43.7878 39.4678 42.3729L51.0501 49.1233C52.7716 55.4208 55.1091 69.8024 50.687 76.9495C46.2649 84.0965 33.8452 83.2453 28.1881 81.9263C20.353 72.6588 20.7075 62.3709 23.3312 53.6476C25.9549 44.9244 17.4026 42.4904 15.3149 44.3708Z" fill="#FFA88C"/>
<path d="M81.6089 151.151C49.7814 153.263 32.236 142.886 27.4416 137.434L24.9264 156.914C41.2592 172.18 67.3824 172.838 78.4025 171.258L81.6089 151.151Z" fill="#FFD542"/>
<path d="M93.9152 285.071H14.2812C22.5408 261.031 19.0937 249.341 21.6009 239.737C24.7923 227.511 32.3296 233.863 46.1675 234.522C57.3225 235.053 70.0764 231.202 77.3401 227.888C78.3162 227.443 79.5225 227.776 80.2856 228.53C83.7539 231.958 91.8874 237.253 88.1301 245.856C82.089 259.686 94.558 276.107 93.9152 285.071Z" fill="#1F8AED"/>

</symbol><symbol id="career7" viewBox="0 0 122 275">
<path d="M18.8074 62.1739C27.277 65.9597 35.6313 73.3049 38.6928 78.1358C37.7022 58.503 35.6671 38.647 34.3633 27.8458C33.0596 17.0446 31.7021 1.83383 38.8771 1.64835C45.84 1.46836 47.3951 6.34258 49.4895 17.529C51.2622 26.9975 53.1791 46.2744 54.9089 54.974C66.6615 51.784 85.735 53.8324 94.5296 55.5648C104.446 25.6827 112.553 17.0794 118.566 19.9472C124.579 22.8151 115.438 42.7277 111.952 51.8503C108.465 60.9728 103.747 92.9299 100.709 107.255C97.6706 121.58 87.8253 128.875 61.8274 127.443C39.3075 126.202 25.5223 104.655 22.622 91.308C20.3016 80.6306 7.2729 70.2914 2.15172 68.0261C2.24069 59.5722 8.22039 57.4415 18.8074 62.1739Z" fill="#F58F7B"/>
<path d="M73.7806 52.0152C66.3283 43.3728 57.6112 48.1458 54.1842 51.6126C55.0896 59.7701 55.1359 77.0859 56.4536 82.7401C58.1007 89.8079 59.5806 95.6423 65.906 95.6532C70.9664 95.662 74.1339 91.5672 74.5554 89.5908C76.7896 91.9964 80.2952 95.3879 84.932 94.2836C92.8003 92.4096 91.7299 80.9718 92.8717 66.6161C94.0134 52.2603 91.5852 49.381 85.7246 48.1555C81.0361 47.175 75.8084 50.3201 73.7806 52.0152Z" fill="url(#paint0_linear_2055_1940)"/>
<path d="M36.5575 274.068H104.586C114.598 262.654 109.869 253.034 104.072 241.241L103.983 241.061C99.314 231.561 102.843 214.829 105.19 207.651L42.7978 206.04C44.1396 216.372 45.696 239.531 41.1877 249.513C36.6793 259.496 36.2224 270.043 36.5575 274.068Z" fill="#701556"/>
<path d="M48.2635 204.677L51.3759 100.774L84.7994 103.656L94.6206 205.85L48.2635 204.677Z" fill="url(#paint1_linear_2055_1940)"/>
<path d="M50.2489 241.194C53.5153 224.291 49.0955 185.487 48.5184 184.718C43.2682 198.1 33.4592 225.788 36.2253 229.476C38.9915 233.164 46.7269 238.825 50.2489 241.194Z" fill="#E7E3E0"/>
<path d="M61.289 234.47C58.3383 228.937 49.2412 212.572 45.0615 205.081C80.0236 199.088 90.7317 182.35 91.7155 174.729C96.6943 183.822 107.168 204.542 109.234 214.685C111.815 227.363 85.8146 235.239 77.3322 239.08C68.8497 242.922 64.9773 241.386 61.289 234.47Z" fill="#E7E3E0"/>

</symbol><symbol id="career8" viewBox="0 0 177 391">
<path opacity="0.3" d="M98.869 83.3297C75.1824 107.195 85.2707 144.878 93.3942 157.869L130.953 160.703C109.325 100.6 149.028 83.3782 166.48 60.8065C180.806 42.2788 175.806 31.7964 171.637 20.8841C171.584 35.412 170.109 41.2283 163.655 48.4376C173.836 17.5092 155.722 3.41097 135.308 0.479866C161.436 29.9734 129.073 52.898 98.869 83.3297Z" fill="url(#paint0_linear_2055_1931)"/>
<path d="M52.6081 123.061C62.4184 121.004 72.9131 123.984 75.9459 125.83L80.0999 138.093L80.0925 138.089C75.4082 135.78 65.3384 130.816 56.9566 132.555C46.4739 134.731 53.9898 158.663 57.55 168.157C61.1102 177.651 64.077 187.738 70.8018 189.518C75.0847 190.652 87.1544 189.122 90.7805 189.122L94.934 198.22C89.9893 198.879 77.131 201.188 70.0106 200.397C61.1102 199.408 44.8927 182.595 42.5192 162.42C40.1458 142.246 40.3453 125.632 52.6081 123.061Z" fill="#541642"/>
<path d="M54.9762 137.104C50.7032 137.815 41.0652 144.784 36.7803 148.18C36.3844 149.762 37.4729 174.289 40.9342 180.222C43.7032 184.969 48.9446 190.705 51.2191 192.98C65.3609 188.035 69.9101 178.541 68.6244 174.783C67.5959 171.777 64.8994 171.289 63.6797 171.421C64.6687 169.97 66.4488 166.437 65.6576 163.905C64.8665 161.373 62.2293 159.883 61.0096 159.455C62.1634 158.004 64.2533 154.372 63.3831 151.444C62.5128 148.517 59.9218 147.521 58.7351 147.389C63.5809 139.972 60.3174 136.214 54.9762 137.104Z" fill="url(#paint1_linear_2055_1931)"/>
<path d="M27.2863 214.342C26.8903 219.406 20.7262 266.623 17.6937 289.599L60.0207 296.324C59.9548 278.358 59.823 240.607 59.823 233.328C59.823 224.23 60.6141 222.351 62.0975 219.384C63.5809 216.418 67.5367 208.902 66.1522 200.001C65.0446 192.881 58.3725 190.244 55.1749 189.815C55.3398 187.145 55.2343 180.163 53.4937 173.597C51.7532 167.03 47.626 160.378 45.78 157.872C45.6811 150.06 45.78 140.467 46.6701 134.336C47.5601 128.204 48.8457 117.425 44.7911 116.337C40.7364 115.249 36.484 117.92 34.2094 123.656C32.3898 128.245 30.5504 142.709 29.8581 149.368C27.9459 149.994 22.8359 151.841 17.6934 154.214C11.2653 157.181 10.9694 163.609 12.255 167.268C13.5407 170.927 21.5511 194.167 23.6278 198.914C25.7046 203.661 27.7814 208.012 27.2863 214.342Z" fill="url(#paint2_linear_2055_1931)"/>
<path d="M15.2218 289.007L8.19922 336.773L9.9801 342.114L30.7478 349.63L65.954 346.861C65.031 333.411 63.0861 305.028 62.6905 299.095C62.4517 295.512 62.2853 292.65 62.191 290.945C62.1358 289.946 61.3626 289.14 60.3659 289.059C48.501 288.101 27.8092 287.001 18.5849 286.434C16.5097 286.307 15.5182 287.87 15.2218 289.007Z" fill="#E7E3E0"/>
<path d="M78.9113 390.076H0.191406C9.09152 368.518 1.27957 365.154 0.488421 357.737C-0.1445 351.803 5.30126 341.222 8.10325 336.673C17.2806 346.641 50.232 345.177 65.5606 343.199C66.4506 344.254 68.8043 346.939 71.0986 349.233C73.9666 352.101 74.3621 356.848 73.8677 359.815C73.3732 362.782 71.3953 371.385 75.5489 376.428C78.8717 380.463 79.175 387.208 78.9113 390.076Z" fill="#E7165A"/>
<path d="M27.8828 163.312C28.2789 156.548 29.3992 151.296 29.9099 149.516C27.8824 150.868 23.679 154.411 23.0857 157.774C22.4923 161.136 26.0365 162.867 27.8828 163.312Z" fill="#F17264"/>
<path d="M85.7384 204.565C75.1446 177.028 69.9589 134.981 68.6902 117.399C69.2557 116.097 71.9562 114.067 76.1368 113.067C83.5089 111.303 108.157 107.47 129.753 106.517C145.831 105.807 149.057 107.278 149.681 108.483C155.254 141.295 152.422 184.15 151.489 195.797C150.555 207.445 134.065 209.734 110.097 210.618C90.9224 211.325 85.8685 206.877 85.7384 204.565Z" fill="url(#paint3_linear_2055_1931)"/>

</symbol><symbol id="check" viewBox="0 0 90 91">
<rect opacity="0.5" x="0.5" y="0.611328" width="89" height="89" rx="44.5" stroke="white"/>
<path d="M30 42.3544L41.8254 54.1798L60.8938 35.1113" stroke="#4AC882" stroke-width="8"/>
</symbol><symbol id="close" viewBox="0 0 29 29">
<rect x="0.792236" y="0.282227" width="28" height="28" rx="3" fill="#24304E"/>
<path d="M9.62715 17.3667L12.6507 14.3431L9.56628 11.2586L11.75 9.07491L14.8345 12.1594L17.8767 9.11711L19.9209 11.1613L16.8786 14.2035L19.9996 17.3245L17.8159 19.5082L14.6949 16.3872L11.6713 19.4108L9.62715 17.3667Z" fill="white"/>
</symbol><symbol id="console" viewBox="0 0 48 31">
<g opacity="0.8">
<path d="M13.3306 24.9899C16.9372 21.3447 21.3672 21.0793 23.8499 21.0756C26.3326 21.0793 30.7626 21.3447 34.3691 24.9899C38.5217 29.1869 41.8963 30.2486 43.9848 28.9853C46.715 27.3339 46.2621 19.5958 45.0726 14.1655C43.8546 8.60552 41.0259 3.0853 37.4144 1.77941C34.6943 0.795834 32.4779 1.45249 29.9096 2.21337C28.1474 2.73543 26.2196 3.30656 23.8499 3.4306C21.4802 3.30656 19.5524 2.73543 17.7902 2.21337C15.2219 1.45249 13.0054 0.795834 10.2853 1.77941C6.67388 3.0853 3.84521 8.60552 2.62724 14.1655C1.43767 19.5958 0.984822 27.3339 3.71503 28.9853C5.80351 30.2486 9.17811 29.1869 13.3306 24.9899Z" stroke="white" stroke-width="2"/>
<path fill-rule="evenodd" clip-rule="evenodd" d="M11.3074 9.22622C11.3074 8.19413 12.1451 7.35745 13.1784 7.35745C14.2118 7.35745 15.0494 8.19413 15.0494 9.22622V11.095H16.9204C17.9538 11.095 18.7914 11.9317 18.7914 12.9638C18.7914 13.9959 17.9538 14.8326 16.9204 14.8326H15.0494V16.7013C15.0494 17.7334 14.2118 18.5701 13.1784 18.5701C12.1451 18.5701 11.3074 17.7334 11.3074 16.7013V14.8326H9.43643C8.40311 14.8326 7.56543 13.9959 7.56543 12.9638C7.56543 11.9317 8.40311 11.095 9.43643 11.095H11.3074V9.22622ZM36.0003 8.94374C36.0003 10.0358 35.1139 10.9212 34.0205 10.9212C32.9271 10.9212 32.0408 10.0358 32.0408 8.94374C32.0408 7.85163 32.9271 6.96631 34.0205 6.96631C35.1139 6.96631 36.0003 7.85163 36.0003 8.94374ZM34.0205 19.1785C35.1139 19.1785 36.0003 18.2932 36.0003 17.2011C36.0003 16.109 35.1139 15.2237 34.0205 15.2237C32.9271 15.2237 32.0408 16.109 32.0408 17.2011C32.0408 18.2932 32.9271 19.1785 34.0205 19.1785ZM31.9537 13.0724C31.9537 14.1645 31.0673 15.0499 29.9739 15.0499C28.8805 15.0499 27.9942 14.1645 27.9942 13.0724C27.9942 11.9803 28.8805 11.095 29.9739 11.095C31.0673 11.095 31.9537 11.9803 31.9537 13.0724ZM38.1541 15.0499C39.2475 15.0499 40.1339 14.1645 40.1339 13.0724C40.1339 11.9803 39.2475 11.095 38.1541 11.095C37.0607 11.095 36.1744 11.9803 36.1744 13.0724C36.1744 14.1645 37.0607 15.0499 38.1541 15.0499Z" fill="white"/>
</g>
</symbol><symbol id="desktop" viewBox="0 0 52 47">
<g opacity="0.8">
<rect x="1.6167" y="1.36328" width="48.7579" height="36.9616" rx="5" stroke="white" stroke-width="2"/>
<path d="M1.6167 30.248H50.3746" stroke="white" stroke-width="2"/>
<path d="M14.5923 45.4033L37.3984 45.4033" stroke="white" stroke-width="2" stroke-linecap="round"/>
<circle cx="25.9956" cy="34.1064" r="1" fill="white" stroke="white"/>
<path d="M30.3213 39.1104V40.6832C30.3213 43.2892 32.4338 45.4017 35.0398 45.4017V45.4017" stroke="white" stroke-width="2"/>
<path d="M21.6707 39.1104V40.6832C21.6707 43.2892 19.5581 45.4017 16.9521 45.4017V45.4017" stroke="white" stroke-width="2"/>
</g>
</symbol><symbol id="game" viewBox="0 0 122 123">
<mask id="mask0_2302_344" style="mask-type:alpha" maskUnits="userSpaceOnUse" x="0" y="0" width="122" height="123">
<circle cx="61" cy="61.1113" r="61" fill="#EC5188"/>
</mask>
<g mask="url(#mask0_2302_344)">
<rect x="-9.85449" y="-17.4434" width="144.941" height="151.842" fill="#EC5188"/>
</g>
<path d="M67.1262 37.7083L61 24.1113L54.8738 37.7083L40.3496 39.4708L51.088 49.637L48.2376 64.3244L61 57.0099L73.7624 64.3244L70.912 49.637L81.6504 39.4708L67.1262 37.7083Z" fill="white"/>
<path d="M38 75.0299L61 62.874L84 75.0299V82.5104L61 70.3545L38 82.5104V75.0299Z" fill="white"/>
<path d="M38 88.6308L61 76.475L84 88.6308V96.1113L61 83.9555L38 96.1113V88.6308Z" fill="white"/>
</symbol><symbol id="game2" viewBox="0 0 122 123">
<mask id="mask0_2302_345" style="mask-type:alpha" maskUnits="userSpaceOnUse" x="0" y="0" width="122" height="123">
<circle cx="61" cy="61.1113" r="61" fill="#EBEBEB"/>
</mask>
<g mask="url(#mask0_2302_345)">
<rect x="-9.85449" y="-17.4434" width="144.941" height="151.842" fill="#5C90DE"/>
</g>
<path fill-rule="evenodd" clip-rule="evenodd" d="M60.5 69.5003C56.1863 69.5067 48.4894 69.9678 42.223 76.3013C35.008 83.5936 29.1447 85.4381 25.516 83.2433C20.7723 80.374 21.5591 66.9292 23.626 57.4941C25.7422 47.8337 30.657 38.2424 36.9318 35.9735C41.6579 34.2645 45.509 35.4055 49.9714 36.7275C53.0331 37.6345 56.3827 38.6269 60.5 38.8424C64.6173 38.6269 67.9669 37.6345 71.0286 36.7275C75.4909 35.4055 79.3421 34.2645 84.0682 35.9735C90.343 38.2424 95.2578 47.8337 97.374 57.4941C99.4409 66.9292 100.228 80.374 95.484 83.2433C91.8553 85.4381 85.992 83.5936 78.777 76.3013C72.5106 69.9678 64.8137 69.5067 60.5 69.5003ZM38.2926 47.5317C38.2926 45.7384 39.748 44.2847 41.5434 44.2847C43.3388 44.2847 44.7942 45.7384 44.7942 47.5317V50.7787H48.0451C49.8405 50.7787 51.2959 52.2324 51.2959 54.0256C51.2959 55.8189 49.8405 57.2726 48.0451 57.2726H44.7942V60.5196C44.7942 62.3128 43.3388 63.7665 41.5434 63.7665C39.748 63.7665 38.2926 62.3128 38.2926 60.5196V57.2726H35.0417C33.2463 57.2726 31.7909 55.8189 31.7909 54.0256C31.7909 52.2324 33.2463 50.7787 35.0417 50.7787H38.2926V47.5317ZM81.196 47.0409C81.196 48.9384 79.6559 50.4766 77.7562 50.4766C75.8564 50.4766 74.3163 48.9384 74.3163 47.0409C74.3163 45.1434 75.8564 43.6051 77.7562 43.6051C79.6559 43.6051 81.196 45.1434 81.196 47.0409ZM77.7562 64.8237C79.6559 64.8237 81.196 63.2854 81.196 61.3879C81.196 59.4904 79.6559 57.9522 77.7562 57.9522C75.8564 57.9522 74.3163 59.4904 74.3163 61.3879C74.3163 63.2854 75.8564 64.8237 77.7562 64.8237ZM74.1651 54.2144C74.1651 56.1119 72.6251 57.6501 70.7253 57.6501C68.8255 57.6501 67.2855 56.1119 67.2855 54.2144C67.2855 52.3169 68.8255 50.7787 70.7253 50.7787C72.6251 50.7787 74.1651 52.3169 74.1651 54.2144ZM84.9383 57.6501C86.838 57.6501 88.3781 56.1119 88.3781 54.2144C88.3781 52.3169 86.838 50.7787 84.9383 50.7787C83.0385 50.7787 81.4984 52.3169 81.4984 54.2144C81.4984 56.1119 83.0385 57.6501 84.9383 57.6501Z" fill="white"/>
</symbol><symbol id="game3" viewBox="0 0 122 123">
<mask id="mask0_2302_346" style="mask-type:alpha" maskUnits="userSpaceOnUse" x="0" y="0" width="122" height="123">
<circle cx="61" cy="61.1113" r="61" fill="#B289E6"/>
</mask>
<g mask="url(#mask0_2302_346)">
<rect x="-9.85449" y="-17.4434" width="144.941" height="151.842" fill="#B289E6"/>
</g>
<g style="mix-blend-mode:screen">
<path d="M61 25.1113C61 24.559 60.5513 24.109 59.9996 24.1338C48.3827 24.6567 39.125 34.2404 39.125 45.9863V53.4238H61L61 25.1113Z" stroke="white" stroke-width="5"/>
<path d="M61 25.1113C61 24.559 61.4487 24.109 62.0004 24.1338C73.6173 24.6567 82.875 34.2404 82.875 45.9863V53.4238H61L61 25.1113Z" stroke="white" stroke-width="5"/>
<path d="M39.125 53.4248V72.2373C39.125 84.3185 48.9188 94.1123 61 94.1123C73.0812 94.1123 82.875 84.3185 82.875 72.2373V53.4248H39.125Z" stroke="white" stroke-width="5"/>
<ellipse cx="61" cy="38.6113" rx="5" ry="6.5" fill="black" stroke="white" stroke-width="4"/>
</g>
</symbol><symbol id="game4" viewBox="0 0 123 123">
<mask id="mask0_2302_347" style="mask-type:alpha" maskUnits="userSpaceOnUse" x="0" y="0" width="123" height="123">
<circle cx="61.3389" cy="61.1113" r="61" fill="#EBEBEB"/>
</mask>
<g mask="url(#mask0_2302_347)">
<rect x="-9.51562" y="-17.4434" width="144.941" height="151.842" fill="#39AEBE"/>
</g>
<path d="M44.9263 71.2008C43.4178 71.2008 42.195 69.8875 42.195 68.2674V63.9334H38.1595C36.6511 63.9334 35.4282 62.6201 35.4282 61C35.4282 59.3799 36.6511 58.0666 38.1595 58.0666H42.195V53.7326C42.195 52.1125 43.4178 50.7992 44.9263 50.7992C46.4347 50.7992 47.6576 52.1125 47.6576 53.7326V58.0666H51.693C53.2015 58.0666 54.4244 59.3799 54.4244 61C54.4244 62.6201 53.2015 63.9334 51.693 63.9334H47.6576V68.2674C47.6576 69.8875 46.4347 71.2008 44.9263 71.2008Z" fill="white"/>
<path d="M69.8366 67.1311C69.8366 65.2045 68.3824 63.6427 66.5885 63.6427C64.7947 63.6427 63.3405 65.2045 63.3405 67.1311C63.3405 69.0577 64.7947 70.6195 66.5885 70.6195C68.3824 70.6195 69.8366 69.0577 69.8366 67.1311Z" fill="white"/>
<path d="M81.3031 67.1311C81.3031 65.2045 79.8489 63.6427 78.0551 63.6427C76.2613 63.6427 74.8071 65.2045 74.8071 67.1311C74.8071 69.0577 76.2613 70.6195 78.0551 70.6195C79.8489 70.6195 81.3031 69.0577 81.3031 67.1311Z" fill="white"/>
<path d="M62.7499 51.3806C64.5438 51.3806 65.998 52.9423 65.998 54.8689C65.998 56.7955 64.5438 58.3573 62.7499 58.3573C60.9561 58.3573 59.5019 56.7955 59.5019 54.8689C59.5019 52.9423 60.9561 51.3806 62.7499 51.3806Z" fill="white"/>
<path d="M77.4645 54.8689C77.4645 52.9423 76.0104 51.3806 74.2165 51.3806C72.4227 51.3806 70.9685 52.9423 70.9685 54.8689C70.9685 56.7955 72.4227 58.3573 74.2165 58.3573C76.0104 58.3573 77.4645 56.7955 77.4645 54.8689Z" fill="white"/>
<path fill-rule="evenodd" clip-rule="evenodd" d="M20 79.2347C20 82.9711 22.8203 86 26.2992 86H95.7008C99.1797 86 102 82.9711 102 79.2347V42.7653C102 39.0289 99.1797 36 95.7008 36H26.2992C22.8203 36 20 39.0289 20 42.7653V79.2347ZM30.7284 82.4059H87.5314V39.5941H30.7284V82.4059ZM94.7657 57.1416C96.7498 57.1416 98.3582 58.8691 98.3582 61C98.3582 63.1309 96.7498 64.8584 94.7657 64.8584C92.7816 64.8584 91.1732 63.1309 91.1732 61C91.1732 58.8691 92.7816 57.1416 94.7657 57.1416ZM25.9055 71.9937C25.2535 71.9937 24.7244 71.4255 24.7244 70.7252V55.0803C24.7244 54.38 25.2535 53.8118 25.9055 53.8118C26.5576 53.8118 27.0866 54.38 27.0866 55.0803V70.7252C27.0866 71.4255 26.5576 71.9937 25.9055 71.9937ZM25.9055 52.5433C25.2535 52.5433 24.7244 51.9752 24.7244 51.2748C24.7244 50.5745 25.2535 50.0063 25.9055 50.0063C26.5576 50.0063 27.0866 50.5745 27.0866 51.2748C27.0866 51.9752 26.5576 52.5433 25.9055 52.5433Z" fill="white"/>
</symbol><symbol id="game5" viewBox="0 0 122 123">
<mask id="mask0_2302_348" style="mask-type:alpha" maskUnits="userSpaceOnUse" x="0" y="0" width="122" height="123">
<circle cx="61" cy="61.1113" r="61" fill="#EBEBEB"/>
</mask>
<g mask="url(#mask0_2302_348)">
<rect x="-9.85449" y="-17.4434" width="144.941" height="151.842" fill="#FF6062"/>
</g>
<path d="M35.0042 50.2499C33.807 49.3734 32.9659 48.1025 32.6305 46.667L29 31.1113L44.729 34.7018C46.1813 35.0327 47.4663 35.8654 48.3518 37.0486L59.1011 51.4074L55.4699 56.2974L42.5531 40.6844L37.2984 39.3168L38.6812 44.5151L54.6341 57.4232L51.1701 62.0866L35.0042 50.2499Z" fill="white"/>
<path d="M64.7355 72.0223L69.3828 75.4254L63.0211 80.6222C63.6399 81.9686 64.8058 83.2062 65.9403 84.1643C66.0946 84.2942 66.2482 84.4197 66.3994 84.539C66.5347 84.6463 66.6684 84.7476 66.799 84.8443L67.1543 85.1012C67.5859 85.4049 67.974 85.6497 68.2766 85.8205L73.8086 79.2546L84.0422 92.1113C84.2867 92.1113 84.5342 92.0841 84.7817 92.0343L84.9513 91.998L85.1301 91.9496L85.367 91.8771C85.7459 91.7487 86.1172 91.5794 86.4671 91.389C86.843 91.1835 87.1929 90.9553 87.5015 90.7317C87.9095 90.4355 88.2426 90.1453 88.4672 89.9232C89.2052 89.1948 90.6797 87.2969 90.6797 85.547L77.6812 75.4254L84.3188 69.9551C83.5807 68.6782 81.4966 65.8508 79.0641 64.7568L73.8086 71.0491L71.0941 67.4239L64.7355 72.0223Z" fill="white"/>
<path fill-rule="evenodd" clip-rule="evenodd" d="M78.2695 34.7003C76.8187 35.0327 75.5337 35.8654 74.6482 37.0486L49.1914 71.0491L43.9367 64.7568C42.4034 65.4458 41.0083 66.824 40.0014 68.0692C39.4108 68.799 38.954 69.4836 38.6812 69.9551L45.3195 75.4254L32.3195 85.547C32.3195 85.9807 32.4097 86.4249 32.5571 86.8571C32.6855 87.2319 32.8574 87.5976 33.0499 87.9436C33.2577 88.3154 33.4884 88.6629 33.7153 88.9682C34.0148 89.3701 34.3074 89.7011 34.532 89.9232C35.2693 90.6516 37.1876 92.1113 38.9578 92.1113L49.1914 79.2546L54.7234 85.8205C56.0146 85.0906 58.8727 83.0294 59.9789 80.6222L53.6172 75.4254L87.9951 50.2499C88.3633 49.9809 88.6979 49.6741 88.9944 49.3371C89.6621 48.577 90.1373 47.6613 90.3695 46.667L94 31.1113L78.2695 34.7003ZM84.3188 44.5151L63.0211 61.7481L80.4469 40.6844L85.7016 39.3168L84.3188 44.5151Z" fill="white"/>
</symbol><symbol id="game6" viewBox="0 0 122 123">
<mask id="mask0_2302_349" style="mask-type:alpha" maskUnits="userSpaceOnUse" x="0" y="0" width="122" height="123">
<circle cx="61" cy="61.1113" r="61" fill="#EBEBEB"/>
</mask>
<g mask="url(#mask0_2302_349)">
<rect x="-9.85449" y="-17.4434" width="144.941" height="151.842" fill="#5AB880"/>
</g>
<path fill-rule="evenodd" clip-rule="evenodd" d="M41.5057 23.1113C39.0173 23.1113 37 25.1428 37 27.6486V94.574C37 97.0799 39.0173 99.1113 41.5057 99.1113H70.2299C78.9395 99.1113 86 92.0013 86 83.2307V27.6486C86 25.1428 83.9827 23.1113 81.4943 23.1113H41.5057ZM46.5747 31.6188C45.0194 31.6188 43.7586 32.8884 43.7586 34.4546V53.171C43.7586 54.7372 45.0194 56.0069 46.5747 56.0069H76.4253C77.9806 56.0069 79.2414 54.7372 79.2414 53.171V34.4546C79.2414 32.8884 77.9806 31.6188 76.4253 31.6188H46.5747ZM48.8276 70.186C48.8276 69.5595 49.3319 69.0516 49.954 69.0516H54.4598C55.0819 69.0516 55.5862 69.5595 55.5862 70.186V74.1561H59.5287C60.1509 74.1561 60.6552 74.664 60.6552 75.2904V79.8277C60.6552 80.4542 60.1509 80.9621 59.5287 80.9621H55.5862V84.9322C55.5862 85.5587 55.0819 86.0666 54.4598 86.0666H49.954C49.3319 86.0666 48.8276 85.5587 48.8276 84.9322V80.9621H44.8851C44.2629 80.9621 43.7586 80.4542 43.7586 79.8277V75.2904C43.7586 74.664 44.2629 74.1561 44.8851 74.1561H48.8276V70.186ZM79.2414 72.7382C79.2414 74.7742 77.6023 76.4248 75.5805 76.4248C73.5586 76.4248 71.9195 74.7742 71.9195 72.7382C71.9195 70.7022 73.5586 69.0516 75.5805 69.0516C77.6023 69.0516 79.2414 70.7022 79.2414 72.7382ZM69.3851 86.6337C71.4069 86.6337 73.046 84.9832 73.046 82.9472C73.046 80.9111 71.4069 79.2606 69.3851 79.2606C67.3632 79.2606 65.7241 80.9111 65.7241 82.9472C65.7241 84.9832 67.3632 86.6337 69.3851 86.6337Z" fill="white"/>
</symbol><symbol id="game7" viewBox="0 0 122 123">
<circle cx="61" cy="61.1113" r="61" fill="#374A55"/>
<path d="M79.0359 82.2015L66.2873 61.079L79.0359 39.9565L85.1816 61.079L79.0359 82.2015ZM50.6623 80.1404L34.6443 64.4918H60.1416L72.8902 85.6143L50.6623 80.1404ZM50.6623 41.953L72.8253 36.479L60.0767 57.6016H34.5794L50.6623 41.953ZM83.2203 26.1113L54.2576 33.5172L49.9427 40.7939L41.2479 40.7293L20 61.079L41.2479 81.4288L49.9427 81.3641L54.2576 88.6408L83.2203 96.1113L91 68.3557L86.6195 61.1436L91 53.9309L83.2203 26.1113Z" fill="white"/>
</symbol><symbol id="game8" viewBox="0 0 122 123">
<circle cx="61" cy="61.1113" r="61" fill="#646A6B"/>
<path d="M33.3153 66.4232C33.3153 66.6665 33.3762 66.9098 33.437 67.1531C33.5588 67.0923 33.6197 67.0315 33.6805 66.849C34.2893 65.5716 34.9589 64.355 35.7503 63.1993C37.0896 61.1311 38.6115 59.1846 40.316 57.4205C41.1074 56.5081 42.0205 55.7173 42.9945 55.0482C43.725 54.4399 44.6381 54.0141 45.5513 53.8316C46.7079 53.6491 47.7428 54.1966 47.9254 55.4132C47.9863 55.5957 47.9863 55.839 47.9863 56.0215V73.5402C47.9863 74.4526 47.1949 75.2434 46.2209 75.1826C45.673 75.2434 45.0643 75.1826 44.5164 75.0001C44.4555 74.9392 44.2729 74.9392 44.212 75.0001C44.2424 75.0609 44.2729 75.1065 44.3033 75.1521C44.3338 75.1978 44.3642 75.2434 44.3946 75.3042C44.7599 75.7908 45.186 76.2775 45.6121 76.7033C47.3775 78.4673 49.4473 79.8664 51.7606 80.8396C54.2565 81.9346 56.8741 82.7253 59.5526 83.212C60.2831 83.3336 61.0745 83.4553 61.805 83.5161L67.223 77.7982L72.3365 82.0562C72.4256 82.0562 72.4821 82.0236 72.5538 81.9823C72.58 81.9672 72.6083 81.9509 72.6409 81.9346C73.3105 81.5696 73.9801 81.1438 74.5889 80.6572C77.2065 78.7106 79.5807 76.3991 81.5287 73.7835C83.1115 71.7153 84.5116 69.5255 85.6683 67.1531C85.79 67.0315 85.79 66.9098 85.79 66.7882C85.6682 66.849 85.6074 66.9098 85.5465 66.9707C85.2421 67.2444 84.9377 67.5333 84.6334 67.8223C84.329 68.1112 84.0246 68.4001 83.7202 68.6739C82.5636 69.7688 81.2852 70.6204 79.8851 71.3503C79.0937 71.7761 78.1806 71.9586 77.3283 71.8978C76.7804 71.8978 76.2934 71.7153 75.9282 71.3503C75.7455 71.2287 75.6847 71.107 75.6847 70.9245C75.6847 70.7116 75.6694 70.5139 75.6542 70.3162C75.639 70.1186 75.6238 69.9209 75.6238 69.708L75.6181 69.5366C75.5592 67.7725 75.502 66.0619 75.502 64.2942C75.4412 62.226 75.3803 54.9265 75.4412 53.4058C75.4412 52.3109 75.4412 51.1552 75.502 50.0602C75.502 49.5736 75.6238 49.0261 75.9282 48.6003C76.1412 48.2962 76.3391 47.9921 76.5369 47.6879C76.7348 47.3838 76.9326 47.0796 77.1457 46.7755C78.6676 44.5856 80.3112 42.5175 82.0157 40.5101C82.1375 40.4493 82.1983 40.3276 82.1375 40.206C76.6587 41.3009 71.606 44.0382 67.71 48.0529C67.0403 47.6271 66.3098 47.3838 65.5184 47.2621C64.7271 47.0796 63.9357 47.0796 63.1443 47.1404C63.2052 47.2621 63.266 47.3229 63.3878 47.3838C64.9706 48.6003 65.9446 50.1819 65.9446 52.1892V70.4987C65.9446 70.6812 65.8837 70.8637 65.7011 70.9854C65.3358 71.2287 65.0314 71.472 64.7271 71.7153C63.6922 72.5061 62.5355 73.0535 61.318 73.4185C59.7353 73.8443 58.0308 73.1144 57.3002 71.6545C57.2394 71.472 57.1785 71.2895 57.1785 71.107V48.7828C57.1785 48.6612 57.1785 48.4787 57.1176 48.357C56.935 48.4179 56.8132 48.4787 56.6915 48.5395L56.6306 48.6003C55.9001 48.9653 55.0479 48.6003 54.6826 47.8704C54.5608 47.6271 54.4391 47.3838 54.3782 47.0796C53.8912 45.0723 54.3173 42.9433 55.5349 41.3009C56.448 40.0843 57.5437 39.0502 58.7613 38.2594C58.883 38.1986 58.9439 38.1378 59.0048 38.0161H58.9439C58.8726 38.0161 58.8221 38.037 58.7804 38.0543C58.7508 38.0665 58.7256 38.0769 58.7004 38.0769C56.2654 38.7461 53.8912 39.7193 51.6997 40.9359C48.8994 42.5783 46.2818 44.5856 43.9076 46.8971C42.2031 48.5395 40.4986 50.3035 38.9767 52.1284C37.2113 54.1358 35.8112 56.4473 34.7763 58.8804C33.7414 61.2527 33.2544 63.8076 33.3153 66.4232Z" fill="white"/>
<path fill-rule="evenodd" clip-rule="evenodd" d="M24.0007 60.0358C24.1224 39.7186 40.9849 23.0512 61.6217 23.112C82.3803 23.1728 98.9993 40.631 98.9993 60.3399C99.1211 80.7788 82.4412 98.1761 61.3782 98.1153C40.6806 98.0545 23.8789 81.3871 24.0007 60.0358ZM61.2565 92.9448C79.2148 93.1273 93.8858 78.5889 94.0684 60.6441C94.0684 43.0642 79.6409 27.9175 61.5 27.8567C43.8461 27.9175 29.0533 42.5776 29.1142 60.2791C28.9925 78.0414 43.6635 92.8231 61.2565 92.9448Z" fill="white"/>
</symbol><symbol id="in" viewBox="0 0 25 23">
<path d="M5.40696 0.0597496V3.89975H0.862958V0.0597496H5.40696ZM5.40696 6.33175V22.8438H0.862958V6.33175H5.40696ZM24.537 22.8438H19.929V13.2117C19.929 12.0384 19.737 11.1531 19.353 10.5557C18.969 9.93708 18.2223 9.62775 17.113 9.62775C14.7236 9.62775 13.529 11.0784 13.529 13.9797V22.8438H9.01696V6.33175H13.337V8.63575C14.7023 6.80108 16.5263 5.88375 18.809 5.88375C20.5796 5.88375 21.977 6.39575 23.001 7.41975C24.025 8.44375 24.537 9.90508 24.537 11.8037V22.8438Z"/>
</symbol><symbol id="logo" viewBox="0 0 148 29">
<path d="M5.57259 0.314458H11.0076L16.5802 28.6157H11.8675L10.7668 22.0819H5.91657L4.78142 28.6157H0L5.57259 0.314458ZM10.2164 18.7976L8.32448 6.91807L6.43255 18.7976H10.2164Z" fill="white"/>
<path d="M19.3823 0.314458H26.09C29.0254 0.314458 31.2155 0.885141 32.6602 2.02651C34.1049 3.14458 34.8273 5.07791 34.8273 7.82651C34.8273 9.62008 34.5636 11.0876 34.0361 12.2289C33.5316 13.347 32.6487 14.1622 31.3874 14.6747L35.2745 28.6157H30.1835L26.8468 15.653H24.4389V28.6157H19.3823V0.314458ZM26.0556 12.4386C27.5004 12.4386 28.5209 12.1008 29.1171 11.4253C29.7363 10.7498 30.0459 9.64337 30.0459 8.10603C30.0459 6.61526 29.7707 5.53213 29.2203 4.85663C28.6929 4.18113 27.7297 3.84337 26.3308 3.84337H24.4389V12.4386H26.0556Z" fill="white"/>
<path d="M45.5129 29C42.8757 29 40.9723 28.1731 39.8028 26.5193C38.6561 24.8422 38.0828 22.4313 38.0828 19.2867V9.78313C38.0828 6.54538 38.6791 4.11125 39.8716 2.48072C41.064 0.826908 43.1165 0 46.0289 0C48.7808 0 50.753 0.698795 51.9455 2.09639C53.138 3.47068 53.7342 5.52048 53.7342 8.24578V9.71325H48.884V8.10603C48.884 7.08113 48.8152 6.26586 48.6776 5.66024C48.563 5.05462 48.2992 4.58876 47.8864 4.26265C47.4966 3.93655 46.9003 3.7735 46.0977 3.7735C45.2492 3.7735 44.6186 3.98313 44.2058 4.40241C43.793 4.82169 43.5178 5.35743 43.3802 6.00964C43.2656 6.66185 43.2082 7.51205 43.2082 8.56024V20.4048C43.2082 22.012 43.4146 23.2116 43.8274 24.0036C44.2631 24.7956 45.0658 25.1916 46.2353 25.1916C47.3819 25.1916 48.1731 24.7723 48.6088 23.9337C49.0675 23.0952 49.2968 21.8374 49.2968 20.1602V17.5048H46.3041V14.2554H53.8718V28.6157H50.5695L50.2256 25.8554C49.3541 27.9518 47.7832 29 45.5129 29Z" fill="white"/>
<path d="M57.7449 0.314458H69.4404V3.94819H62.8015V12.0892H68.0301V15.688H62.8015V25.0867H69.5092V28.6157H57.7449V0.314458Z" fill="white"/>
<path d="M72.4584 0.314458H76.0014L82.778 16.4566V0.314458H86.9746V28.6157H83.6035L76.7926 11.7048V28.6157H72.4584V0.314458Z" fill="white"/>
<path d="M93.9893 4.12289H89.5518V0.314458H103.414V4.12289H99.0803V28.6157H93.9893V4.12289Z" fill="white"/>
<path d="M106.088 0.314458H111.11V28.6157H106.088V0.314458Z" fill="white"/>
<path d="M122.922 29C120.033 29 117.98 28.1847 116.765 26.5542C115.572 24.9004 114.976 22.5711 114.976 19.5663V9.46868C114.976 6.37068 115.572 4.01807 116.765 2.41084C117.957 0.803614 120.01 0 122.922 0C125.651 0 127.589 0.698795 128.735 2.09639C129.882 3.49398 130.455 5.50884 130.455 8.14097V10.5169H125.571V8.07109C125.571 7.06948 125.525 6.28916 125.433 5.73012C125.341 5.14779 125.101 4.68193 124.711 4.33253C124.344 3.95984 123.759 3.7735 122.956 3.7735C122.131 3.7735 121.512 3.97149 121.099 4.36747C120.686 4.74016 120.411 5.25261 120.273 5.90482C120.159 6.53374 120.101 7.36064 120.101 8.38554V20.6494C120.101 22.2566 120.308 23.4213 120.721 24.1434C121.133 24.8422 121.879 25.1916 122.956 25.1916C123.736 25.1916 124.309 25.0052 124.676 24.6325C125.066 24.2598 125.307 23.7707 125.399 23.1651C125.513 22.5361 125.571 21.7092 125.571 20.6843V18.1337H130.455V20.4048C130.455 23.1301 129.894 25.2498 128.77 26.7639C127.646 28.2546 125.697 29 122.922 29Z" fill="white"/>
<path d="M141.017 29C138.495 29 136.603 28.2779 135.341 26.8337C134.103 25.3896 133.426 23.2349 133.312 20.3699L137.68 19.4964C137.749 21.29 138.024 22.6643 138.506 23.6193C139.01 24.551 139.79 25.0169 140.845 25.0169C141.625 25.0169 142.198 24.7839 142.565 24.3181C142.955 23.8289 143.15 23.1767 143.15 22.3614C143.15 21.2434 142.898 20.3 142.393 19.5313C141.911 18.7394 141.143 17.8775 140.088 16.9458L136.58 13.8361C135.502 12.9044 134.688 11.9028 134.137 10.8313C133.61 9.75984 133.346 8.47872 133.346 6.98795C133.346 4.7751 133.977 3.06305 135.238 1.85181C136.522 0.61727 138.288 0 140.535 0C142.943 0 144.663 0.698795 145.695 2.09639C146.75 3.47068 147.358 5.33414 147.518 7.68675L143.15 8.45542C143.081 6.91807 142.863 5.76506 142.496 4.99639C142.152 4.20442 141.464 3.80843 140.432 3.80843C139.698 3.80843 139.125 4.06466 138.712 4.57711C138.3 5.06627 138.093 5.69518 138.093 6.46386C138.093 7.37229 138.265 8.14097 138.609 8.76988C138.976 9.3755 139.561 10.0277 140.363 10.7265L143.838 13.8361C145.145 14.9775 146.165 16.2004 146.899 17.5048C147.633 18.8092 148 20.3233 148 22.047C148 23.398 147.702 24.5976 147.106 25.6458C146.532 26.694 145.718 27.5209 144.663 28.1265C143.608 28.7088 142.393 29 141.017 29Z" fill="white"/>
</symbol><symbol id="mobile" viewBox="0 0 27 47">
<g opacity="0.8">
<rect x="1" y="1.36523" width="24.6603" height="44.0363" rx="5" stroke="white" stroke-width="2"/>
<path d="M1 37.4756H25.6603" stroke="white" stroke-width="2"/>
<path d="M1 9.9043H25.6603" stroke="white" stroke-width="2"/>
<circle cx="13.3304" cy="41.4358" r="1.32109" fill="white"/>
<path d="M12.4597 5.65625L18.7887 5.65625" stroke="white" stroke-width="2" stroke-linecap="round"/>
<circle cx="8.87134" cy="5.65625" r="1" fill="white"/>
</g>
</symbol><symbol id="services" viewBox="0 0 48 47">
<path fill-rule="evenodd" clip-rule="evenodd" d="M34.3889 12.6455C34.9557 14.4481 33.3515 16.0303 31.4731 16.2362C27.6386 16.6567 23.916 18.3369 20.9761 21.2768C18.0362 24.2168 16.356 27.9394 15.9355 31.774C15.7295 33.6523 14.1473 35.2565 12.3447 34.6897C9.73343 33.8686 7.276 32.4233 5.20643 30.3537C-1.65475 23.4925 -1.65475 12.3684 5.20645 5.5072C12.0676 -1.35397 23.1918 -1.35396 30.0529 5.50722C32.1225 7.57678 33.5678 10.0342 34.3889 12.6455ZM20.0335 10.6482C21.1426 11.7573 22.9408 11.7574 24.0499 10.6483C25.159 9.53916 25.159 7.74096 24.0499 6.63187C22.9408 5.52278 21.1426 5.52278 20.0335 6.63188C18.9244 7.74098 18.9244 9.53915 20.0335 10.6482ZM6.33533 24.3464C7.44443 25.4555 9.24259 25.4555 10.3517 24.3464C11.4608 23.2373 11.4608 21.4391 10.3517 20.33C9.24261 19.2209 7.44441 19.2209 6.33531 20.33C5.22621 21.4391 5.22624 23.2373 6.33533 24.3464ZM8.87183 13.1853C9.98093 14.2944 11.7791 14.2944 12.8882 13.1853C13.9973 12.0762 13.9973 10.278 12.8882 9.16893C11.7791 8.05984 9.98091 8.05984 8.87181 9.16894C7.76271 10.278 7.76274 12.0762 8.87183 13.1853ZM36.3221 30.2016C37.6804 28.9233 39.1209 27.5358 40.5359 26.1208C45.9274 20.7293 48.4712 15.4398 47.448 14.1398C46.1481 13.1166 40.8586 15.6604 35.4671 21.0519C34.0521 22.4669 32.6646 23.9075 31.3862 25.2658L36.3221 30.2016ZM34.1846 32.1116C33.6464 32.6005 33.0246 33.1717 32.4181 33.7288C31.3806 34.6819 30.388 35.5937 29.9363 35.9813L25.6066 31.6516C25.9942 31.1999 26.906 30.2073 27.859 29.1698C28.4161 28.5633 28.9874 27.9415 29.4763 27.4033L34.1846 32.1116ZM23.616 33.532L28.109 38.025C28.178 41.7348 24.8143 45.2365 21.2661 45.8355C18.4275 46.3148 15.5673 45.9738 14.4921 45.7434C15.191 45.1827 16.6579 43.6052 16.9344 41.7804C17.0242 41.1878 17.0292 40.62 17.034 40.0681C17.0476 38.4955 17.0602 37.0525 19.0311 35.5364C21.0951 33.9486 23.2708 33.589 23.6016 33.5343L23.616 33.532Z" fill="#5AB880"/>
</symbol><symbol id="services2" viewBox="0 0 39 43">
<path d="M3.21127 8.76754L19.7135 0.0683594L36.2157 8.76743L19.7134 17.4666L3.21127 8.76754Z" fill="#FF9862"/>
<path d="M0.979492 11.5716V33.2164L17.953 42.1639V20.5191L0.979492 11.5716Z" fill="#FF9862"/>
<path d="M21.4742 42.1639V20.5189L38.4476 11.5714V33.2164L21.4742 42.1639Z" fill="#FF9862"/>
</symbol><symbol id="services3" viewBox="0 0 56 29">
<path fill-rule="evenodd" clip-rule="evenodd" d="M14.7469 0.445312C7.05356 0.445312 0.816895 6.68198 0.816895 14.3753C0.816895 22.0685 7.05356 28.3052 14.7469 28.3052H41.7614C49.4547 28.3052 55.6914 22.0685 55.6914 14.3753C55.6914 6.68198 49.4547 0.445312 41.7614 0.445312H14.7469ZM41.5502 11.8061C42.9489 11.8061 44.0828 10.6723 44.0828 9.27359C44.0828 7.87489 42.9489 6.74101 41.5502 6.74101C40.1515 6.74101 39.0176 7.87489 39.0176 9.27359C39.0176 10.6723 40.1515 11.8061 41.5502 11.8061ZM12.7417 8.9576C12.7417 7.75317 13.7182 6.77676 14.9226 6.77676C16.127 6.77676 17.1034 7.75317 17.1034 8.9576V12.1954H20.3403C21.5447 12.1954 22.5212 13.1718 22.5212 14.3763C22.5212 15.5807 21.5447 16.5571 20.3403 16.5571H17.1034V19.7928C17.1034 20.9972 16.127 21.9736 14.9226 21.9736C13.7182 21.9736 12.7417 20.9972 12.7417 19.7928V16.5571H9.50511C8.30068 16.5571 7.32427 15.5807 7.32427 14.3763C7.32427 13.1718 8.30068 12.1954 9.50511 12.1954H12.7417V8.9576ZM44.0828 19.4754C44.0828 20.8741 42.9489 22.0079 41.5502 22.0079C40.1515 22.0079 39.0176 20.8741 39.0176 19.4754C39.0176 18.0767 40.1515 16.9428 41.5502 16.9428C42.9489 16.9428 44.0828 18.0767 44.0828 19.4754ZM44.1186 14.3745C44.1186 15.7732 45.2525 16.907 46.6512 16.907C48.0499 16.907 49.1837 15.7732 49.1837 14.3745C49.1837 12.9758 48.0499 11.8419 46.6512 11.8419C45.2525 11.8419 44.1186 12.9758 44.1186 14.3745ZM36.4494 16.907C35.0507 16.907 33.9168 15.7732 33.9168 14.3745C33.9168 12.9758 35.0507 11.8419 36.4494 11.8419C37.8481 11.8419 38.9819 12.9758 38.9819 14.3745C38.9819 15.7732 37.8481 16.907 36.4494 16.907Z" fill="#FF6062"/>
</symbol><symbol id="services4" viewBox="0 0 45 45">
<path fill-rule="evenodd" clip-rule="evenodd" d="M23.4125 0.0529663L22.2225 0.0371094L21.0724 0.0529663C20.2885 0.0635376 19.5993 0.572858 19.3457 1.31461C19.0071 2.30479 18.5917 3.46967 18.3266 4.09324C18.1929 4.4074 17.9619 4.8129 17.6951 5.22586C16.1891 5.62798 14.7626 6.22485 13.4444 6.98802C12.9628 6.88461 12.5118 6.761 12.1947 6.6332C11.5662 6.37976 10.4489 5.84984 9.50935 5.38904C8.80547 5.04384 7.95794 5.17111 7.39624 5.71797L6.57208 6.5203L6.55778 6.53426L6.54348 6.54809L5.74149 7.37265C5.19463 7.93442 5.06736 8.78188 5.41262 9.48569C5.87343 10.4253 6.40335 11.5426 6.65679 12.1711C6.78473 12.4885 6.90833 12.9399 7.01181 13.422C6.24932 14.7396 5.65292 16.1653 5.25114 17.6705C4.83771 17.9377 4.43166 18.1691 4.11717 18.3028C3.49359 18.5681 2.32878 18.9833 1.33854 19.3219C0.596784 19.5755 0.0874634 20.2648 0.0769599 21.0487L0.0610352 22.2386L0.0769599 23.3887C0.0874634 24.1726 0.596784 24.8619 1.33854 25.1155C2.32878 25.4541 3.49359 25.8695 4.11717 26.1346C4.43193 26.2685 4.83832 26.5001 5.25209 26.7676C5.65393 28.2719 6.25027 29.6968 7.01242 31.0136C6.90887 31.4962 6.78513 31.9482 6.65706 32.266C6.40362 32.8944 5.8737 34.0118 5.41283 34.9514C5.06763 35.6552 5.1949 36.5027 5.74176 37.0645L6.54416 37.8886L6.55805 37.9029L6.57194 37.9172L7.39651 38.7192C7.95821 39.266 8.80574 39.3933 9.50955 39.0481C10.4491 38.5873 11.5665 38.0574 12.1949 37.8039C12.5127 37.6757 12.965 37.552 13.4478 37.4484C14.7645 38.2104 16.1891 38.8064 17.6932 39.2081C17.9608 39.6222 18.1927 40.0286 18.3266 40.3436C18.5917 40.9672 19.0071 42.1321 19.3457 43.1222C19.5993 43.864 20.2885 44.3733 21.0724 44.3839L22.2624 44.3997L23.4125 44.3839C24.1964 44.3733 24.8857 43.864 25.1393 43.1222C25.4778 42.1321 25.8932 40.9672 26.1583 40.3436C26.2922 40.0288 26.524 39.6222 26.7916 39.2083C28.2957 38.8066 29.7205 38.2106 31.0373 37.4487C31.5199 37.5522 31.972 37.676 32.2897 37.8041C32.9182 38.0574 34.0355 38.5874 34.975 39.0482C35.6789 39.3934 36.5264 39.2661 37.0881 38.7193L37.9123 37.917L37.9409 37.889L38.7429 37.0646C39.2897 36.5028 39.417 35.6554 39.0717 34.9514C38.6109 34.0119 38.081 32.8945 37.8276 32.266C37.6996 31.9486 37.5759 31.497 37.4724 31.0148C38.235 29.6975 38.8317 28.272 39.2337 26.7669C39.6471 26.4997 40.0531 26.2683 40.3675 26.1346C40.9911 25.8695 42.156 25.4541 43.1462 25.1155C43.888 24.8619 44.3973 24.1726 44.4078 23.3887L44.4237 22.1988L44.4078 21.0487C44.3973 20.2648 43.888 19.5755 43.1462 19.3219C42.156 18.9833 40.9911 18.5681 40.3675 18.3028C40.0533 18.1692 39.6477 17.9381 39.2346 17.6711C38.8327 16.1653 38.236 14.7388 37.473 13.4207C37.5764 12.9391 37.7 12.4881 37.8278 12.1709C38.0812 11.5425 38.6112 10.4252 39.072 9.48555C39.4172 8.78175 39.29 7.93428 38.7431 7.37251L37.9407 6.54836L37.9268 6.53413L37.9129 6.51976L37.0884 5.71783C36.5267 5.17097 35.6792 5.04371 34.9753 5.3889C34.0357 5.8497 32.9184 6.37962 32.2899 6.63306C31.9729 6.76087 31.5221 6.88434 31.0407 6.98774C29.7224 6.22458 28.2958 5.62757 26.7897 5.22559C26.5229 4.81263 26.2919 4.4074 26.1583 4.09324C25.8932 3.46967 25.4778 2.30479 25.1393 1.31461C24.8857 0.572858 24.1964 0.0635376 23.4125 0.0529663ZM22.2423 34.777C29.1786 34.777 34.8015 29.154 34.8015 22.2179C34.8015 15.2816 29.1786 9.65863 22.2423 9.65863C15.306 9.65863 9.68309 15.2816 9.68309 22.2179C9.68309 29.154 15.306 34.777 22.2423 34.777Z" fill="#39AEBE"/>
<path d="M29.2535 23.1801C29.9937 22.7528 29.9937 21.6844 29.2535 21.2571L19.5702 15.6665C18.83 15.2392 17.9048 15.7733 17.9048 16.628V27.8093C17.9048 28.6639 18.83 29.1982 19.5702 28.7709L29.2535 23.1801Z" fill="#39AEBE"/>
</symbol><symbol id="services5" viewBox="0 0 49 26">
<path d="M45.3794 2.77691C47.5278 3.2696 48.8632 5.36499 48.542 7.5455L48.2355 9.62625C41.414 7.93358 33.3821 6.95735 24.7846 6.95735C16.1871 6.95735 8.15514 7.93369 1.33357 9.62636L1.02701 7.54561C0.705758 5.36509 2.04134 3.26971 4.18962 2.77702C10.2658 1.38375 17.2948 0.587891 24.7847 0.587891C32.2745 0.587891 39.3033 1.38364 45.3794 2.77691Z" fill="#5C90DE"/>
<path d="M47.7189 13.1323L46.5705 20.9271C46.1527 23.7631 43.9086 25.8487 41.2747 25.8487H32.1977C30.896 25.8487 29.6387 25.3324 28.6602 24.396L26.0101 21.834C25.3266 21.1733 24.2424 21.1733 23.559 21.834L20.9088 24.396C19.9304 25.3324 18.673 25.8487 17.3712 25.8487H8.29424C5.66048 25.8487 3.41642 23.7631 2.99858 20.9271L1.85015 13.1324C8.4101 11.4711 16.2716 10.4839 24.7846 10.4839C33.2976 10.4839 41.159 11.4711 47.7189 13.1323Z" fill="#5C90DE"/>
</symbol><symbol id="services6" viewBox="0 0 43 34">
<path fill-rule="evenodd" clip-rule="evenodd" d="M0.816895 31.2391V9.91504H42.5888V31.2391C42.5888 32.7153 41.3921 33.912 39.9159 33.912H3.4898C2.01359 33.912 0.816895 32.7153 0.816895 31.2391ZM4.48082 13.8217H18.5909V30.0055H4.48082V13.8217ZM21.6178 13.8217H38.9249V20.88H21.6178V13.8217ZM38.9249 23.3322H31.8056V30.0055H38.9249V23.3322ZM28.7366 30.0055V23.3322H21.6178V30.0055H28.7366Z" fill="#B289E5"/>
<path fill-rule="evenodd" clip-rule="evenodd" d="M0.816895 3.19634C0.816895 1.72013 2.01359 0.523438 3.4898 0.523438H39.9159C41.3921 0.523438 42.5888 1.72013 42.5888 3.19634V6.35072H0.816895V3.19634ZM4.38859 5.21901C5.37277 5.21901 6.17053 4.42125 6.17053 3.43708C6.17053 2.4529 5.37277 1.65515 4.38859 1.65515C3.40442 1.65515 2.60666 2.4529 2.60666 3.43708C2.60666 4.42125 3.40442 5.21901 4.38859 5.21901ZM10.8551 3.43708C10.8551 4.42125 10.0573 5.21901 9.07313 5.21901C8.08896 5.21901 7.2912 4.42125 7.2912 3.43708C7.2912 2.4529 8.08896 1.65515 9.07313 1.65515C10.0573 1.65515 10.8551 2.4529 10.8551 3.43708ZM13.7577 5.21901C14.7418 5.21901 15.5396 4.42125 15.5396 3.43708C15.5396 2.4529 14.7418 1.65515 13.7577 1.65515C12.7735 1.65515 11.9757 2.4529 11.9757 3.43708C11.9757 4.42125 12.7735 5.21901 13.7577 5.21901Z" fill="#B289E5"/>
</symbol><symbol id="services7" viewBox="0 0 62 32">
<circle opacity="0.2" cx="15.9433" cy="15.9687" r="15.9443" fill="#FF6062"/>
<circle opacity="0.5" cx="30.7168" cy="15.9687" r="15.9443" fill="#FF6062"/>
<circle cx="45.4892" cy="15.9687" r="15.9443" fill="#FF6062"/>
</symbol><symbol id="twitter" viewBox="0 0 35 29">
<path d="M34.6549 3.53241C33.396 4.09197 32.0412 4.46942 30.6197 4.63833C32.0711 3.76944 33.184 2.39312 33.7088 0.751273C32.3513 1.55691 30.8484 2.14149 29.2476 2.45707C27.9665 1.09188 26.1404 0.238281 24.1198 0.238281C20.2403 0.238281 17.095 3.38366 17.095 7.26377C17.095 7.8136 17.1568 8.34953 17.2771 8.8646C11.4382 8.57127 6.26098 5.77484 2.79585 1.52424C2.1911 2.56134 1.84494 3.76805 1.84494 5.05679C1.84494 7.49385 3.08502 9.64452 4.97016 10.9041C3.81905 10.8672 2.73538 10.5509 1.78794 10.0247C1.78725 10.0539 1.78725 10.0838 1.78725 10.1137C1.78725 13.517 4.20901 16.3558 7.4232 17.0023C6.83375 17.1621 6.21302 17.2483 5.57212 17.2483C5.11891 17.2483 4.67891 17.2045 4.25002 17.1218C5.14463 19.9127 7.73878 21.9445 10.8126 22.0008C8.40818 23.8853 5.37958 25.0086 2.08753 25.0086C1.52102 25.0086 0.961454 24.9752 0.411621 24.9098C3.52155 26.9041 7.21397 28.0663 11.181 28.0663C24.1038 28.0663 31.1696 17.3616 31.1696 8.07774C31.1696 7.77328 31.1633 7.46952 31.1501 7.16784C32.5223 6.17939 33.7137 4.9414 34.6549 3.53241Z"/>
</symbol><symbol id="vr" viewBox="0 0 53 54">
<mask id="mask0_2314_358" style="mask-type:alpha" maskUnits="userSpaceOnUse" x="0" y="0" width="53" height="54">
<circle cx="26.5" cy="26.6113" r="26.5" fill="#EC5188"/>
</mask>
<g mask="url(#mask0_2314_358)">
<rect x="-4.28076" y="-7.51367" width="62.9661" height="65.964" fill="#EC5188"/>
</g>
<path d="M27.2615 14.1482C27.3152 14.1637 27.3679 14.184 27.4189 14.2093L40.4741 20.6667C41.1753 21.0135 41.1753 22.0135 40.4741 22.3604L29.9469 27.5674L26.9703 28.9152C26.9565 28.9148 26.9427 28.9141 26.9289 28.913C26.9168 28.9121 26.9046 28.911 26.8925 28.9096L25.091 28.0807L13.5259 22.3604C12.8247 22.0135 12.8247 21.0135 13.5259 20.6667L26.5811 14.2093C26.6471 14.1766 26.716 14.1521 26.7863 14.1358C26.9429 14.0994 27.1065 14.1036 27.2615 14.1482Z" fill="white"/>
<path fill-rule="evenodd" clip-rule="evenodd" d="M19.0006 27.4862L18.6694 36.363C18.7064 36.4087 18.7586 36.4672 18.8312 36.5376C19.1499 36.8467 19.7006 37.2197 20.5226 37.5749C22.1566 38.281 24.4987 38.761 27.1724 38.761C29.846 38.761 32.1881 38.281 33.8221 37.5749C34.6441 37.2197 35.1948 36.8467 35.5136 36.5376C35.5861 36.4672 35.6383 36.4087 35.6753 36.363L35.3354 27.3208L29.9477 29.9857L26.9711 31.3336C26.9573 31.3331 26.9435 31.3324 26.9297 31.3314C26.9176 31.3304 26.9054 31.3293 26.8933 31.3279L25.0918 30.4991L19.0006 27.4862Z" fill="white"/>
</symbol><symbol id="vr2" viewBox="0 0 53 54">
<circle cx="26.5" cy="26.6113" r="26.5" fill="#FF6062"/>
<circle cx="26.5" cy="26.6113" r="16.5" stroke="white" stroke-width="2"/>
<path d="M21.6151 19.0374H27.5551C29.1097 19.0374 30.3051 19.4701 31.1411 20.3354C31.9771 21.1861 32.3951 22.2861 32.3951 23.6354C32.3951 24.9261 32.0064 25.9454 31.2291 26.6934C30.6864 27.2068 30.0117 27.5441 29.2051 27.7054L33.8031 33.7114H29.0731L25.4211 28.0794V33.7114H21.6151V19.0374ZM25.4211 21.9854V25.6154H26.1471C26.9684 25.6154 27.5844 25.4174 27.9951 25.0214C28.3177 24.6988 28.4791 24.2881 28.4791 23.7894C28.4791 23.2761 28.3104 22.8654 27.9731 22.5574C27.5917 22.1761 26.9831 21.9854 26.1471 21.9854H25.4211Z" fill="white"/>
</symbol><symbol id="vr3" viewBox="0 0 53 54">
<mask id="mask0_2314_360" style="mask-type:alpha" maskUnits="userSpaceOnUse" x="0" y="0" width="53" height="54">
<circle cx="26.5" cy="26.6113" r="26.5" fill="#EC5188"/>
</mask>
<g mask="url(#mask0_2314_360)">
<rect x="-4.28076" y="-7.51367" width="62.9661" height="65.964" fill="#FFC266"/>
</g>
<path fill-rule="evenodd" clip-rule="evenodd" d="M26.5 30.4458C24.8754 30.4483 21.9765 30.6271 19.6164 33.083C16.8991 35.9106 14.6909 36.6258 13.3242 35.7747C11.5376 34.6622 11.834 29.4489 12.6124 25.7904C13.4094 22.0445 15.2604 18.3254 17.6237 17.4456C19.4036 16.783 20.8541 17.2254 22.5347 17.738C23.6878 18.0897 24.9493 18.4745 26.5 18.5581C28.0507 18.4745 29.3122 18.0897 30.4653 17.738C32.1459 17.2254 33.5964 16.783 35.3763 17.4456C37.7396 18.3254 39.5906 22.0445 40.3876 25.7904C41.166 29.4489 41.4624 34.6622 39.6758 35.7747C38.3091 36.6258 36.1009 35.9106 33.3836 33.083C31.0235 30.6271 28.1246 30.4483 26.5 30.4458ZM18.1362 21.9274C18.1362 21.232 18.6843 20.6684 19.3605 20.6684C20.0367 20.6684 20.5848 21.232 20.5848 21.9274V23.1864H21.8092C22.4854 23.1864 23.0335 23.7501 23.0335 24.4454C23.0335 25.1408 22.4854 25.7045 21.8092 25.7045H20.5848V26.9635C20.5848 27.6588 20.0367 28.2225 19.3605 28.2225C18.6843 28.2225 18.1362 27.6588 18.1362 26.9635V25.7045H16.9118C16.2356 25.7045 15.6875 25.1408 15.6875 24.4454C15.6875 23.7501 16.2356 23.1864 16.9118 23.1864H18.1362V21.9274ZM34.2946 21.7371C34.2946 22.4728 33.7146 23.0693 32.9991 23.0693C32.2836 23.0693 31.7036 22.4728 31.7036 21.7371C31.7036 21.0013 32.2836 20.4048 32.9991 20.4048C33.7146 20.4048 34.2946 21.0013 34.2946 21.7371ZM32.9991 28.6324C33.7146 28.6324 34.2946 28.036 34.2946 27.3002C34.2946 26.5644 33.7146 25.968 32.9991 25.968C32.2836 25.968 31.7036 26.5644 31.7036 27.3002C31.7036 28.036 32.2836 28.6324 32.9991 28.6324ZM31.6466 24.5186C31.6466 25.2544 31.0666 25.8509 30.3511 25.8509C29.6356 25.8509 29.0556 25.2544 29.0556 24.5186C29.0556 23.7829 29.6356 23.1864 30.3511 23.1864C31.0666 23.1864 31.6466 23.7829 31.6466 24.5186ZM35.704 25.8509C36.4195 25.8509 36.9995 25.2544 36.9995 24.5186C36.9995 23.7829 36.4195 23.1864 35.704 23.1864C34.9885 23.1864 34.4085 23.7829 34.4085 24.5186C34.4085 25.2544 34.9885 25.8509 35.704 25.8509Z" fill="white"/>
</symbol><symbol id="vr4" viewBox="0 0 53 54">
<circle cx="26.5" cy="26.6113" r="26.5" fill="#5C90DE"/>
<path fill-rule="evenodd" clip-rule="evenodd" d="M26.5 30.4458C24.8754 30.4483 21.9765 30.6271 19.6164 33.083C16.8991 35.9106 14.6909 36.6258 13.3242 35.7747C11.5376 34.6622 11.834 29.4489 12.6124 25.7904C13.4094 22.0445 15.2604 18.3254 17.6237 17.4456C19.4036 16.783 20.8541 17.2254 22.5347 17.738C23.6878 18.0897 24.9493 18.4745 26.5 18.5581C28.0507 18.4745 29.3122 18.0897 30.4653 17.738C32.1459 17.2254 33.5964 16.783 35.3763 17.4456C37.7396 18.3254 39.5906 22.0445 40.3876 25.7904C41.166 29.4489 41.4624 34.6622 39.6758 35.7747C38.3091 36.6258 36.1009 35.9106 33.3836 33.083C31.0235 30.6271 28.1246 30.4483 26.5 30.4458ZM18.1362 21.9274C18.1362 21.232 18.6843 20.6684 19.3605 20.6684C20.0367 20.6684 20.5848 21.232 20.5848 21.9274V23.1864H21.8092C22.4854 23.1864 23.0335 23.7501 23.0335 24.4454C23.0335 25.1408 22.4854 25.7045 21.8092 25.7045H20.5848V26.9635C20.5848 27.6588 20.0367 28.2225 19.3605 28.2225C18.6843 28.2225 18.1362 27.6588 18.1362 26.9635V25.7045H16.9118C16.2356 25.7045 15.6875 25.1408 15.6875 24.4454C15.6875 23.7501 16.2356 23.1864 16.9118 23.1864H18.1362V21.9274ZM34.2946 21.7371C34.2946 22.4728 33.7146 23.0693 32.9991 23.0693C32.2836 23.0693 31.7036 22.4728 31.7036 21.7371C31.7036 21.0013 32.2836 20.4048 32.9991 20.4048C33.7146 20.4048 34.2946 21.0013 34.2946 21.7371ZM32.9991 28.6324C33.7146 28.6324 34.2946 28.036 34.2946 27.3002C34.2946 26.5644 33.7146 25.968 32.9991 25.968C32.2836 25.968 31.7036 26.5644 31.7036 27.3002C31.7036 28.036 32.2836 28.6324 32.9991 28.6324ZM31.6466 24.5186C31.6466 25.2544 31.0666 25.8509 30.3511 25.8509C29.6356 25.8509 29.0556 25.2544 29.0556 24.5186C29.0556 23.7829 29.6356 23.1864 30.3511 23.1864C31.0666 23.1864 31.6466 23.7829 31.6466 24.5186ZM35.704 25.8509C36.4195 25.8509 36.9995 25.2544 36.9995 24.5186C36.9995 23.7829 36.4195 23.1864 35.704 23.1864C34.9885 23.1864 34.4085 23.7829 34.4085 24.5186C34.4085 25.2544 34.9885 25.8509 35.704 25.8509Z" fill="white"/>
</symbol><symbol id="vr5" viewBox="0 0 53 54">
<mask id="mask0_2314_362" style="mask-type:alpha" maskUnits="userSpaceOnUse" x="0" y="0" width="53" height="54">
<circle cx="26.5" cy="26.6113" r="26.5" fill="#EC5188"/>
</mask>
<g mask="url(#mask0_2314_362)">
<rect x="-4.28076" y="-7.51367" width="62.9661" height="65.964" fill="#5AB880"/>
</g>
<path d="M39.9773 19.5845C41.331 19.9161 42.1725 21.3262 41.9701 22.7937L41.7769 24.194C37.4786 23.0548 32.4175 22.3978 27.0001 22.3978C21.5826 22.3978 16.5215 23.0549 12.2231 24.194L12.0299 22.7937C11.8275 21.3263 12.6691 19.9161 14.0228 19.5846C17.8515 18.6469 22.2806 18.1113 27.0001 18.1113C31.7196 18.1113 36.1486 18.6469 39.9773 19.5845Z" fill="white"/>
<path d="M41.4514 26.5535L40.7278 31.7992C40.4645 33.7078 39.0504 35.1113 37.3908 35.1113H31.6712C30.851 35.1113 30.0587 34.7639 29.4422 34.1337L27.7723 32.4095C27.3416 31.9649 26.6584 31.9649 26.2278 32.4095L24.5579 34.1337C23.9413 34.7639 23.149 35.1113 22.3288 35.1113H16.6092C14.9496 35.1113 13.5356 33.7078 13.2723 31.7992L12.5486 26.5536C16.6822 25.4355 21.6358 24.7711 27.0001 24.7711C32.3643 24.7711 37.3179 25.4355 41.4514 26.5535Z" fill="white"/>
</symbol><symbol id="vr6" viewBox="0 0 53 54">
<circle cx="26.5" cy="26.6113" r="26.5" fill="#B289E5"/>
<circle cx="26.5" cy="26.6113" r="16.5" stroke="white" stroke-width="2"/>
<path d="M21.6151 19.0374H27.5551C29.1097 19.0374 30.3051 19.4701 31.1411 20.3354C31.9771 21.1861 32.3951 22.2861 32.3951 23.6354C32.3951 24.9261 32.0064 25.9454 31.2291 26.6934C30.6864 27.2068 30.0117 27.5441 29.2051 27.7054L33.8031 33.7114H29.0731L25.4211 28.0794V33.7114H21.6151V19.0374ZM25.4211 21.9854V25.6154H26.1471C26.9684 25.6154 27.5844 25.4174 27.9951 25.0214C28.3177 24.6988 28.4791 24.2881 28.4791 23.7894C28.4791 23.2761 28.3104 22.8654 27.9731 22.5574C27.5917 22.1761 26.9831 21.9854 26.1471 21.9854H25.4211Z" fill="white"/>
</symbol></svg>