<svg width="35" height="29" fill="none" xmlns="http://www.w3.org/2000/svg"><path d="M34.655 3.532a13.98 13.98 0 01-4.035 1.106A7.038 7.038 0 0033.709.751a14.063 14.063 0 01-4.461 1.706A7.016 7.016 0 0024.12.238a7.025 7.025 0 00-7.025 7.026c0 .55.062 1.086.182 1.6-5.839-.293-11.016-3.09-14.481-7.34a6.99 6.99 0 00-.951 3.533 7.022 7.022 0 003.125 5.847 7.006 7.006 0 01-3.182-.88v.09a7.03 7.03 0 005.635 6.888 7.067 7.067 0 01-3.173.12A7.033 7.033 0 0010.813 22a14.094 14.094 0 01-8.725 3.008c-.567 0-1.127-.034-1.676-.1a19.88 19.88 0 0010.769 3.157c12.923 0 19.989-10.704 19.989-19.988 0-.305-.007-.608-.02-.91a14.229 14.229 0 003.505-3.636z"/></svg>