<svg width="53" height="54" fill="none" xmlns="http://www.w3.org/2000/svg"><mask id="a" style="mask-type:alpha" maskUnits="userSpaceOnUse" x="0" y="0" width="53" height="54"><circle cx="26.5" cy="26.611" r="26.5" fill="#EC5188"/></mask><g mask="url(#a)"><path fill="#EC5188" d="M-4.281-7.514h62.966V58.45H-4.281z"/></g><path d="M27.262 14.148a.942.942 0 01.157.061l13.055 6.458a.945.945 0 010 1.693l-10.527 5.207-2.977 1.348a.82.82 0 01-.078-.005l-1.801-.83-11.565-5.72a.945.945 0 010-1.693l13.055-6.458a.94.94 0 01.68-.06z" fill="#fff"/><path fill-rule="evenodd" clip-rule="evenodd" d="M19 27.486l-.33 8.877c.036.046.089.104.161.175.319.309.87.682 1.692 1.037 1.634.706 3.976 1.186 6.65 1.186 2.673 0 5.015-.48 6.65-1.186.821-.355 1.372-.728 1.69-1.037.073-.07.125-.13.162-.175l-.34-9.042-5.387 2.665-2.977 1.348a1.148 1.148 0 01-.078-.006l-1.801-.829L19 27.486z" fill="#fff"/></svg>