<svg width="53" height="54" fill="none" xmlns="http://www.w3.org/2000/svg"><circle cx="26.5" cy="26.611" r="26.5" fill="#FF6062"/><circle cx="26.5" cy="26.611" r="16.5" stroke="#fff" stroke-width="2"/><path d="M21.615 19.037h5.94c1.555 0 2.75.433 3.586 1.298.836.851 1.254 1.951 1.254 3.3 0 1.291-.389 2.31-1.166 3.058-.543.514-1.217.851-2.024 1.012l4.598 6.006h-4.73l-3.652-5.632v5.632h-3.806V19.037zm3.806 2.948v3.63h.726c.821 0 1.437-.198 1.848-.594.323-.322.484-.733.484-1.232 0-.513-.169-.924-.506-1.232-.381-.38-.99-.572-1.826-.572h-.726z" fill="#fff"/></svg>