<svg width="53" height="54" fill="none" xmlns="http://www.w3.org/2000/svg"><circle cx="26.5" cy="26.611" r="26.5" fill="#5C90DE"/><path fill-rule="evenodd" clip-rule="evenodd" d="M26.5 30.446c-1.625.002-4.523.181-6.884 2.637-2.717 2.828-4.925 3.543-6.292 2.692-1.786-1.113-1.49-6.326-.712-9.985.797-3.745 2.648-7.465 5.012-8.344 1.78-.663 3.23-.22 4.91.292 1.154.352 2.415.736 3.966.82 1.55-.084 2.812-.468 3.965-.82 1.68-.513 3.131-.955 4.911-.292 2.364.88 4.215 4.598 5.012 8.344.778 3.659 1.074 8.872-.712 9.985-1.367.85-3.575.136-6.292-2.692-2.36-2.456-5.26-2.635-6.884-2.637zm-8.364-8.519c0-.695.548-1.259 1.224-1.259.677 0 1.225.564 1.225 1.26v1.258h1.224c.676 0 1.224.564 1.224 1.26 0 .695-.548 1.258-1.224 1.258h-1.224v1.26c0 .695-.548 1.259-1.225 1.259-.676 0-1.224-.564-1.224-1.26v-1.259h-1.224c-.676 0-1.224-.563-1.224-1.259 0-.695.548-1.259 1.224-1.259h1.224v-1.259zm16.159-.19c0 .736-.58 1.332-1.296 1.332-.715 0-1.295-.596-1.295-1.332 0-.736.58-1.332 1.295-1.332.716 0 1.296.596 1.296 1.332zm-1.296 6.895c.716 0 1.296-.596 1.296-1.332 0-.736-.58-1.332-1.296-1.332-.715 0-1.295.596-1.295 1.332 0 .736.58 1.332 1.295 1.332zm-1.352-4.113c0 .735-.58 1.332-1.296 1.332-.715 0-1.295-.597-1.295-1.332 0-.736.58-1.333 1.295-1.333.716 0 1.296.597 1.296 1.333zm4.057 1.332c.715 0 1.295-.597 1.295-1.332 0-.736-.58-1.333-1.295-1.333s-1.296.597-1.296 1.333c0 .735.58 1.332 1.296 1.332z" fill="#fff"/></svg>