<svg width="53" height="54" fill="none" xmlns="http://www.w3.org/2000/svg"><mask id="a" style="mask-type:alpha" maskUnits="userSpaceOnUse" x="0" y="0" width="53" height="54"><circle cx="26.5" cy="26.611" r="26.5" fill="#EC5188"/></mask><g mask="url(#a)"><path fill="#5AB880" d="M-4.281-7.514h62.966V58.45H-4.281z"/></g><path d="M39.977 19.584c1.354.332 2.196 1.742 1.993 3.21l-.193 1.4c-4.298-1.14-9.36-1.796-14.777-1.796s-10.479.657-14.777 1.796l-.193-1.4c-.202-1.468.64-2.878 1.993-3.21 3.829-.937 8.258-1.473 12.977-1.473 4.72 0 9.149.536 12.977 1.473zm1.474 6.969l-.723 5.246c-.264 1.909-1.678 3.312-3.337 3.312h-5.72c-.82 0-1.612-.347-2.229-.977l-1.67-1.724a1.061 1.061 0 00-1.544 0l-1.67 1.724c-.617.63-1.409.977-2.23.977H16.61c-1.66 0-3.073-1.403-3.337-3.312l-.723-5.245c4.132-1.118 9.086-1.784 14.45-1.784 5.364 0 10.318.665 14.451 1.782z" fill="#fff"/></svg>